<svg xmlns="http://www.w3.org/2000/svg" width="255.328" height="59.228" viewBox="0 0 255.328 59.228">
  <g id="Logo" transform="translate(-123.58 -299.847)">
    <path id="Path_361" data-name="Path 361" d="M322.029,306.291a6.133,6.133,0,0,1,.66-1.731,11.479,11.479,0,0,1,6.985-4.547l1.327-.166a7.131,7.131,0,0,1,4.135,1.019,4.387,4.387,0,0,1,1.157,1.27l.91-.165.928.178a14.48,14.48,0,0,1,2.568,1.714,14.221,14.221,0,0,1,4.885,7.075,12.639,12.639,0,0,1,.319,4.118,11.671,11.671,0,0,1-.9,3.415,31.2,31.2,0,0,1,4.128-.371l1.567.021a26.477,26.477,0,0,1,13.626,4.246c1.1.671,2.149,1.375,3.188,2.136a45.9,45.9,0,0,1,4.79,4.225,58.946,58.946,0,0,1,5.02,6.04,4.168,4.168,0,0,1,.657,1.77l-.014.624-.157.661-.322.646-.475.555-.57.411-.6.257a3.675,3.675,0,0,1-2.767-.361l-1.563-.876c-3.026-1.568-6.619-3.143-10.1-2.449a6.669,6.669,0,0,0-2.987,1.617l-5.754,5.9a8.808,8.808,0,0,1-2.243,1.605,7.974,7.974,0,0,1-8.149-.743c-.049.09-.1.179-.149.268-.572.952-1.172,1.852-1.828,2.748a35.926,35.926,0,0,1-2.652,3.039,36.806,36.806,0,0,1-2.938,2.574,35.443,35.443,0,0,1-3.106,2.076,31.065,31.065,0,0,1-5.716,2.341c-.739.218-1.477.419-2.225.606-1.275.291-2.538.522-3.833.7-1.613.193-3.2.3-4.824.332a55.818,55.818,0,0,1-7.771-.556c-.722-.111-1.455-.208-2.168-.372a3.58,3.58,0,0,1-1.03-.555l-.315-.339-.256-.429-.159-.5-.036-.532.09-.508.186-.445a2.991,2.991,0,0,1,1.148-1.065l.592-.214c1.422-.365,2.8-.77,4.185-1.261a29.335,29.335,0,0,0,3.23-1.453,14.219,14.219,0,0,0,3.438-2.623l.562-.694a8.11,8.11,0,0,0,1.081-2.149c-.644.069-1.29.122-1.948.157a36.941,36.941,0,0,1-3.933-.1,34.207,34.207,0,0,1-4.439-.759,30.994,30.994,0,0,1-5.729-2.309l-1.352-.73a43.765,43.765,0,0,1-3.9-2.555c-1.29-.987-2.5-2.018-3.689-3.127a55.979,55.979,0,0,1-5.182-5.818c-.439-.584-.9-1.164-1.293-1.779a3.6,3.6,0,0,1-.352-1.118l.011-.462.115-.484.235-.47.345-.406.418-.3.443-.189a2.986,2.986,0,0,1,1.566.038l.576.26c1.273.73,2.543,1.4,3.877,2.014a29.469,29.469,0,0,0,3.329,1.212,14.27,14.27,0,0,0,4.292.518l.887-.106a8.041,8.041,0,0,0,3-1.216,12.085,12.085,0,0,0,.965-.783l6.011-6.164a10.7,10.7,0,0,1,.826-.726,7.625,7.625,0,0,1,3.993-1.469l.707-.009a7.58,7.58,0,0,1,3.336.933,11.1,11.1,0,0,1-.451-1.326,11.358,11.358,0,0,1,1.065-8.455,6.55,6.55,0,0,1,.936-1.277l-.157-.22-.277-.994.016-.864Z" transform="translate(0.928 0)" fill="#fff" fill-rule="evenodd"/>
    <path id="Path_362" data-name="Path 362" d="M313.2,322.279l-5.458,5.608c-3.726,3.857-9.479,4.142-18.163-.954-.695-.408-1.173.025-.714.663,5.44,7.56,11.387,12.1,18.49,14.533,6.58,1.865,15.554,1.3,21.961-4.164a5.306,5.306,0,0,0-.1-7.481l-8.535-8.306a5.305,5.305,0,0,0-7.479.1Z" transform="translate(0.943 0.119)" fill="#44c8f5" fill-rule="evenodd"/>
    <path id="Path_363" data-name="Path 363" d="M329.867,315.612l-1.853,2.011c-1.274,1.374-1.264,3.387.681,6.32.155.234.014.409-.218.261a13.022,13.022,0,0,1-5.424-6.174,8.507,8.507,0,0,1,1.033-7.743,1.853,1.853,0,0,1,2.612-.108L329.759,313a1.855,1.855,0,0,1,.108,2.613Z" transform="translate(1.137 0.056)" fill="#231f20" fill-rule="evenodd"/>
    <path id="Path_364" data-name="Path 364" d="M331.623,316.923c-.728.794-.223,1.943-2.183,2.386-2.569.58,3.479,3.844,6.246,1.333a1.14,1.14,0,0,0-.071-1.606l-2.386-2.183a1.141,1.141,0,0,0-1.606.071Z" transform="translate(1.173 0.095)" fill="#231f20" fill-rule="evenodd"/>
    <path id="Path_365" data-name="Path 365" d="M335.67,313.342l1.853-2.011c1.274-1.374,1.264-3.386-.681-6.32-.156-.234-.013-.409.218-.261a13.03,13.03,0,0,1,5.425,6.174,8.51,8.51,0,0,1-1.034,7.743,1.854,1.854,0,0,1-2.612.109l-3.061-2.82a1.855,1.855,0,0,1-.108-2.613Z" transform="translate(1.209 0.028)" fill="#faa61a" fill-rule="evenodd"/>
    <path id="Path_366" data-name="Path 366" d="M333.984,308.881a1.092,1.092,0,1,1-1.08,1.1,1.094,1.094,0,0,1,1.08-1.1Z" transform="translate(1.196 0.052)" fill="#231f20" fill-rule="evenodd"/>
    <path id="Path_367" data-name="Path 367" d="M329.383,309.5c-1.281-.744-1.09-2.459-3.845-2.235-3.609.294,2.988-6.473,7.651-4.315a1.568,1.568,0,0,1,.566,2.137l-2.234,3.846a1.571,1.571,0,0,1-2.139.566Z" transform="translate(1.148 0.015)" fill="#a6ce39" fill-rule="evenodd"/>
    <path id="Path_368" data-name="Path 368" d="M350.484,341.5l5.459-5.609c3.725-3.856,9.478-4.141,18.163.955.7.408,1.172-.025.713-.663-5.44-7.56-11.387-12.1-18.49-14.533-6.58-1.865-15.555-1.3-21.961,4.164a5.244,5.244,0,0,0-.994,1.439l4.314,0a8.42,8.42,0,0,1,2.168.333,7.675,7.675,0,0,1,3.5,2.356l.424.566a7.759,7.759,0,0,1,1.228,3.372l.04.834-.111.979c-.135.876-.3,1.722-.5,2.586a31.407,31.407,0,0,1-1.085,3.253c-.04.094-.081.185-.122.278a5.306,5.306,0,0,0,7.254-.308Z" transform="translate(1.199 0.119)" fill="#ed1c24" fill-rule="evenodd"/>
    <path id="Path_369" data-name="Path 369" d="M319.862,344.9c-.959,4.332-5.038,7.746-13.458,9.817-.782.192-.823.836-.049.973,9.172,1.623,16.6.73,23.386-2.481,6.016-3.253,12.052-9.918,12.834-18.3a5.3,5.3,0,0,0-5.289-5.289H331.75a7.6,7.6,0,0,1,1.656,3.914l.043.705a7.644,7.644,0,0,1-1.158,4.079l-.43.6a14.756,14.756,0,0,1-3.475,2.754c-.749.44-1.494.842-2.271,1.225a32.725,32.725,0,0,1-3.146,1.228c-1.036.308-2.053.56-3.109.773Z" transform="translate(1.041 0.17)" fill="#ffcb05" fill-rule="evenodd"/>
    <path id="Path_370" data-name="Path 370" d="M270.523,331.7a5.171,5.171,0,0,1-2.551,4.469,5.025,5.025,0,0,1-5.093,0,5.175,5.175,0,0,1-2.533-4.469,5.187,5.187,0,0,1,.392-2.013,5.293,5.293,0,0,1,1.1-1.674,5.028,5.028,0,0,1,1.626-1.124,4.836,4.836,0,0,1,1.959-.4,4.9,4.9,0,0,1,2.556.7,5.118,5.118,0,0,1,1.862,1.9,5.192,5.192,0,0,1,.686,2.612Zm-9.327,0a4.311,4.311,0,0,0,1.234,3.044,4.194,4.194,0,0,0,1.359.933,4.179,4.179,0,0,0,3.274,0,4.2,4.2,0,0,0,1.362-.933,4.273,4.273,0,0,0,.91-1.383,4.459,4.459,0,0,0-.243-3.845,4.25,4.25,0,0,0-1.544-1.586,4.158,4.158,0,0,0-4.244,0,4.253,4.253,0,0,0-1.542,1.584,4.392,4.392,0,0,0-.565,2.183Zm2.393-2.666h2.4a1.425,1.425,0,0,1,1.08.416,1.551,1.551,0,0,1,.4,1.118,1.437,1.437,0,0,1-.154.713,1.643,1.643,0,0,1-.555.518.87.87,0,0,1,.283.128q.317.255.353,1.488l.014.324a.784.784,0,0,0,.215.6v.141h-.84a2.08,2.08,0,0,1-.141-.865v-.252a2.288,2.288,0,0,0-.143-.853c-.111-.234-.363-.353-.763-.353h-1.42v2.323h-.723v-5.443Zm.723,2.484h1.548a.818.818,0,0,0,.617-.265.931.931,0,0,0,.247-.66.974.974,0,0,0-.229-.645.66.66,0,0,0-.522-.28h-1.661v1.849Z" transform="translate(0.782 0.152)" fill="#fff" fill-rule="evenodd"/>
    <path id="Path_371" data-name="Path 371" d="M144.516,358.226H123.58v-27.9h20.936v5.261H128.964v6.178h15v5.061h-15v6.061h15.552v5.337Zm2.166-27.9H168.17v2.584L153.9,353.087H168.17v5.139H146.327v-3.137l13.956-19.66h-13.6v-5.1Zm32.028,4.946h-8.789v-4.946h22.993v4.946h-8.786v22.952H178.71V335.274Zm21.882-2.155-.017.351-.049.33-.079.307-.108.286-.134.262-.158.24-.18.217-.2.194-.216.172-.23.149-.243.125-.254.1-.263.079-.269.057-.273.033-.275.012-.275-.012-.274-.033-.268-.057-.263-.079-.253-.1-.244-.125-.23-.149-.216-.172-.2-.194-.179-.217-.158-.24-.134-.262-.109-.286-.079-.307-.048-.33-.017-.351.017-.351.048-.329.079-.309.109-.285.134-.263.158-.24.179-.218.2-.194.216-.171.23-.149.244-.126.253-.1.263-.079.268-.056.274-.034.275-.012.275.012.273.034.269.056.263.079.254.1.243.126.23.149.216.171.2.194.18.218.158.24.134.263.108.285.079.309.049.329.017.351Zm-5.461,5.322h5.025v19.785h-5.025V338.441Zm16.184-5.431v5.548H216.7v4.353h-5.424v8.334l0,.169.009.162.014.157.02.151.025.145.031.14.036.134.041.129.045.123.051.117.055.113.06.106.064.1.069.1.073.091.077.084.081.079.086.074.089.069.095.064.1.058.1.054.1.048.11.044.113.038.117.033.12.029.123.023.127.018.13.013.133.007.205,0c.118,0,.235-.011.353-.023.1-.011.2-.024.292-.04.15-.027.3-.058.444-.1.1-.026.2-.054.294-.084.146-.047.29-.1.431-.155.116-.048.23-.1.344-.153l.167-.083,1.407,4.314c-.156.062-.313.123-.471.182-.126.045-.25.09-.376.133-.2.066-.408.129-.614.186-.122.032-.243.063-.364.093-.2.045-.406.086-.61.122-.124.02-.247.039-.372.056-.212.026-.423.048-.637.065-.133.009-.264.017-.4.023-.223.009-.445.013-.669.017l-.387-.008-.379-.023-.369-.038-.36-.053-.351-.069-.341-.083-.331-.1-.32-.114-.31-.13-.3-.144-.287-.16-.277-.175-.264-.19-.252-.2-.239-.22-.227-.235-.213-.249-.2-.264-.187-.28-.174-.295-.16-.309-.145-.323-.132-.338-.117-.353-.1-.366-.086-.382-.071-.4-.055-.409-.04-.424-.024-.439-.008-.453V342.91h-3.645v-4.353h3.645v-5.011l5.022-.536Zm13.772-2.642v27.858H220.1V330.368Zm8.282,19.825.017.11.044.215.054.211.064.207.073.2.083.2.094.192.1.186.113.182.122.176.131.17.141.165.15.158.16.152.168.146.177.139.186.133.2.125.2.118.213.111.221.1.23.095.238.088.247.078.255.069.264.062.273.052.281.043.289.034.3.024.3.015.313.005.335-.008.347-.023.354-.038.359-.052.362-.067.363-.082.359-.1.354-.109.346-.123.169-.065.166-.069.163-.072.16-.075.155-.078.151-.081.146-.085.142-.086.136-.091.13-.093.125-.095.118-.1.112-.1.174-.172,3.225,3.182-.268.267-.206.193-.214.186-.22.18-.226.173-.233.167-.238.16-.243.153-.249.148-.254.141-.258.134-.262.128-.267.122-.271.115-.273.109-.277.1-.28.1-.281.09-.284.083-.285.078-.287.07-.288.065-.288.058-.29.051-.289.046-.289.04-.289.033-.288.028-.286.021-.286.015-.284.009-.282,0-.626-.012-.61-.036-.594-.06-.577-.083-.56-.107-.544-.129-.526-.152-.509-.173-.491-.2-.473-.216-.455-.237-.437-.257-.417-.278-.4-.3-.378-.317-.359-.336-.339-.354-.319-.373-.3-.389-.278-.407-.257-.424-.235-.442-.214-.457-.193-.473-.17-.488-.149-.5-.127-.518-.1-.531-.081-.545-.058-.559-.035-.571-.011-.584.011-.555.035-.546.059-.535.081-.524.1-.512.127-.5.149-.488.17-.475.191-.461.212-.446.233-.432.253-.417.274-.4.294-.386.313-.369.332-.352.351-.334.369-.316.387-.3.405-.279.421-.259.44-.238.456-.219.473-.2.489-.176.5-.154.519-.132.535-.109.549-.086.563-.061.577-.038.591-.012.608.012.593.036.579.059.564.083.547.107.532.132.514.155.5.179.479.2.462.226.443.25.422.276.4.3.383.322.362.347.341.37.32.394.3.417.275.442.252.465.228.489.2.512.18.535.156.559.131.582.1.6.079.63.052.652.026.675v.7l-.029.722-.063.833ZM243.75,346l-.018-.12-.043-.222-.052-.214-.061-.207-.07-.2-.079-.192-.088-.185-.1-.177-.1-.17-.113-.163-.12-.155-.128-.149-.135-.141-.144-.134-.15-.127-.158-.12-.164-.112-.172-.106-.179-.1-.185-.092-.192-.083-.2-.076-.205-.069-.21-.061-.217-.055-.223-.047-.228-.04-.234-.033-.239-.025-.245-.019-.249-.011-.254,0-.241,0-.236.011-.234.018-.231.026-.227.033-.223.04-.219.047-.215.055-.212.061-.207.069-.2.076-.2.085-.192.091-.188.1-.182.106-.178.113-.171.121-.167.127-.16.135-.154.142-.148.149-.143.157-.135.163-.129.171-.122.178-.116.186-.108.193-.1.2-.093.207-.086.215-.078.223-.032.106Zm20.2-2.06-.205-.187-.13-.114-.131-.108-.132-.1-.134-.1-.134-.095-.136-.09-.137-.084-.138-.08-.14-.076-.14-.072-.142-.067-.144-.064-.144-.059-.294-.108-.3-.094-.3-.078-.311-.064-.316-.052-.323-.039-.329-.027-.335-.016-.341-.005-.211,0-.2.006-.2.01-.191.015-.186.018-.179.022-.172.025-.166.03-.16.033-.153.037-.147.041-.139.044-.134.048-.126.051-.12.055-.112.057-.107.062-.1.064-.092.067-.084.07-.078.074-.071.076-.064.079-.057.082-.05.086-.044.087-.037.092-.031.094-.024.1-.017.1-.01.1,0,.108,0,.112.01.108.016.1.022.1.028.1.035.094.042.092.047.088.055.086.061.082.068.079.075.076.081.074.09.071.1.068.1.065.113.063.119.059.127.057.135.054.142.05.15.048.158.044.165.041.173.039.181.035.189.032.2.029.2.025.212.022c.266.023.532.041.8.06l.354.028.357.033.361.039.362.045.363.051.363.06.361.068.36.077.356.086.352.1.347.11.34.121.333.133.324.148.315.161.3.176.293.191.28.208.267.225.25.243.235.261.217.281.2.3.179.321.159.342.138.363.115.384.092.408.065.43.04.456.014.479-.008.327-.025.323-.042.32-.058.315-.075.311-.092.306-.109.3-.126.294-.142.288-.159.281-.175.274-.193.264-.208.257L266,356.5l-.241.238-.258.228-.275.218-.292.207-.308.2-.324.184-.34.172-.357.16-.373.146-.388.133-.406.119-.421.1-.437.09-.454.074-.471.058-.487.042-.5.026-.518.008-.581-.006-.29-.009-.291-.013-.291-.017-.291-.022-.291-.027-.29-.033-.29-.039-.29-.044-.29-.052-.288-.058-.289-.066-.289-.073-.287-.083-.287-.09-.287-.1-.286-.109-.285-.118-.284-.128-.283-.138-.283-.149-.281-.159-.28-.171-.28-.182-.278-.194-.277-.206-.276-.219-.274-.231-.273-.245-.272-.259-.326-.329,2.489-3.61.216.23.142.138.152.137.16.133.169.132.177.128.185.126.192.122.2.12.2.116.209.112.214.109.219.1.222.1.226.1.228.091.231.089.233.083.233.079.235.073.235.069.235.064.234.059.232.053.231.049.229.042.226.037.222.031.219.025.214.019.209.013.205.007h.167l.166-.005.165-.01.164-.016.161-.02.159-.026.157-.032.155-.035.151-.041.148-.046.144-.05.14-.056.136-.059.132-.064.127-.068.122-.072.116-.076.111-.08.1-.084.1-.087.092-.092.084-.1.078-.1.07-.1.063-.1.055-.108.047-.111.04-.114.031-.116.022-.12.014-.122.005-.126,0-.118-.01-.114-.015-.11-.022-.1-.028-.1-.035-.095-.041-.091-.048-.087-.054-.082-.062-.081-.068-.075-.076-.073-.084-.069-.093-.066-.1-.063-.109-.061-.117-.057-.125-.053-.134-.051-.143-.049-.152-.045-.16-.042-.169-.039-.179-.037-.187-.033-.2-.032-.421-.053-.46-.044-.5-.035-.349-.029-.352-.035-.354-.043-.356-.05-.356-.058-.356-.066-.355-.074-.352-.083-.35-.094-.345-.1-.34-.114-.334-.123-.328-.135-.32-.146-.311-.158-.3-.169-.291-.182-.279-.2-.268-.208-.252-.223-.238-.236-.223-.25-.206-.265-.189-.282-.17-.3-.151-.313-.13-.328-.109-.345-.086-.362-.062-.378-.038-.4-.012-.413.013-.42.041-.4.065-.387.092-.371.115-.355.137-.338.159-.324.179-.307.2-.292.215-.276.233-.261.249-.246.263-.231.278-.217.29-.2.3-.189.312-.175.321-.163.329-.149.336-.137.342-.124.347-.113.351-.1.354-.089.356-.077.356-.066.357-.055.355-.044.353-.034.35-.024.345-.014.339-.005.566.007.277.009.273.013.269.017.264.021.263.026.257.03.255.035.251.039.248.045.246.05.242.054.24.061.238.065.235.072.233.077.23.084.229.089.227.1.225.1.223.11.221.116.22.123.219.13.218.138.216.144.216.152.215.16.214.167.213.175.287.245-2.819,3.319Z" transform="translate(0 0.173)" fill="#fff" fill-rule="evenodd"/>
  </g>
</svg>
