<svg xmlns="http://www.w3.org/2000/svg" xmlns:xlink="http://www.w3.org/1999/xlink" width="754" height="791" viewBox="0 0 754 791">
  <defs>
    <clipPath id="clip-path">
      <rect id="Rectangle_14" data-name="Rectangle 14" width="754" height="791" transform="translate(1166 85)" fill="#fff" stroke="#707070" stroke-width="1"/>
    </clipPath>
  </defs>
  <g id="bg_" data-name="bg " transform="translate(-1166 -85)" clip-path="url(#clip-path)">
    <g id="Group_100" data-name="Group 100" transform="translate(2043.576 2933.069) rotate(-116)" opacity="0.15">
      <path id="Path_372" data-name="Path 372" d="M1528.833,401.307,1252.739,684.981c-188.488,195.1-479.487,209.549-918.784-48.28-35.154-20.655-59.319,1.272-36.12,33.526,275.177,382.419,575.995,612.065,935.318,735.13,332.869,94.32,786.818,65.626,1110.885-210.618C2446.7,1089.226,2444.361,919,2338.9,816.338L1907.182,396.169c-105.462-102.612-275.736-100.324-378.35,5.138Z" transform="translate(0 905.538)" fill="#e92327" stroke="#03284b" stroke-miterlimit="10" stroke-width="3" fill-rule="evenodd" opacity="0.29"/>
      <path id="Path_453" data-name="Path 453" d="M1528.833,401.307,1252.739,684.981c-188.488,195.1-479.487,209.549-918.784-48.28-35.154-20.655-59.319,1.272-36.12,33.526,275.177,382.419,575.995,612.065,935.318,735.13,332.869,94.32,786.818,65.626,1110.885-210.618C2446.7,1089.226,2444.361,919,2338.9,816.338L1907.182,396.169c-105.462-102.612-275.736-100.324-378.35,5.138Z" transform="translate(1427.416 2332.953)" fill="rgba(0,0,0,0)" stroke="#03284b" stroke-miterlimit="10" stroke-width="3" fill-rule="evenodd" opacity="0.29"/>
      <path id="Path_373" data-name="Path 373" d="M691.839,609.085l-93.71,101.747c-64.457,69.495-63.948,171.345,34.442,319.693,7.834,11.854.713,20.706-11.04,13.228-138.681-88.726-224.608-189.3-274.364-312.316-39.325-114.365-38-273.3,52.248-391.679,34.849-37.85,94.27-40.292,132.12-5.444l154.859,142.6c37.852,34.849,40.294,94.321,5.445,132.171Z" transform="translate(1689.846 357.311)" fill="none" stroke="#03284b" stroke-miterlimit="10" stroke-width="3" fill-rule="evenodd" opacity="0.29"/>
      <path id="Path_374" data-name="Path 374" d="M470.7,335.17c-36.834,40.191-11.294,98.289-110.448,120.674C230.322,485.2,536.227,650.283,676.233,523.252a57.645,57.645,0,0,0-3.613-81.246L551.948,331.559A57.7,57.7,0,0,0,470.7,335.17Z" transform="translate(2001.641 699.548)" fill="rgba(0,0,0,0)" stroke="#03284b" stroke-miterlimit="10" stroke-width="3" fill-rule="evenodd" opacity="0.29"/>
      <path id="Path_375" data-name="Path 375" d="M359.8,742.119l93.71-101.748c64.457-69.493,63.948-171.293-34.442-319.691-7.886-11.855-.662-20.707,11.041-13.228,138.681,88.726,224.608,189.3,274.413,312.316,39.275,114.364,37.952,273.346-52.3,391.679-34.849,37.85-94.269,40.291-132.12,5.494L365.246,874.289c-37.85-34.848-40.291-94.32-5.442-132.17Z" transform="translate(2319.087 108.03)" fill="none" stroke="#03284b" stroke-miterlimit="10" stroke-width="3" fill-rule="evenodd" opacity="0.29"/>
      <path id="Path_376" data-name="Path 376" d="M387.547,308.885a55.253,55.253,0,1,1-54.639,55.859,55.344,55.344,0,0,1,54.639-55.859Z" transform="translate(2205.419 316.809)" fill="rgba(0,0,0,0)" stroke="#03284b" stroke-miterlimit="10" stroke-width="3" fill-rule="evenodd" opacity="0.29"/>
      <path id="Path_377" data-name="Path 377" d="M571.5,655.351c-64.813-37.646-55.148-124.385-194.491-113.041C194.42,557.165,528.154,214.884,764.058,324.06c37.595,21.826,50.465,70.513,28.641,108.108L679.708,626.71c-21.876,37.6-70.563,50.466-108.209,28.641Z" transform="translate(1786.275 0)" fill="rgba(0,0,0,0)" stroke="#03284b" stroke-miterlimit="10" stroke-width="3" fill-rule="evenodd" opacity="0.29"/>
      <path id="Path_378" data-name="Path 378" d="M1198.844,1373.449l276.144-283.727c188.437-195.05,479.438-209.5,918.785,48.332,35.154,20.654,59.268-1.272,36.071-33.526-275.18-382.421-576-612.066-935.321-735.131-332.869-94.32-786.817-65.626-1110.884,210.62a265.43,265.43,0,0,0-50.265,72.8l218.2-.152A425.93,425.93,0,0,1,661.259,669.5C733.4,694.025,788.29,731.112,838.2,788.7l21.468,28.643c34.9,54.333,53.876,106.53,62.118,170.581l2.034,42.173-5.6,49.5c-6.817,44.31-15.109,87.094-25.285,130.8a1588.124,1588.124,0,0,1-54.893,164.578c-2.036,4.731-4.07,9.36-6.155,14.042,106.02,91.878,267.953,86.18,366.953-15.567Z" transform="translate(2228.913 905.446)" fill="#4dc4ef" stroke="#03284b" stroke-miterlimit="10" stroke-width="3" fill-rule="evenodd" opacity="0.29"/>
      <path id="Path_379" data-name="Path 379" d="M1017.326,1102.65C968.792,1321.765,762.5,1494.482,336.58,1599.232c-39.581,9.716-41.615,42.276-2.493,49.194,463.971,82.112,839.676,36.935,1182.975-125.5,304.327-164.578,609.673-501.72,649.2-925.756,0-147.179-120.419-267.547-267.547-267.547h-280.01c47.72,60.286,73.666,121.642,83.79,198l2.188,35.664c-.762,76.667-18.875,140.717-58.556,206.345l-21.775,30.525c-47.718,57.182-113.5,99.407-175.769,139.291-37.9,22.233-75.548,42.583-114.873,61.966a1656.267,1656.267,0,0,1-159.136,62.117c-52.4,15.568-103.832,28.336-157.25,39.121Z" transform="translate(853.432 1351.098)" fill="#ffcb07" stroke="#03284b" stroke-miterlimit="10" stroke-width="3" fill-rule="evenodd" opacity="0.29"/>
      <path id="Path_452" data-name="Path 452" d="M1017.326,1102.65C968.792,1321.765,762.5,1494.482,336.58,1599.232c-39.581,9.716-41.615,42.276-2.493,49.194,463.971,82.112,839.676,36.935,1182.975-125.5,304.327-164.578,609.673-501.72,649.2-925.756,0-147.179-120.419-267.547-267.547-267.547h-280.01c47.72,60.286,73.666,121.642,83.79,198l2.188,35.664c-.762,76.667-18.875,140.717-58.556,206.345l-21.775,30.525c-47.718,57.182-113.5,99.407-175.769,139.291-37.9,22.233-75.548,42.583-114.873,61.966a1656.267,1656.267,0,0,1-159.136,62.117c-52.4,15.568-103.832,28.336-157.25,39.121Z" transform="translate(2280.848 2778.513)" fill="#ffcb07" stroke="#03284b" stroke-miterlimit="10" stroke-width="3" fill-rule="evenodd" opacity="0.29"/>
    </g>
  </g>
</svg>
