<svg xmlns="http://www.w3.org/2000/svg" width="73.272" height="55" viewBox="0 0 73.272 55">
  <g id="Group_149" data-name="Group 149" transform="translate(12948 16108)">
    <path id="Path_441" data-name="Path 441" d="M626.708,94.7a3.054,3.054,0,0,1,.327-.859A5.692,5.692,0,0,1,630.5,91.59l.658-.082a3.545,3.545,0,0,1,2.051.505,2.184,2.184,0,0,1,.574.631l.451-.082.46.089a7.127,7.127,0,0,1,1.274.85,7.054,7.054,0,0,1,2.423,3.509,6.265,6.265,0,0,1,.158,2.042,5.787,5.787,0,0,1-.445,1.695,15.474,15.474,0,0,1,2.048-.185l.777.01a13.132,13.132,0,0,1,6.759,2.106c.545.333,1.066.682,1.581,1.06a22.9,22.9,0,0,1,2.376,2.1,29.294,29.294,0,0,1,2.489,3,2.061,2.061,0,0,1,.326.878l-.007.309-.077.328-.16.32-.235.276-.283.2-.3.127a1.823,1.823,0,0,1-1.372-.179l-.775-.435c-1.5-.778-3.283-1.559-5.01-1.215a3.308,3.308,0,0,0-1.482.8l-2.854,2.927a4.365,4.365,0,0,1-1.112.8,3.955,3.955,0,0,1-4.043-.368l-.073.133c-.284.472-.581.918-.907,1.362a17.816,17.816,0,0,1-1.315,1.508A18.255,18.255,0,0,1,633,117.88a17.58,17.58,0,0,1-1.54,1.03,15.371,15.371,0,0,1-2.836,1.161c-.367.108-.733.209-1.1.3-.633.144-1.259.259-1.9.349-.8.1-1.587.149-2.393.165a27.839,27.839,0,0,1-3.855-.276c-.358-.055-.722-.1-1.076-.185a1.791,1.791,0,0,1-.511-.276l-.156-.168-.127-.213-.079-.248-.018-.263.044-.252.092-.22a1.476,1.476,0,0,1,.57-.528l.294-.107c.705-.181,1.389-.382,2.076-.626a14.463,14.463,0,0,0,1.6-.721,7.064,7.064,0,0,0,1.705-1.3l.279-.344a4.031,4.031,0,0,0,.536-1.066c-.32.034-.64.06-.967.077a18.315,18.315,0,0,1-1.951-.051,16.881,16.881,0,0,1-2.2-.377,15.368,15.368,0,0,1-2.841-1.145l-.67-.362a21.861,21.861,0,0,1-1.937-1.268c-.64-.489-1.242-1-1.83-1.551a27.655,27.655,0,0,1-2.57-2.886c-.218-.289-.445-.577-.642-.882a1.788,1.788,0,0,1-.175-.555l.005-.228.057-.24.117-.233.171-.2.208-.149.219-.094a1.476,1.476,0,0,1,.777.018l.286.129c.632.362,1.262.7,1.923,1a14.513,14.513,0,0,0,1.651.6,7.092,7.092,0,0,0,2.129.256l.44-.052a4,4,0,0,0,1.488-.6,6.091,6.091,0,0,0,.479-.389l2.982-3.057a5.3,5.3,0,0,1,.41-.36,3.777,3.777,0,0,1,1.98-.728l.351,0a3.756,3.756,0,0,1,1.654.463,5.562,5.562,0,0,1,.305-4.851,3.25,3.25,0,0,1,.464-.634l-.078-.109-.137-.492.008-.429Z" transform="translate(-13543.913 -16199.508)" fill="#fff" fill-rule="evenodd"/>
    <path id="Path_442" data-name="Path 442" d="M623.7,113.137l-2.707,2.782c-1.848,1.913-4.7,2.054-9.01-.474-.344-.2-.581.012-.354.329a18.483,18.483,0,0,0,9.171,7.208,12.08,12.08,0,0,0,10.893-2.065,2.631,2.631,0,0,0-.05-3.71l-4.233-4.12a2.631,2.631,0,0,0-3.71.05Z" transform="translate(-13545.276 -16209.951)" fill="#44c8f5" fill-rule="evenodd"/>
    <path id="Path_443" data-name="Path 443" d="M649.043,104.29l-.919,1c-.632.681-.627,1.68.337,3.134.077.117.007.2-.108.13a6.461,6.461,0,0,1-2.691-3.063,4.22,4.22,0,0,1,.513-3.84.92.92,0,0,1,1.3-.054l1.518,1.4a.919.919,0,0,1,.053,1.3Z" transform="translate(-13562.257 -16204.442)" fill-rule="evenodd"/>
    <path id="Path_444" data-name="Path 444" d="M653.065,108.4c-.361.394-.11.963-1.083,1.183-1.274.288,1.726,1.906,3.1.66a.565.565,0,0,0-.035-.8l-1.183-1.083a.566.566,0,0,0-.8.036Z" transform="translate(-13565.39 -16207.882)" fill-rule="evenodd"/>
    <path id="Path_445" data-name="Path 445" d="M658.281,100.646l.919-1c.632-.681.627-1.68-.338-3.134-.077-.117-.007-.2.108-.13a6.461,6.461,0,0,1,2.69,3.063,4.221,4.221,0,0,1-.512,3.841.92.92,0,0,1-1.3.053l-1.518-1.4a.919.919,0,0,1-.053-1.3Z" transform="translate(-13568.579 -16201.938)" fill="#faa61a" fill-rule="evenodd"/>
    <path id="Path_446" data-name="Path 446" d="M656.3,100.542a.542.542,0,1,1-.536.548.543.543,0,0,1,.536-.548Z" transform="translate(-13567.438 -16204.035)" fill="#231f20" fill-rule="evenodd"/>
    <path id="Path_447" data-name="Path 447" d="M649.778,97.649c-.635-.369-.541-1.22-1.907-1.108-1.79.146,1.482-3.211,3.8-2.14a.779.779,0,0,1,.281,1.061l-1.108,1.907a.779.779,0,0,1-1.061.281Z" transform="translate(-13563.226 -16200.852)" fill="#a6ce39" fill-rule="evenodd"/>
    <path id="Path_448" data-name="Path 448" d="M664.717,122.668l2.708-2.782c1.848-1.913,4.7-2.054,9.009.474.345.2.581-.012.354-.329a18.481,18.481,0,0,0-9.171-7.208,12.079,12.079,0,0,0-10.893,2.065,2.593,2.593,0,0,0-.493.713h2.14a4.181,4.181,0,0,1,1.076.165,3.811,3.811,0,0,1,1.735,1.169l.211.281a3.85,3.85,0,0,1,.609,1.673l.02.414-.055.485c-.067.435-.148.854-.248,1.282a15.587,15.587,0,0,1-.538,1.614l-.06.137a2.632,2.632,0,0,0,3.6-.153Z" transform="translate(-13567.674 -16209.95)" fill="#ed1c24" fill-rule="evenodd"/>
    <path id="Path_449" data-name="Path 449" d="M635.628,128.86c-.475,2.149-2.5,3.842-6.675,4.869-.388.1-.408.415-.024.482a18.481,18.481,0,0,0,11.6-1.231,12.08,12.08,0,0,0,6.366-9.077,2.632,2.632,0,0,0-2.623-2.624h-2.746a3.773,3.773,0,0,1,.822,1.942l.021.35a3.791,3.791,0,0,1-.574,2.023l-.214.3a7.3,7.3,0,0,1-1.724,1.366c-.371.218-.74.418-1.126.608a16.316,16.316,0,0,1-1.56.609c-.514.153-1.018.278-1.542.384Z" transform="translate(-13553.853 -16214.428)" fill="#ffcb05" fill-rule="evenodd"/>
    <path id="Path_450" data-name="Path 450" d="M724.76,172.093a2.566,2.566,0,0,1-1.265,2.217,2.494,2.494,0,0,1-2.527,0,2.567,2.567,0,0,1-1.257-2.217,2.575,2.575,0,0,1,.195-1,2.619,2.619,0,0,1,.544-.83,2.491,2.491,0,0,1,.806-.558,2.47,2.47,0,0,1,2.239.148,2.544,2.544,0,0,1,.924.943,2.575,2.575,0,0,1,.34,1.3Zm-4.626,0a2.134,2.134,0,0,0,.16.823,2.1,2.1,0,0,0,.452.687,2.079,2.079,0,0,0,.674.463,2.022,2.022,0,0,0,.809.165,2.045,2.045,0,0,0,.815-.165,2.086,2.086,0,0,0,.675-.463,2.117,2.117,0,0,0,.451-.686,2.143,2.143,0,0,0,.161-.824,2.169,2.169,0,0,0-.281-1.083,2.112,2.112,0,0,0-.766-.787,2.063,2.063,0,0,0-2.106,0,2.112,2.112,0,0,0-.764.786,2.173,2.173,0,0,0-.28,1.083Zm1.186-1.322h1.189a.706.706,0,0,1,.536.206.767.767,0,0,1,.2.555.707.707,0,0,1-.076.354.806.806,0,0,1-.275.257.43.43,0,0,1,.141.063c.1.084.163.331.175.738l.007.161a.391.391,0,0,0,.107.3v.07H722.9a1.034,1.034,0,0,1-.07-.43v-.125a1.145,1.145,0,0,0-.07-.423c-.055-.116-.181-.175-.379-.175h-.7v1.152h-.359v-2.7Zm.359,1.232h.768a.4.4,0,0,0,.306-.131.46.46,0,0,0,.123-.327.484.484,0,0,0-.114-.32.327.327,0,0,0-.259-.138h-.825V172Z" transform="translate(-13599.487 -16238.597)" fill="#03284b" fill-rule="evenodd"/>
    <path id="Path_451" data-name="Path 451" d="M593.332,187.124H582.947V173.287h10.385V175.9h-7.714v3.064h7.438v2.51h-7.438v3.007h7.714v2.647Zm1.074-13.838h10.659v1.281l-7.081,10.007h7.081v2.549H594.229v-1.556l6.923-9.751h-6.747v-2.531Zm15.887,2.453h-4.36v-2.453h11.405v2.453h-4.358v11.385h-2.687V175.74Zm10.854-1.069-.008.174-.024.164-.039.152-.053.142-.066.13-.078.119-.089.108-.1.1-.107.085-.115.074-.121.062-.126.051-.13.039-.134.028-.135.017-.136.006-.136-.006-.135-.017-.133-.028-.13-.039-.126-.051-.121-.062-.115-.074-.107-.085-.1-.1-.089-.108-.078-.119-.066-.13-.053-.142-.039-.152-.024-.164-.008-.174.008-.174.024-.163.039-.153.053-.142.066-.131.078-.119.089-.108.1-.1.107-.085.115-.074.121-.062.126-.051.13-.039.133-.028.135-.017.136-.005.136.005.135.017.134.028.13.039.126.051.121.062.115.074.107.085.1.1.089.108.078.119.066.131.053.142.039.153.024.163.008.174Zm-2.709,2.64h2.493v9.814h-2.493v-9.814Zm8.028-2.694v2.752h2.67v2.159h-2.69v4.218l0,.08.007.078.01.075.012.072.016.069.017.067.02.063.023.061.025.058.028.056.029.052.032.05.034.047.037.045.038.042.04.039.042.037.045.034.046.032.048.029.05.027.052.024.054.021.055.019.058.017.059.014.061.011.062.009.064.006.066,0h.1c.059,0,.117-.005.176-.011s.1-.012.145-.02c.074-.013.147-.029.22-.048.049-.013.1-.027.146-.042.072-.023.143-.049.214-.077s.114-.049.17-.075l.083-.041.7,2.14c-.078.031-.156.061-.234.09l-.187.066c-.1.033-.2.064-.3.092l-.181.046c-.1.022-.2.043-.3.06l-.184.028c-.105.013-.211.024-.316.032l-.2.012c-.11,0-.221.006-.331.008l-.193,0-.187-.011-.184-.019-.179-.026-.174-.034-.169-.041-.164-.049-.159-.057-.154-.064-.148-.071-.143-.079-.137-.087-.131-.094-.125-.1-.119-.109-.113-.117-.106-.124-.1-.131-.093-.139-.086-.146-.079-.153-.072-.16-.065-.168-.058-.175-.05-.182-.043-.189-.035-.2-.028-.2-.02-.211-.012-.217,0-.224v-4.135h-1.808v-2.159h1.808v-2.486l2.491-.266Zm6.832-1.31v13.818h-2.473V173.306Zm4.108,9.833.009.054.021.107.027.1.032.1.037.1.041.1.046.1.051.093.056.09.06.087.065.085.07.081.074.079.079.075.083.072.088.069.093.066.1.062.1.058.105.055.11.051.114.047.118.043.123.039.127.035.131.03.135.026.139.021.143.017.147.012.151.007.155,0,.166,0,.172-.012.176-.018.179-.026.18-.033.18-.041.178-.047.176-.054.172-.061.084-.032.082-.034.081-.036.079-.037.077-.039.075-.04.073-.042.07-.043.067-.045.065-.046.061-.047.058-.049.055-.05.087-.085,1.6,1.578-.132.133-.1.1-.106.092-.109.089-.113.086-.115.083-.118.079-.121.076-.123.073-.126.07-.128.066-.13.063-.132.06-.134.057-.136.054-.137.051-.138.047-.139.044-.141.041-.142.038-.142.035-.142.032-.143.029-.143.026-.144.022-.143.02-.143.016-.143.014-.142.01-.141.007-.141,0-.14,0-.311-.006-.3-.018-.294-.03-.287-.041-.278-.053-.269-.064-.261-.075-.252-.086-.243-.1-.234-.107-.225-.118-.216-.128-.207-.138-.2-.148-.188-.157-.178-.167-.168-.176-.158-.185-.148-.194-.138-.2-.127-.211-.117-.219-.106-.226-.1-.234-.085-.242-.073-.249-.063-.257-.052-.263-.04-.27-.029-.277-.018-.283-.006-.289.006-.276.018-.271.029-.265.04-.26.052-.254.063-.248.073-.242.084-.235.1-.228.105-.221.116-.215.126-.207.136-.2.146-.192.155-.183.165-.174.174-.166.183-.157.192-.148.2-.138.21-.129.218-.118.226-.109.234-.1.242-.087.25-.076.258-.065.265-.054.272-.042.279-.03.286-.018.293-.006.3.006.295.018.287.029.279.041.272.053.263.065.255.077.246.089.238.1.229.112.219.125.21.136.2.148.19.16.18.172.17.184.158.2.148.207.137.219.125.23.113.242.1.254.089.265.077.277.064.289.052.3.039.312.026.323.012.335v.346l-.014.358-.031.413Zm5.148-2.078-.008-.059-.021-.11-.026-.106-.03-.1-.035-.1-.039-.1-.043-.092-.047-.088-.052-.084-.055-.08-.06-.077-.063-.074-.067-.07-.071-.066-.074-.063-.078-.059-.082-.055-.085-.052-.088-.048-.092-.045-.1-.042-.1-.038-.1-.034-.1-.03-.108-.027-.11-.023-.113-.02-.116-.016-.119-.012-.122-.009-.124-.006h-.245l-.118.005-.116.009-.114.012-.113.016-.111.02-.109.023-.107.027-.1.03-.1.035-.1.038-.1.041-.1.045-.093.048-.091.052-.088.056-.085.06-.082.063-.079.067-.077.07-.073.074-.07.078-.067.081-.063.085-.061.089-.057.092-.053.1-.05.1-.046.1-.042.107-.038.111-.016.052Zm10.018-1.022-.1-.093-.064-.056-.065-.053-.066-.051-.066-.049-.067-.047-.067-.044-.068-.042-.068-.04-.069-.038-.07-.035-.07-.034-.071-.031-.072-.03-.145-.053-.148-.046-.151-.039-.154-.032-.157-.026-.16-.019-.163-.013-.166-.008-.17,0h-.1l-.1,0-.1.005-.1.007-.092.009-.089.011-.086.013-.082.014-.079.017-.076.018-.073.02-.069.022-.066.024-.062.025-.059.027-.056.029-.052.03-.049.032-.045.033-.042.035-.038.037-.035.038-.032.039-.028.041-.025.042-.022.043-.018.045-.015.047-.011.048-.009.05-.005.051v.109l0,.053.008.052.011.05.014.048.017.047.02.045.024.044.027.042.03.041.034.039.037.038.041.037.044.035.048.034.052.032.055.031.059.029.063.028.067.027.07.025.074.024.078.022.082.021.086.019.09.017.093.016.1.014.1.012.105.011c.132.012.263.02.4.03l.175.014.178.016.179.019.18.022.18.026.18.029.18.034.178.038.177.043.175.048.172.054.169.06.165.066.161.073.156.08.151.087.145.095.139.1.132.112.125.121.116.13.108.139.1.149.089.159.079.17.068.18.057.191.045.2.033.214.02.226.007.237,0,.162-.012.16-.021.159-.029.156-.037.154-.046.152-.054.149-.062.146-.071.142-.079.139-.087.136-.1.131-.1.127-.112.123-.12.118-.128.113-.136.108-.144.1-.153.1-.161.091-.169.085-.177.079-.185.072-.193.066-.2.059-.209.052-.218.044-.225.037-.233.029-.241.021-.249.013-.257,0-.288,0-.144,0-.144-.006-.144-.008-.144-.011-.144-.013-.144-.016-.144-.019-.143-.022-.144-.026-.143-.029-.143-.033-.143-.036-.143-.041-.142-.045-.142-.049-.142-.054-.141-.058-.141-.063-.14-.068-.14-.074-.14-.079-.139-.085-.138-.09-.138-.1-.137-.1-.136-.108-.136-.115-.135-.122-.134-.129-.162-.163,1.234-1.791.107.114.07.068.075.068.08.066.084.065.088.063.092.062.095.06.1.059.1.057.1.055.106.054.108.052.111.05.112.048.114.046.115.044.115.041.116.039.117.036.117.034.116.032.116.029.116.026.115.024.114.021.112.018.111.015.108.012.107.009.1.006.1,0h.083l.082,0,.082,0,.081-.008.08-.01.079-.013.078-.015.076-.018.075-.02.073-.023.071-.025.07-.027.067-.03.065-.032.062-.034.06-.036.058-.038.054-.04.052-.042.049-.043.045-.045.042-.047.038-.048.035-.05.031-.052.028-.053.023-.055.019-.056.016-.058.011-.059.007-.06,0-.062,0-.058,0-.056-.008-.054-.01-.052-.014-.049-.017-.047-.021-.045-.024-.043-.027-.041-.03-.04-.034-.037-.038-.036-.042-.034-.045-.033-.05-.031-.053-.03-.058-.028-.062-.027-.066-.025-.071-.024-.075-.023-.08-.021-.084-.019-.088-.018-.093-.016-.1-.015-.209-.027-.228-.022-.248-.017-.173-.014-.175-.017-.176-.021-.176-.025-.177-.029-.177-.033-.176-.037-.175-.041-.173-.046-.171-.051-.169-.056-.166-.061-.163-.067-.158-.072-.155-.078-.149-.084-.144-.09-.139-.1-.132-.1-.125-.11-.119-.117-.11-.125-.1-.132-.093-.139-.085-.147-.074-.155-.065-.163-.053-.171-.043-.18-.031-.188-.019-.2-.007-.205.007-.209.02-.2.033-.192.045-.184.057-.176.068-.168.078-.16.089-.153.1-.144.107-.137.116-.129.124-.122.131-.115.137-.108.144-.1.15-.094.154-.087.159-.081.163-.074.167-.068.17-.061.172-.056.174-.049.176-.044.176-.038.177-.033.177-.027.177-.022.175-.017.174-.012.172-.007.168,0,.28,0,.137,0,.135.006.133.008.132.011.13.012.128.015.126.017.125.019.123.022.122.025.121.027.119.03.118.032.117.036.116.038.115.042.114.044.112.048.112.051.111.054.11.057.109.061.109.064.108.068.108.071.107.076.106.079.106.083.106.087.142.122-1.4,1.646Z" transform="translate(-13530.947 -16240.459)" fill="#03284b" fill-rule="evenodd"/>
  </g>
</svg>
