<svg xmlns="http://www.w3.org/2000/svg" width="98.087" height="40.971" viewBox="0 0 98.087 40.971">
  <g id="Group_272" data-name="Group 272" transform="translate(16294 19777)">
    <g id="Disney" transform="translate(-16294 -19777)">
      <path id="Path_655" data-name="Path 655" d="M15.5,18.71c-3.631.256-8.336.972-8.285,2.25.051,1.33,3.477,3.938,8.029,5.574C15.444,23.824,15.5,20.909,15.5,18.71ZM2.148,4.9C.921,4.953,0,4.442,0,3.675A4.654,4.654,0,0,1,1.892,1.169,21.568,21.568,0,0,1,8.745-.007a39.775,39.775,0,0,1,6.086.46C27.155,2.294,40.093,11.652,40.3,19.988c.153,5.676-4.7,11-14.268,11.251a25.573,25.573,0,0,1-7.006-.818c-.051,1.381.051,2.148-1.892,2.2-1.227.051-1.688-1.943-1.841-3.529-5.779-2.557-9.256-6.7-9.307-8.336-.051-2.455,4.347-4.5,9.563-5.267.051-2.046.409-7.16,1.483-7.211.409,0,1.33.972,1.636,2.506a26.862,26.862,0,0,1,.358,4.347h.409c7.313-.2,11.66,2.046,11.762,4.756a3.093,3.093,0,0,1-2.762,3.171c-.972.051-2.1-.511-2.1-.818,0-.563,2.1-.716,2.046-1.636-.051-1.381-5.83-2.046-9.41-2.046v3.631c.051.921.1,3.375.1,5.421a19.973,19.973,0,0,0,4.909.46c3.835-.1,12.631-1.534,12.478-8.131C36.156,10.783,17.9,2.294,8.131,2.6c-3.835.1-6.188.511-6.137.921,0,.256,1.892.358,1.892.869C3.887,4.851,2.813,4.9,2.148,4.9Z" transform="translate(0 0.015)" fill="#9aa9b7"/>
      <path id="Path_656" data-name="Path 656" d="M82.962,29.4c.614,0,1.534,1.483,1.534,2.455s.256,5.881.307,7.313a33.48,33.48,0,0,1-.051,3.426c-.1.614-.307.921-1.381.972a1.628,1.628,0,0,1-1.688-1.636c-.1-.972-.153-3.631-.1-5.012.051-1.33.1-3.938.307-5.574C82.041,29.758,82.45,29.4,82.962,29.4Z" transform="translate(-39.851 -14.357)" fill="#9aa9b7" fill-rule="evenodd"/>
      <path id="Path_657" data-name="Path 657" d="M86,6.476c-.2-.46-.767-1.33-2.915-1.278-4.7.153-8.285,3.631-8.182,6.341a3.6,3.6,0,0,0,1.074,2.3,1.811,1.811,0,0,0-.153.921c0,.46.716,1.739,1.278,1.688.46,0,.767-.46,1.227-1.176a4.968,4.968,0,0,0,2.148.409c4.4-.153,8.387-4.245,8.336-6.9A2.511,2.511,0,0,0,86,6.476Zm-6.648,6.546c.563-.767,3.375-4.551,6.239-4.6A.944.944,0,0,1,86.66,9.494c.051.921-1.636,3.529-5.319,3.682A10.9,10.9,0,0,1,79.347,13.022Zm-2.3-1.227a1.243,1.243,0,0,1-.153-.563,3.956,3.956,0,0,1,3.631-3.12A10.491,10.491,0,0,0,78.529,9.9,17.956,17.956,0,0,0,77.046,11.795Z" transform="translate(-36.594 -2.531)" fill="#9aa9b7" fill-rule="evenodd"/>
      <path id="Path_658" data-name="Path 658" d="M98.657,28.895c2.557-.051,5.83.256,5.83,1.074a1.654,1.654,0,0,1-1.636,1.636c-1.636.153-9.819.511-9.768,1.534,0,.511,2.455.665,4.7.767,2.3.153,6.034.2,6.137,3.989.1,2.966-1.023,3.58-1.534,3.835a14.053,14.053,0,0,1-4.449,1.176c-4.961.153-7.006-2.71-7.057-4.142-.051-1.278,1.278-2.455,3.529-2.506s5.676.716,5.728,1.636c0,.767-1.483,1.125-2.148,1.125-3.017.1-2.915-1.125-4.654-1.074-1.023.051-2.4,2.148,2.608,1.994,4.449-.153,5.83-1.585,5.779-2.4C101.674,36.515,98.5,36,96.663,35.9s-4.6-.1-5.574-.665c-.972-.614-.818-1.943-.511-3.068C91.293,29.764,96.1,28.946,98.657,28.895Z" transform="translate(-44.142 -14.108)" fill="#9aa9b7" fill-rule="evenodd"/>
      <path id="Path_659" data-name="Path 659" d="M121.064,27.917c1.739-.051,5.37,7.824,5.983,7.824s.153-1.841-.256-3.887c-.869-4.551-2.25-6.9-.972-6.955.972-.051,4.091,3.017,4.245,8.847.1,2.71-.307,6.29-2.762,6.341-2.352.051-5.012-7.313-5.574-7.262-.307,0-.358,4.551-.46,5.932s-.563,2.1-1.33,2.148c-1.176.051-1.688-1.074-1.739-3.273C118.2,35.434,118.916,27.968,121.064,27.917Z" transform="translate(-57.753 -12.158)" fill="#9aa9b7" fill-rule="evenodd"/>
      <path id="Path_660" data-name="Path 660" d="M151.021,33.916c.818,0,1.534-.153,1.483.921s-.1,1.483-.972,1.534l-4.4.153c-.153.511-.511,1.739-.716,2.3-.2.665.46.511,1.33.256a27.6,27.6,0,0,1,4.193-.716c.972-.051,1.688,1.483,1.125,2.046-.563.511-3.529,3.068-6.648,3.12a3.289,3.289,0,0,1-3.222-3.222,10.909,10.909,0,0,1,.818-3.733c-.1-.051-.2-.2-.256-.563-.153-.767-.46-1.585.767-1.739a1,1,0,0,0,.358-.051l1.023-2.148a3.305,3.305,0,0,1-1.074-.307,2.713,2.713,0,0,1-1.381-1.739c-.051-.921,6.7-1.483,8.233-1.534,1.688-.051,2.148.256,2.659,1.023a4.95,4.95,0,0,1,.767,1.534c0,.2-.2.716-2.2.767-1.023.051-2.71.2-4.3.256l-.716,1.841C149.538,33.967,151.021,33.916,151.021,33.916Z" transform="translate(-69.964 -13.912)" fill="#9aa9b7"/>
      <path id="Path_661" data-name="Path 661" d="M164.609,39.971c-1.79,3.58-3.017,7.313-2.915,10.177.1,3.222,2.046,4.4,2.659,4.4s.614-.972.716-1.688a46.926,46.926,0,0,1,2.864-10.535,6.348,6.348,0,0,0,1.381.153c3.682-.1,7.875-4.5,7.773-9.154-.051-2.455-1.023-4.193-2.608-4.142-2.3.051-5.625,3.529-8.285,7.927-.256-1.79,1.176-4.5,2.352-6.392.818-1.33.716-2.915.358-2.915-.511,0-5.216,3.989-5.063,9.512A5.068,5.068,0,0,0,164.609,39.971Zm4.858-1.125c2.2-4.3,4.5-6.75,5.267-6.8C176.116,31.993,174.939,38.284,169.468,38.846Z" transform="translate(-79.002 -13.575)" fill="#9aa9b7" fill-rule="evenodd"/>
    </g>
  </g>
</svg>
