<svg id="EA" xmlns="http://www.w3.org/2000/svg" width="82.197" height="40" viewBox="0 0 82.197 40">
  <path id="Path_662" data-name="Path 662" d="M66.916,3.9l-.05-2.247h0L67.316,3.9h.5l.449-2.247h0L68.215,3.9h.649V1.049h-.949l-.35,1.7h0l-.35-1.7h-.949V3.9Zm-2.6-2.247h.5v2.3h.649v-2.3h.549v-.6H64.27v.6ZM50.287.3H17.678L12.684,8.29l32.609-.1L50.287.3M56.929,0,36.7,31.96H14.532l5.094-7.89H33.408L38.4,16.08H7.64L2.647,24.07H9.988L0,39.95H41.3l15.63-24.919,5.743,9.089H57.778l-4.994,7.89H67.715L72.709,40H82.2L56.929,0" fill="#9aa9b7"/>
</svg>
