<svg xmlns="http://www.w3.org/2000/svg" width="137.787" height="39.241" viewBox="0 0 137.787 39.241">
  <g id="Group_307" data-name="Group 307" transform="translate(-98.689 -72.537)">
    <g id="Group_304" data-name="Group 304" transform="translate(102.252 90.306)">
      <path id="Path_696" data-name="Path 696" d="M104,81.049v7.938h4.413a3.606,3.606,0,0,0,2.295-.518,3.333,3.333,0,0,0,.859-2.4h.548v6.988h-.548a7.619,7.619,0,0,0-.414-1.88,1.848,1.848,0,0,0-.874-.814,4.463,4.463,0,0,0-1.865-.3H104v6.619a6.046,6.046,0,0,0,.119,1.62.934.934,0,0,0,.414.46,2.512,2.512,0,0,0,1.125.169h3.407a9.289,9.289,0,0,0,2.472-.235,3.692,3.692,0,0,0,1.481-.935A11.4,11.4,0,0,0,114.9,95h.594l-1.734,5.034H98.286v-.548H99a2.817,2.817,0,0,0,1.35-.341,1.229,1.229,0,0,0,.642-.71,6.938,6.938,0,0,0,.172-1.938V83.448a4.326,4.326,0,0,0-.384-2.353A2.3,2.3,0,0,0,99,80.5h-.71v-.546H113.76l.222,4.4h-.576a6.934,6.934,0,0,0-.69-2.178,2.372,2.372,0,0,0-1.117-.9,6.684,6.684,0,0,0-2.088-.222Z" transform="translate(-98.286 -78.977)" fill="#4dc4ef"/>
      <path id="Path_697" data-name="Path 697" d="M122.581,79.955,109.389,98.818h8.234a4.487,4.487,0,0,0,2.909-.829,7.1,7.1,0,0,0,1.8-3.361l.488.088-.948,5.317H105.522v-.548l12.884-18.333h-6.427a5.66,5.66,0,0,0-2.318.349,2.474,2.474,0,0,0-1.094,1.006,8.4,8.4,0,0,0-.69,2.467h-.564l.417-5.019Z" transform="translate(-87.235 -78.977)" fill="#4dc4ef"/>
      <path id="Path_698" data-name="Path 698" d="M129.695,79.955l.22,4.708h-.561a5.689,5.689,0,0,0-.445-1.777,2.96,2.96,0,0,0-1.221-1.266,4.25,4.25,0,0,0-2.007-.407h-2.828v15.34a4.1,4.1,0,0,0,.4,2.31,2.221,2.221,0,0,0,1.731.622h.7v.548h-8.514v-.548h.71a2.037,2.037,0,0,0,1.807-.771,4.487,4.487,0,0,0,.326-2.161V81.214h-2.416a6.713,6.713,0,0,0-2,.207,2.729,2.729,0,0,0-1.317,1.079,4.357,4.357,0,0,0-.652,2.163h-.564l.238-4.708Z" transform="translate(-75.718 -78.977)" fill="#4dc4ef"/>
      <path id="Path_699" data-name="Path 699" d="M124.7,86.662v10.9a4.983,4.983,0,0,0,.185,1.7,1.306,1.306,0,0,0,.548.629,2.918,2.918,0,0,0,1.324.207v.533h-6.589v-.533A3.055,3.055,0,0,0,121.5,99.9a1.328,1.328,0,0,0,.541-.637,4.774,4.774,0,0,0,.2-1.7V92.333a18.634,18.634,0,0,0-.131-2.858,1.185,1.185,0,0,0-.326-.66.923.923,0,0,0-.609-.184,2.938,2.938,0,0,0-1.006.222l-.207-.533,4.087-1.658Zm-1.228-7.094a1.488,1.488,0,0,1,1.494,1.5,1.471,1.471,0,0,1-.435,1.066,1.433,1.433,0,0,1-1.059.442,1.5,1.5,0,1,1,0-3Z" transform="translate(-65.181 -79.568)" fill="#4dc4ef"/>
      <path id="Path_700" data-name="Path 700" d="M127.677,80.769v4.458h3.169v1.036h-3.169v8.795a2.964,2.964,0,0,0,.377,1.777,1.2,1.2,0,0,0,.97.46,1.7,1.7,0,0,0,.948-.3,1.939,1.939,0,0,0,.71-.9h.579a4.663,4.663,0,0,1-1.466,2.186,3.17,3.17,0,0,1-1.956.733,2.623,2.623,0,0,1-1.332-.379,2.276,2.276,0,0,1-.963-1.079,5.688,5.688,0,0,1-.311-2.171V86.263h-2.148v-.488a5.65,5.65,0,0,0,1.668-1.1,8.785,8.785,0,0,0,1.516-1.845,16.272,16.272,0,0,0,.948-2.057Z" transform="translate(-60.412 -77.734)" fill="#4dc4ef"/>
      <path id="Path_701" data-name="Path 701" d="M131.392,79.568V97.559a4.91,4.91,0,0,0,.185,1.688,1.319,1.319,0,0,0,.571.629,3.256,3.256,0,0,0,1.436.215v.533h-6.649v-.533a2.87,2.87,0,0,0,1.274-.192,1.29,1.29,0,0,0,.533-.637,4.948,4.948,0,0,0,.192-1.7V85.239a21.03,21.03,0,0,0-.1-2.82,1.212,1.212,0,0,0-.334-.718.871.871,0,0,0-.584-.195,2.791,2.791,0,0,0-.978.238l-.25-.518,4.041-1.658Z" transform="translate(-54.915 -79.568)" fill="#4dc4ef"/>
      <path id="Path_702" data-name="Path 702" d="M132.232,87.891A6.973,6.973,0,0,0,133.7,92.63a4.467,4.467,0,0,0,3.477,1.719,3.773,3.773,0,0,0,2.318-.733,5.428,5.428,0,0,0,1.653-2.51l.457.3a7.073,7.073,0,0,1-1.8,3.695,4.831,4.831,0,0,1-3.748,1.665,5.471,5.471,0,0,1-4.183-1.9,7.29,7.29,0,0,1-1.741-5.115,7.749,7.749,0,0,1,1.784-5.429,5.819,5.819,0,0,1,4.481-1.946,5.008,5.008,0,0,1,3.745,1.5,5.511,5.511,0,0,1,1.466,4.021Zm0-.859h6.28A5.869,5.869,0,0,0,138.2,85.2a2.937,2.937,0,0,0-1.1-1.3,2.774,2.774,0,0,0-1.532-.473,3.055,3.055,0,0,0-2.2.955A4.141,4.141,0,0,0,132.232,87.032Z" transform="translate(-49.654 -75.29)" fill="#4dc4ef"/>
      <path id="Path_703" data-name="Path 703" d="M143.842,82.375v4.62h-.488a6.016,6.016,0,0,0-1.443-2.962,3.254,3.254,0,0,0-2.244-.786,2.467,2.467,0,0,0-1.673.548,1.592,1.592,0,0,0-.637,1.213,2.205,2.205,0,0,0,.473,1.423A5.272,5.272,0,0,0,139.7,87.72l2.161,1.051q3.006,1.463,3.007,3.864a3.656,3.656,0,0,1-1.4,2.985,4.847,4.847,0,0,1-3.131,1.132,10.768,10.768,0,0,1-2.843-.445,2.9,2.9,0,0,0-.8-.147.587.587,0,0,0-.533.384h-.488V91.7h.488a5.524,5.524,0,0,0,1.585,3.124,3.816,3.816,0,0,0,2.621,1.051,2.342,2.342,0,0,0,1.665-.6,1.9,1.9,0,0,0,.644-1.443,2.293,2.293,0,0,0-.718-1.719,12.434,12.434,0,0,0-2.866-1.762,8.514,8.514,0,0,1-2.813-1.926,3.335,3.335,0,0,1-.667-2.133,3.768,3.768,0,0,1,1.147-2.8,4.063,4.063,0,0,1,2.97-1.125,6.961,6.961,0,0,1,1.941.339,4.526,4.526,0,0,0,1.006.222.6.6,0,0,0,.371-.1,1.433,1.433,0,0,0,.311-.457Z" transform="translate(-41.286 -75.281)" fill="#4dc4ef"/>
    </g>
    <g id="Group_305" data-name="Group 305" transform="translate(98.689 72.537)">
      <path id="Path_704" data-name="Path 704" d="M102.714,73.9a3.958,3.958,0,0,0,.533-1.125c.04-.159.1-.238.177-.238a1.64,1.64,0,0,1,.92.829.309.309,0,0,1-.149.414,10.084,10.084,0,0,0-.829.771q-.591.652-2.014,2.072.713.474.594.89a4.143,4.143,0,0,0-.149.917q-.03.5-.03,1.719t.061,2.161a12.9,12.9,0,0,1-.061,1.481.873.873,0,0,1-.265.622c-.139.1-.278-.01-.414-.326a2.209,2.209,0,0,1-.207-.887,2.154,2.154,0,0,1,.058-.533,10.54,10.54,0,0,0,.119-1.865q0-1.274-.03-2.163a6.771,6.771,0,0,0-.207-1.539,12.055,12.055,0,0,1-1.125.887,14.759,14.759,0,0,1-1.539.92,11.471,11.471,0,0,1-1.66.74c-.473.157-.74.217-.8.177s.3-.268,1.066-.682a19.779,19.779,0,0,0,2.487-1.628,14.633,14.633,0,0,0,2.191-1.984A13.885,13.885,0,0,0,102.714,73.9Z" transform="translate(-95.689 -72.537)" fill="#4dc4ef"/>
      <path id="Path_705" data-name="Path 705" d="M113.388,74.208a1.681,1.681,0,0,1,.682.594,1.592,1.592,0,0,1,.326.561q0,.178-.356.061a21.609,21.609,0,0,0-2.962-.119q-2.309,0-4.559.207a26.268,26.268,0,0,0-2.724.326,7.346,7.346,0,0,1-.859.147,1.369,1.369,0,0,1-.859-.384,3.5,3.5,0,0,1-.652-.591.637.637,0,0,1-.119-.238c0-.159.258-.217.771-.179q.948.121,3.05.179a32.928,32.928,0,0,0,4.5-.207,24.347,24.347,0,0,0,2.755-.387,1.934,1.934,0,0,1,.473-.116A1.545,1.545,0,0,1,113.388,74.208Z" transform="translate(-87.113 -70.209)" fill="#4dc4ef"/>
      <path id="Path_706" data-name="Path 706" d="M107.9,76.861c.02-.061.364.038,1.036.3a6.353,6.353,0,0,1,1.481.74,1.213,1.213,0,0,1,.533.71.744.744,0,0,1-.088.564c-.1.139-.19.207-.268.207a.35.35,0,0,1-.3-.177c-.2-.238-.374-.445-.533-.624s-.364-.384-.622-.622-.523-.473-.8-.71C108.033,77.048,107.884,76.919,107.9,76.861ZM113.828,80q.917-.739,1.746-1.511t1.719-1.777q.887-.948.948-.829c.038.078-.2.513-.713,1.3a12.981,12.981,0,0,1-2.31,2.545,18.891,18.891,0,0,1-3.078,2.252,15.145,15.145,0,0,0-1.779,1.185,2.416,2.416,0,0,1-.5.326q-.2.087-.652-.326c-.3-.278-.442-.485-.442-.622s.136-.227.414-.268a4.633,4.633,0,0,0,1.036-.147,6.414,6.414,0,0,0,1.658-.771A17.384,17.384,0,0,0,113.828,80Zm-4.918-6.012q-.03-.118,1.066.268a7.07,7.07,0,0,1,1.569.71,1.108,1.108,0,0,1,.533.68.742.742,0,0,1-.058.533c-.081.119-.159.179-.238.179a.484.484,0,0,1-.356-.238c-.275-.278-.561-.543-.857-.8a12.976,12.976,0,0,0-1.039-.8C109.137,74.245,108.93,74.065,108.91,73.987Zm5.568.088c-.334-.374-.473-.571-.414-.591a2.517,2.517,0,0,1,.8.326,3.366,3.366,0,0,1,.948.622.72.72,0,0,1,.207.561.687.687,0,0,1-.238.475c-.139.119-.306,0-.5-.356A7.818,7.818,0,0,0,114.477,74.076Zm.682-1.509c.04-.04.306.048.8.265a4.156,4.156,0,0,1,1.008.564.7.7,0,0,1,.265.533,1.082,1.082,0,0,1-.088.354c-.058.159-.129.238-.207.238-.04,0-.1-.04-.177-.119-.159-.2-.336-.414-.533-.652s-.435-.493-.71-.768C115.238,72.744,115.119,72.6,115.16,72.567Z" transform="translate(-77.037 -72.506)" fill="#4dc4ef"/>
      <path id="Path_707" data-name="Path 707" d="M125.388,74.208a1.681,1.681,0,0,1,.682.594,1.591,1.591,0,0,1,.326.561q0,.178-.356.061a21.609,21.609,0,0,0-2.962-.119q-2.309,0-4.559.207a26.268,26.268,0,0,0-2.724.326,7.347,7.347,0,0,1-.859.147,1.369,1.369,0,0,1-.859-.384,3.5,3.5,0,0,1-.652-.591.637.637,0,0,1-.119-.238c0-.159.258-.217.771-.179q.948.121,3.05.179a32.928,32.928,0,0,0,4.5-.207,24.347,24.347,0,0,0,2.755-.387,1.934,1.934,0,0,1,.473-.116A1.545,1.545,0,0,1,125.388,74.208Z" transform="translate(-68.786 -70.209)" fill="#4dc4ef"/>
      <path id="Path_708" data-name="Path 708" d="M126.877,78.636a12.953,12.953,0,0,1,1.362,1.185,2.733,2.733,0,0,1,.771,1.127.844.844,0,0,1-.03.68c-.1.139-.187.207-.265.207q-.178,0-.417-.356a12.9,12.9,0,0,0-.768-1.036,12.213,12.213,0,0,0-1.127-1.155,13.888,13.888,0,0,1-2.249,2.31,12.289,12.289,0,0,1-2.072,1.393,12.888,12.888,0,0,1-1.6.682c-.475.157-.72.207-.741.147s.265-.245.859-.561a20.8,20.8,0,0,0,2.4-1.6,13.657,13.657,0,0,0,2.813-2.9q-.474-.474-.948-.887l-.948-.829c-.356-.238-.513-.377-.473-.414s.245.028.622.207a10.182,10.182,0,0,1,1.036.561q.474.3,1.125.713.652-1.008,1.125-1.9a9.174,9.174,0,0,0,.713-1.511c0-.1-.061-.149-.179-.149a2.273,2.273,0,0,0-.622.119c-.255.078-.6.2-1.036.356a1.055,1.055,0,0,1-.473.119,1.272,1.272,0,0,1-.829-.356q-1.008,1.187-1.63,1.807a8.854,8.854,0,0,1-1.274,1.067,7.6,7.6,0,0,1-1.185.68,1.584,1.584,0,0,1-.68.207c-.1-.018.187-.286.859-.8a12.089,12.089,0,0,0,1.807-1.688,10.778,10.778,0,0,0,1.213-1.6,6.659,6.659,0,0,0,.473-.948c.081-.217.159-.445.238-.68.04-.119.1-.179.179-.179a.7.7,0,0,1,.414.207,2.081,2.081,0,0,1,.384.445.973.973,0,0,1,.149.3.341.341,0,0,1-.119.238,4.117,4.117,0,0,0-.594.591,4.8,4.8,0,0,0,1.688-.235,4.133,4.133,0,0,0,1.392-.594.546.546,0,0,1,.71.061,2.757,2.757,0,0,1,.533.561c.119.179.071.356-.147.533a7.243,7.243,0,0,0-1.1,1.688A18.179,18.179,0,0,1,126.877,78.636Z" transform="translate(-58.96 -72.358)" fill="#4dc4ef"/>
      <path id="Path_709" data-name="Path 709" d="M132.714,73.9a3.957,3.957,0,0,0,.533-1.125c.04-.159.1-.238.177-.238a1.64,1.64,0,0,1,.92.829.309.309,0,0,1-.149.414,10.082,10.082,0,0,0-.829.771q-.591.652-2.014,2.072.713.474.594.89a4.145,4.145,0,0,0-.149.917q-.03.5-.03,1.719t.061,2.161a12.9,12.9,0,0,1-.061,1.481.873.873,0,0,1-.265.622c-.139.1-.278-.01-.414-.326a2.209,2.209,0,0,1-.207-.887,2.154,2.154,0,0,1,.058-.533,10.54,10.54,0,0,0,.119-1.865q0-1.274-.03-2.163a6.769,6.769,0,0,0-.207-1.539,12.053,12.053,0,0,1-1.125.887,14.759,14.759,0,0,1-1.539.92,11.471,11.471,0,0,1-1.66.74c-.473.157-.741.217-.8.177s.3-.268,1.066-.682a19.778,19.778,0,0,0,2.487-1.628,14.631,14.631,0,0,0,2.191-1.984A13.883,13.883,0,0,0,132.714,73.9Z" transform="translate(-49.872 -72.537)" fill="#4dc4ef"/>
      <path id="Path_710" data-name="Path 710" d="M133.528,74.268a4.036,4.036,0,0,0-.149-1.036.7.7,0,0,1-.058-.3.188.188,0,0,1,.119-.177c.078-.04.245,0,.5.119a1.467,1.467,0,0,1,.5.326.457.457,0,0,1,.119.207.914.914,0,0,1-.119.354,9.387,9.387,0,0,0-.177,2.547q1.952.83,2.843,1.274a3.394,3.394,0,0,1,1.155.8,1,1,0,0,1,.238.68.589.589,0,0,1-.149.414.347.347,0,0,1-.177.088c-.159,0-.356-.157-.594-.473a13.567,13.567,0,0,0-1.39-1.185q-.86-.652-1.926-1.3,0,4.917.058,5.391v1.1c0,.374-.048.6-.147.68s-.217.051-.356-.088a1.625,1.625,0,0,1-.356-.652,2.652,2.652,0,0,1-.028-1.213,18.873,18.873,0,0,0,.119-2.606Q133.559,74.95,133.528,74.268Z" transform="translate(-38.217 -72.224)" fill="#4dc4ef"/>
      <path id="Path_711" data-name="Path 711" d="M139.576,75.7a1.91,1.91,0,0,0-.177-.74c-.119-.235-.04-.334.238-.3a3.836,3.836,0,0,1,.74.177c.217.081.326.159.326.238a.935.935,0,0,1-.119.356,7.967,7.967,0,0,0-.119,1.954,5.542,5.542,0,0,1-2.1,4.473c-.493.374-.771.543-.829.5s.167-.356.68-.948a5.557,5.557,0,0,0,1.066-1.926,6.759,6.759,0,0,0,.326-2.28Q139.576,76.025,139.576,75.7Zm2.962-2.4a.612.612,0,0,1,.414.03,2.026,2.026,0,0,1,.622.326.546.546,0,0,1,.207.652,4.3,4.3,0,0,0-.147.917q-.03.5-.03,1.746v2.282q0,1.035.03,1.213c.02.119.248.051.68-.207a14.887,14.887,0,0,0,1.393-.948,15.051,15.051,0,0,0,1.569-1.393,12.909,12.909,0,0,0,1.3-1.481c.316-.435.5-.642.564-.622s-.04.3-.3.829a8.034,8.034,0,0,1-1.243,1.777,12.735,12.735,0,0,1-1.688,1.63q-.887.652-1.332,1.006l-.74.594a.511.511,0,0,1-.356.177.584.584,0,0,1-.3-.119,1.556,1.556,0,0,1-.384-.414.5.5,0,0,1-.088-.533,2.968,2.968,0,0,0,.116-1.066V77.181c0-1.125-.018-1.906-.058-2.34a3.612,3.612,0,0,0-.207-1.006,2.147,2.147,0,0,1-.149-.414C142.419,73.38,142.459,73.342,142.538,73.3Z" transform="translate(-31.797 -71.406)" fill="#4dc4ef"/>
    </g>
    <g id="Group_306" data-name="Group 306" transform="translate(223.785 90.87)">
      <path id="Path_712" data-name="Path 712" d="M158.668,79.791v.546a9.8,9.8,0,0,0-3.192.778,8.983,8.983,0,0,0-2.444,1.784,11.282,11.282,0,0,0-2,2.674,15.851,15.851,0,0,0-1.324,3.5,7.518,7.518,0,0,1,4.279-1.466,4.673,4.673,0,0,1,3.568,1.66,6.08,6.08,0,0,1,1.511,4.263,7.551,7.551,0,0,1-1.526,4.589,5.73,5.73,0,0,1-4.855,2.52,4.888,4.888,0,0,1-3.5-1.365,9.011,9.011,0,0,1-2.815-6.869,12.478,12.478,0,0,1,1.082-5.125,13.268,13.268,0,0,1,3.088-4.309,11.391,11.391,0,0,1,3.841-2.532,10.27,10.27,0,0,1,3.422-.649Zm-9.212,10.364a25.677,25.677,0,0,0-.265,3.227,10.282,10.282,0,0,0,.526,3.088,6.037,6.037,0,0,0,1.562,2.643,2.6,2.6,0,0,0,1.837.695,2.965,2.965,0,0,0,2.3-1.213,5.27,5.27,0,0,0,1.013-3.465,9.069,9.069,0,0,0-1.006-4.385,3.13,3.13,0,0,0-2.858-1.85,3.48,3.48,0,0,0-1.208.238A11.632,11.632,0,0,0,149.456,90.155Z" transform="translate(-146.375 -79.791)" fill="#4dc4ef"/>
    </g>
  </g>
</svg>
