<svg xmlns="http://www.w3.org/2000/svg" width="36.816" height="104.601" viewBox="0 0 36.816 104.601">
  <g id="Group_313" data-name="Group 313" transform="translate(-698.596 -99.83)">
    <g id="Group_310" data-name="Group 310" transform="translate(698.596 104.705)">
      <path id="Path_713" data-name="Path 713" d="M712.863,106.673h-5.9v3.278a2.671,2.671,0,0,0,.385,1.7,2.484,2.484,0,0,0,1.782.638v.406h-5.192V112.3a5.805,5.805,0,0,0,1.4-.308,1.391,1.391,0,0,0,.6-.65,3.315,3.315,0,0,0,.22-1.386v-3.278h-4.918a4.652,4.652,0,0,0-1.207.086.7.7,0,0,0-.34.308,1.879,1.879,0,0,0-.126.837v2.529a6.888,6.888,0,0,0,.177,1.838,2.768,2.768,0,0,0,.693,1.1,8.484,8.484,0,0,0,2.058,1.4v.439l-3.74-1.286v-11.5h.407v.528a2.084,2.084,0,0,0,.252,1,.932.932,0,0,0,.529.479,5.147,5.147,0,0,0,1.44.128h9.693a3.2,3.2,0,0,0,1.75-.287,1.7,1.7,0,0,0,.439-1.32v-.528h.407v11.5l-3.267.165v-.43a5.177,5.177,0,0,0,1.617-.511,1.762,1.762,0,0,0,.672-.832,5.024,5.024,0,0,0,.163-1.551Z" transform="translate(-698.452 -102.426)" fill="#4dc4ef"/>
      <path id="Path_714" data-name="Path 714" d="M713.678,122.336l-14.017-9.8v6.117a3.349,3.349,0,0,0,.616,2.163,5.314,5.314,0,0,0,2.5,1.337l-.066.362-3.949-.7V109.662h.407l13.619,9.572V114.46a4.2,4.2,0,0,0-.259-1.722,1.835,1.835,0,0,0-.749-.815,6.277,6.277,0,0,0-1.829-.511v-.419l3.729.308Z" transform="translate(-698.452 -96.075)" fill="#4dc4ef"/>
      <path id="Path_715" data-name="Path 715" d="M713.678,129.558l-3.5.165V129.3a4.252,4.252,0,0,0,1.32-.329,2.219,2.219,0,0,0,.939-.909,3.175,3.175,0,0,0,.3-1.491v-2.1h-11.4a3.057,3.057,0,0,0-1.716.3,1.655,1.655,0,0,0-.462,1.288v.516h-.407V120.25h.407v.528a1.515,1.515,0,0,0,.571,1.343,3.337,3.337,0,0,0,1.607.242h11.4V120.57a4.985,4.985,0,0,0-.154-1.485,2.032,2.032,0,0,0-.8-.978,3.236,3.236,0,0,0-1.605-.484V117.2l3.5.176Z" transform="translate(-698.452 -89.456)" fill="#4dc4ef"/>
      <path id="Path_716" data-name="Path 716" d="M709.134,127.623h-8.1a3.717,3.717,0,0,0-1.262.137.95.95,0,0,0-.466.407,2.164,2.164,0,0,0-.154.984h-.4v-4.9h.4a2.273,2.273,0,0,0,.143.99.987.987,0,0,0,.473.4,3.547,3.547,0,0,0,1.266.148h3.883a13.747,13.747,0,0,0,2.124-.1.85.85,0,0,0,.488-.242.687.687,0,0,0,.139-.451,2.182,2.182,0,0,0-.165-.747l.4-.154,1.232,3.036Zm5.271-.914a1.112,1.112,0,0,1-1.112,1.112,1.091,1.091,0,0,1-.792-.325,1.064,1.064,0,0,1-.331-.787,1.125,1.125,0,0,1,1.123-1.121,1.067,1.067,0,0,1,.785.323A1.091,1.091,0,0,1,714.4,126.708Z" transform="translate(-698.452 -83.401)" fill="#4dc4ef"/>
      <path id="Path_717" data-name="Path 717" d="M712.227,130.635h-3.312v2.355h-.77v-2.355h-6.536a2.205,2.205,0,0,0-1.32.28.893.893,0,0,0-.34.721,1.258,1.258,0,0,0,.224.7,1.451,1.451,0,0,0,.667.528v.43a3.455,3.455,0,0,1-1.624-1.089,2.352,2.352,0,0,1-.543-1.453,1.963,1.963,0,0,1,.278-.99,1.7,1.7,0,0,1,.8-.715,4.232,4.232,0,0,1,1.613-.231h6.778v-1.594h.362a4.205,4.205,0,0,0,.819,1.237,6.516,6.516,0,0,0,1.371,1.127,12.266,12.266,0,0,0,1.53.7Z" transform="translate(-698.529 -80.66)" fill="#4dc4ef"/>
      <path id="Path_718" data-name="Path 718" d="M714.4,134.323H701.038a3.65,3.65,0,0,0-1.254.137.973.973,0,0,0-.469.423,2.434,2.434,0,0,0-.158,1.068h-.4v-4.94h.4a2.13,2.13,0,0,0,.143.946.958.958,0,0,0,.473.4,3.725,3.725,0,0,0,1.266.143h9.154a15.959,15.959,0,0,0,2.094-.077.913.913,0,0,0,.535-.248.653.653,0,0,0,.143-.434,2.03,2.03,0,0,0-.177-.727l.387-.188,1.232,3Z" transform="translate(-698.452 -77.502)" fill="#4dc4ef"/>
      <path id="Path_719" data-name="Path 719" d="M705.185,135.832a5.177,5.177,0,0,0-3.521,1.089,3.317,3.317,0,0,0-1.275,2.586,2.8,2.8,0,0,0,.543,1.722,4.032,4.032,0,0,0,1.866,1.226l-.22.342a5.257,5.257,0,0,1-2.747-1.343,3.581,3.581,0,0,1-1.236-2.785,4.063,4.063,0,0,1,1.412-3.108,5.416,5.416,0,0,1,3.8-1.292,5.744,5.744,0,0,1,4.032,1.326,4.325,4.325,0,0,1,1.448,3.327,3.714,3.714,0,0,1-1.119,2.783,4.086,4.086,0,0,1-2.986,1.091Zm.638,0V140.5a4.375,4.375,0,0,0,1.365-.231,2.178,2.178,0,0,0,.967-.821,2.062,2.062,0,0,0,.353-1.138,2.273,2.273,0,0,0-.712-1.634A3.071,3.071,0,0,0,705.823,135.832Z" transform="translate(-698.596 -74.477)" fill="#4dc4ef"/>
      <path id="Path_720" data-name="Path 720" d="M709.278,145.866h-3.432V145.5a4.463,4.463,0,0,0,2.2-1.074,2.409,2.409,0,0,0,.582-1.666,1.847,1.847,0,0,0-.406-1.245,1.183,1.183,0,0,0-.9-.473,1.635,1.635,0,0,0-1.055.353,3.922,3.922,0,0,0-.958,1.386l-.781,1.607q-1.09,2.234-2.871,2.233a2.712,2.712,0,0,1-2.219-1.04,3.6,3.6,0,0,1-.839-2.326,8.012,8.012,0,0,1,.329-2.112,2.086,2.086,0,0,0,.111-.593.439.439,0,0,0-.286-.4v-.364h3.6v.364a4.094,4.094,0,0,0-2.323,1.177,2.841,2.841,0,0,0-.781,1.947,1.747,1.747,0,0,0,.445,1.237,1.415,1.415,0,0,0,1.074.479,1.71,1.71,0,0,0,1.277-.533,9.392,9.392,0,0,0,1.309-2.129,6.3,6.3,0,0,1,1.431-2.09,2.472,2.472,0,0,1,1.583-.5,2.794,2.794,0,0,1,2.081.852,3.016,3.016,0,0,1,.835,2.206,5.186,5.186,0,0,1-.253,1.442,3.479,3.479,0,0,0-.165.747.429.429,0,0,0,.079.274,1.011,1.011,0,0,0,.34.233Z" transform="translate(-698.596 -69.669)" fill="#4dc4ef"/>
    </g>
    <g id="Group_311" data-name="Group 311" transform="translate(726.563 99.83)">
      <path id="Path_721" data-name="Path 721" d="M721.328,105.048a2.938,2.938,0,0,0,.836.4c.118.03.176.073.176.133a1.2,1.2,0,0,1-.616.682.23.23,0,0,1-.308-.111,7.474,7.474,0,0,0-.573-.616q-.484-.439-1.54-1.5-.352.53-.661.441a3.079,3.079,0,0,0-.682-.111c-.25-.015-.674-.023-1.277-.023s-1.136.015-1.605.045a9.591,9.591,0,0,1-1.1-.045.641.641,0,0,1-.462-.2c-.073-.1.008-.2.242-.308a1.641,1.641,0,0,1,.659-.154,1.7,1.7,0,0,1,.4.043,7.687,7.687,0,0,0,1.388.088q.946,0,1.605-.023a4.913,4.913,0,0,0,1.143-.154,8.939,8.939,0,0,1-.659-.836,10.653,10.653,0,0,1-.682-1.144,8.14,8.14,0,0,1-.55-1.234,1.378,1.378,0,0,1-.133-.593c.03-.043.2.22.507.792a14.551,14.551,0,0,0,1.209,1.848,10.877,10.877,0,0,0,1.476,1.628A10.184,10.184,0,0,0,721.328,105.048Z" transform="translate(-713.49 -99.83)" fill="#4dc4ef"/>
      <path id="Path_722" data-name="Path 722" d="M717.239,114.424a1.266,1.266,0,0,1-.439.505,1.184,1.184,0,0,1-.419.242c-.088,0-.1-.088-.043-.265a16.457,16.457,0,0,0,.087-2.2q0-1.718-.154-3.389a20.3,20.3,0,0,0-.24-2.024,5.178,5.178,0,0,1-.111-.638,1.02,1.02,0,0,1,.285-.638,2.587,2.587,0,0,1,.441-.484.471.471,0,0,1,.174-.088c.118,0,.162.192.133.573q-.09.7-.133,2.266a24.474,24.474,0,0,0,.154,3.344,18.605,18.605,0,0,0,.287,2.047,1.455,1.455,0,0,1,.088.353A1.177,1.177,0,0,1,717.239,114.424Z" transform="translate(-711.36 -94.901)" fill="#4dc4ef"/>
      <path id="Path_723" data-name="Path 723" d="M716.457,116.445q.552.682,1.123,1.3t1.32,1.277q.7.659.616.7a3.061,3.061,0,0,1-.967-.528,9.716,9.716,0,0,1-1.893-1.716,14.134,14.134,0,0,1-1.673-2.289,11.153,11.153,0,0,0-.881-1.32,1.8,1.8,0,0,1-.242-.376c-.043-.1.038-.263.242-.483s.36-.33.462-.33.169.1.2.308a3.352,3.352,0,0,0,.111.77,4.744,4.744,0,0,0,.571,1.232A12.767,12.767,0,0,0,716.457,116.445Zm2.332-4.4c.045.015-.028.272-.22.77a4.643,4.643,0,0,1-.55,1.1.9.9,0,0,1-.528.4.545.545,0,0,1-.419-.066c-.1-.073-.154-.139-.154-.2a.261.261,0,0,1,.133-.22c.175-.146.328-.278.462-.4s.285-.27.462-.462.351-.389.528-.593C718.65,112.139,718.746,112.029,718.789,112.044Zm2.135.747c.058-.013-.007.25-.2.792a5.32,5.32,0,0,1-.53,1.166.813.813,0,0,1-.505.4.551.551,0,0,1-.4-.043c-.088-.058-.131-.118-.131-.177a.351.351,0,0,1,.175-.263c.207-.207.4-.419.6-.638s.389-.477.593-.77S720.866,112.806,720.924,112.791Zm-.066,4.138c.278-.25.426-.353.439-.31a1.865,1.865,0,0,1-.242.6,2.459,2.459,0,0,1-.462.7.535.535,0,0,1-.417.154.514.514,0,0,1-.353-.177c-.088-.1,0-.227.265-.374A5.8,5.8,0,0,0,720.858,116.929Zm1.123.505c.028.03-.037.227-.2.593a3.121,3.121,0,0,1-.417.749.524.524,0,0,1-.4.2.8.8,0,0,1-.265-.066c-.118-.043-.177-.1-.177-.154,0-.028.03-.073.088-.131.146-.118.308-.25.484-.4s.366-.323.573-.528C721.848,117.493,721.951,117.4,721.981,117.434Z" transform="translate(-713.175 -89.111)" fill="#4dc4ef"/>
      <path id="Path_724" data-name="Path 724" d="M717.239,126.424a1.266,1.266,0,0,1-.439.505,1.184,1.184,0,0,1-.419.242c-.088,0-.1-.088-.043-.265a16.457,16.457,0,0,0,.087-2.2q0-1.718-.154-3.389a20.3,20.3,0,0,0-.24-2.024,5.179,5.179,0,0,1-.111-.638,1.02,1.02,0,0,1,.285-.638,2.588,2.588,0,0,1,.441-.484.471.471,0,0,1,.174-.088c.118,0,.162.192.133.573q-.09.7-.133,2.266a24.474,24.474,0,0,0,.154,3.344,18.6,18.6,0,0,0,.287,2.047,1.455,1.455,0,0,1,.088.353A1.177,1.177,0,0,1,717.239,126.424Z" transform="translate(-711.36 -84.369)" fill="#4dc4ef"/>
      <path id="Path_725" data-name="Path 725" d="M717.527,129.182a9.429,9.429,0,0,1-.88,1.012,2.007,2.007,0,0,1-.836.573.632.632,0,0,1-.507-.022c-.1-.073-.154-.139-.154-.2,0-.088.088-.192.265-.308q.395-.265.77-.573a8.824,8.824,0,0,0,.858-.836,10.4,10.4,0,0,1-1.716-1.673,9.065,9.065,0,0,1-1.035-1.54,9.283,9.283,0,0,1-.505-1.189c-.118-.353-.154-.535-.111-.55s.184.2.419.638a15.49,15.49,0,0,0,1.187,1.782,10.1,10.1,0,0,0,2.158,2.09q.352-.352.659-.7l.618-.7c.175-.263.278-.381.308-.351s-.023.182-.154.462a7.989,7.989,0,0,1-.419.77q-.22.352-.528.836.747.484,1.408.837a6.835,6.835,0,0,0,1.121.528c.073,0,.111-.045.111-.131a1.691,1.691,0,0,0-.088-.464c-.058-.19-.146-.447-.265-.77a.781.781,0,0,1-.086-.351.943.943,0,0,1,.263-.616q-.879-.749-1.343-1.211a6.72,6.72,0,0,1-.792-.946,5.724,5.724,0,0,1-.505-.879,1.186,1.186,0,0,1-.154-.507q.022-.11.593.638a8.978,8.978,0,0,0,1.254,1.343,7.993,7.993,0,0,0,1.189.9,5.231,5.231,0,0,0,.7.353q.242.087.507.175c.086.03.131.073.131.133a.5.5,0,0,1-.154.308,1.5,1.5,0,0,1-.331.285.682.682,0,0,1-.22.111.257.257,0,0,1-.176-.088,3.063,3.063,0,0,0-.439-.441,3.533,3.533,0,0,0,.176,1.254,3.076,3.076,0,0,0,.439,1.035.4.4,0,0,1-.045.528,2,2,0,0,1-.417.4c-.132.088-.265.053-.4-.109a5.337,5.337,0,0,0-1.254-.815A13.506,13.506,0,0,1,717.527,129.182Z" transform="translate(-713.342 -78.722)" fill="#4dc4ef"/>
      <path id="Path_726" data-name="Path 726" d="M721.328,135.048a2.938,2.938,0,0,0,.836.4c.118.03.176.073.176.133a1.2,1.2,0,0,1-.616.682.23.23,0,0,1-.308-.111,7.461,7.461,0,0,0-.573-.616q-.484-.439-1.54-1.5-.352.529-.661.441a3.082,3.082,0,0,0-.682-.111c-.25-.015-.674-.023-1.277-.023s-1.136.015-1.605.045a9.589,9.589,0,0,1-1.1-.045.641.641,0,0,1-.462-.2c-.073-.1.008-.2.242-.308a1.641,1.641,0,0,1,.659-.154,1.7,1.7,0,0,1,.4.043,7.688,7.688,0,0,0,1.388.088q.946,0,1.605-.023a4.907,4.907,0,0,0,1.143-.154,8.932,8.932,0,0,1-.659-.836,10.659,10.659,0,0,1-.682-1.144,8.139,8.139,0,0,1-.55-1.234,1.378,1.378,0,0,1-.133-.593c.03-.043.2.22.507.792a14.557,14.557,0,0,0,1.209,1.848,10.875,10.875,0,0,0,1.476,1.628A10.181,10.181,0,0,0,721.328,135.048Z" transform="translate(-713.49 -73.499)" fill="#4dc4ef"/>
      <path id="Path_727" data-name="Path 727" d="M720.712,137.615a2.942,2.942,0,0,0,.77-.111.5.5,0,0,1,.22-.043.14.14,0,0,1,.132.088c.03.058,0,.182-.088.374a1.072,1.072,0,0,1-.242.374.323.323,0,0,1-.154.088.648.648,0,0,1-.263-.088,6.973,6.973,0,0,0-1.893-.132q-.617,1.453-.946,2.112a2.55,2.55,0,0,1-.593.858.74.74,0,0,1-.507.176.437.437,0,0,1-.308-.111.275.275,0,0,1-.066-.131c0-.118.116-.265.351-.441A10.085,10.085,0,0,0,718,139.6q.484-.639.969-1.431-3.653,0-4.005.043h-.815c-.278,0-.447-.036-.505-.109s-.037-.161.066-.265a1.234,1.234,0,0,1,.484-.263,1.966,1.966,0,0,1,.9-.023,14.017,14.017,0,0,0,1.936.088Q720.2,137.637,720.712,137.615Z" transform="translate(-713.38 -66.801)" fill="#4dc4ef"/>
      <path id="Path_728" data-name="Path 728" d="M718.82,143.19a1.424,1.424,0,0,0,.55-.133c.177-.088.25-.028.22.177a2.839,2.839,0,0,1-.131.55c-.06.161-.118.242-.176.242a.7.7,0,0,1-.265-.088,5.921,5.921,0,0,0-1.452-.088,4.287,4.287,0,0,1-2.112-.528,4.378,4.378,0,0,1-1.211-1.035c-.278-.366-.4-.573-.373-.616s.265.124.7.507a4.124,4.124,0,0,0,1.431.79,5.02,5.02,0,0,0,1.694.242C718.285,143.2,718.659,143.19,718.82,143.19Zm1.782,2.2a.46.46,0,0,1-.023.31,1.521,1.521,0,0,1-.242.462.406.406,0,0,1-.482.154,3.117,3.117,0,0,0-.684-.111c-.248-.015-.682-.023-1.3-.023H716.18c-.515,0-.815.008-.9.023s-.036.184.154.507a11.031,11.031,0,0,0,1.739,2.2,9.6,9.6,0,0,0,1.1.969c.323.235.477.374.462.419s-.22-.03-.616-.22a6.094,6.094,0,0,1-1.32-.926,9.445,9.445,0,0,1-1.211-1.254c-.323-.439-.571-.77-.747-.99l-.441-.55a.387.387,0,0,1-.132-.265.434.434,0,0,1,.088-.22,1.189,1.189,0,0,1,.308-.285.374.374,0,0,1,.4-.066,2.19,2.19,0,0,0,.792.088h1.87q1.253,0,1.739-.045a2.6,2.6,0,0,0,.747-.154,1.56,1.56,0,0,1,.308-.109C720.544,145.3,720.572,145.331,720.6,145.389Z" transform="translate(-713.161 -63.112)" fill="#4dc4ef"/>
    </g>
    <g id="Group_312" data-name="Group 312" transform="translate(698.639 195.003)">
      <path id="Path_729" data-name="Path 729" d="M714.11,159.647H713.7a7.237,7.237,0,0,0-.577-2.372,6.712,6.712,0,0,0-1.326-1.816,8.417,8.417,0,0,0-1.987-1.485,11.923,11.923,0,0,0-2.6-.984,5.572,5.572,0,0,1,1.089,3.179,3.47,3.47,0,0,1-1.232,2.651,4.517,4.517,0,0,1-3.168,1.123,5.631,5.631,0,0,1-3.412-1.132,4.259,4.259,0,0,1-1.87-3.609,3.637,3.637,0,0,1,1.012-2.6,6.7,6.7,0,0,1,5.105-2.09,9.253,9.253,0,0,1,3.806.8,9.868,9.868,0,0,1,3.2,2.295,8.451,8.451,0,0,1,1.881,2.856,7.619,7.619,0,0,1,.484,2.541Zm-7.7-6.844a19.122,19.122,0,0,0-2.4-.2,7.63,7.63,0,0,0-2.293.391,4.492,4.492,0,0,0-1.964,1.16,1.936,1.936,0,0,0-.518,1.365,2.2,2.2,0,0,0,.9,1.711,3.916,3.916,0,0,0,2.574.753,6.727,6.727,0,0,0,3.256-.747,2.327,2.327,0,0,0,1.376-2.124,2.628,2.628,0,0,0-.176-.9A8.81,8.81,0,0,0,706.41,152.8Z" transform="translate(-698.619 -150.516)" fill="#4dc4ef"/>
    </g>
  </g>
</svg>
