<svg xmlns="http://www.w3.org/2000/svg" xmlns:xlink="http://www.w3.org/1999/xlink" width="1891" height="690" viewBox="0 0 1891 690">
  <defs>
    <clipPath id="clip-path">
      <rect id="Rectangle_13" data-name="Rectangle 13" width="1891" height="690" transform="translate(30 5466)" fill="#fff" stroke="#707070" stroke-width="1"/>
    </clipPath>
  </defs>
  <g id="bg" transform="translate(-30 -5466)" clip-path="url(#clip-path)">
    <g id="Group_10" data-name="Group 10" transform="matrix(0.788, 0.616, -0.616, 0.788, -1212.008, 2528.261)" opacity="0.09">
      <path id="Path_372" data-name="Path 372" d="M2186.054,444.032,1763.643,878.041c-288.378,298.5-733.593,320.6-1405.7-73.866-53.785-31.6-90.756,1.946-55.261,51.293C723.692,1440.553,1183.93,1791.9,1733.677,1980.182c509.274,144.306,1203.794,100.405,1699.6-322.236,157.071-161.43,153.491-421.864-7.859-578.935L2764.911,436.172c-161.352-156.992-421.864-153.491-578.857,7.861Z" transform="translate(0 1395.053)" fill="none" stroke="#fff" stroke-miterlimit="10" stroke-width="7" fill-rule="evenodd"/>
      <path id="Path_373" data-name="Path 373" d="M887.536,767.748,744.164,923.417c-98.616,106.324-97.838,262.149,52.694,489.115,11.986,18.135,1.091,31.679-16.891,20.239C567.791,1297.024,436.327,1143.145,360.2,954.941c-60.165-174.974-58.141-418.13,79.938-599.251,53.317-57.908,144.228-61.645,202.138-8.328L879.206,565.533c57.912,53.317,61.647,144.307,8.33,202.215Z" transform="translate(2603.343 550.466)" fill="none" stroke="#fff" stroke-miterlimit="10" stroke-width="7" fill-rule="evenodd"/>
      <path id="Path_374" data-name="Path 374" d="M545.894,345.034c-56.354,61.49-17.28,150.377-168.98,184.625-198.791,44.909,269.23,297.484,483.433,103.132,32.688-35.727,30.2-91.691-5.528-124.3L670.2,339.51c-35.649-32.692-91.613-30.121-124.3,5.524Z" transform="translate(3083.688 1077.71)" fill="none" stroke="#fff" stroke-miterlimit="10" stroke-width="7" fill-rule="evenodd"/>
      <path id="Path_375" data-name="Path 375" d="M372.852,973.934,516.224,818.264c98.616-106.322,97.838-262.07-52.694-489.113-12.066-18.137-1.013-31.681,16.891-20.239C692.6,444.658,824.061,598.536,900.261,786.741c60.089,174.972,58.065,418.206-80.013,599.251-53.317,57.908-144.228,61.644-202.138,8.406L381.178,1176.148c-57.908-53.315-61.643-144.306-8.326-202.214Z" transform="translate(3572.738 166.428)" fill="none" stroke="#fff" stroke-miterlimit="10" stroke-width="7" fill-rule="evenodd"/>
      <path id="Path_376" data-name="Path 376" d="M416.5,308.887a84.534,84.534,0,1,1-83.6,85.462,84.674,84.674,0,0,1,83.6-85.462Z" transform="translate(3397.623 488.069)" fill="none" stroke="#fff" stroke-miterlimit="10" stroke-width="7" fill-rule="evenodd"/>
      <path id="Path_377" data-name="Path 377" d="M702.4,842.33c-99.161-57.6-84.374-190.3-297.562-172.948C125.484,692.11,636.081,168.436,997,335.47c57.518,33.393,77.21,107.882,43.819,165.4L867.952,798.511c-33.468,57.52-107.957,77.211-165.555,43.819Z" transform="translate(2751.898 0)" fill="none" stroke="#fff" stroke-miterlimit="10" stroke-width="7" fill-rule="evenodd"/>
      <path id="Path_378" data-name="Path 378" d="M1657.5,1931.365l422.489-434.088c288.3-298.418,733.517-320.521,1405.7,73.946,53.785,31.6,90.678-1.946,55.188-51.293-421.012-585.086-881.249-936.433-1431-1124.716C1600.606,250.908,906.085,294.808,410.278,717.452a406.1,406.1,0,0,0-76.9,111.382l333.834-.233c59,1.477,111.072,9.65,167.814,25.761,110.369,37.516,194.351,94.258,270.709,182.367l32.845,43.823c53.4,83.128,82.427,162.986,95.038,260.981l3.112,64.523-8.561,75.735c-10.43,67.792-23.116,133.251-38.684,200.112a2429.85,2429.85,0,0,1-83.983,251.8c-3.115,7.238-6.227,14.32-9.417,21.482,162.206,140.57,409.955,131.852,561.421-23.817Z" transform="translate(3433.817 1394.911)" fill="none" stroke="#fff" stroke-miterlimit="10" stroke-width="7" fill-rule="evenodd"/>
      <path id="Path_379" data-name="Path 379" d="M1394.4,1512.321c-74.254,335.235-389.874,599.484-1041.509,759.748-60.557,14.866-63.669,64.68-3.815,75.265,709.854,125.627,1284.665,56.509,1809.9-192.017,465.607-251.8,932.771-767.608,993.249-1416.364,0-225.177-184.236-409.334-409.334-409.334h-428.4c73.009,92.234,112.706,186.106,128.194,302.933l3.347,54.565c-1.166,117.3-28.877,215.29-89.587,315.7l-33.315,46.7C2250.121,1137,2149.479,1201.6,2054.21,1262.625c-57.986,34.016-115.585,65.15-175.75,94.805a2534.012,2534.012,0,0,1-243.471,95.036c-80.169,23.819-158.859,43.353-240.585,59.854Z" transform="translate(1314.78 2081.474)" fill="none" stroke="#fff" stroke-miterlimit="10" stroke-width="7" fill-rule="evenodd"/>
    </g>
  </g>
</svg>
