<svg xmlns="http://www.w3.org/2000/svg" width="92.95" height="40" viewBox="0 0 92.95 40">
  <g id="Fox" transform="translate(-76 118)">
    <path id="Path_663" data-name="Path 663" d="M24.4,20.05a19.052,19.052,0,1,1,38.1,0,19.052,19.052,0,1,1-38.1,0ZM0,40V0H24l.7,10.95H11.3V16.2H22.25V27H11.3V40Zm92.95-.1-12-20.65L91.9.2H79.75l-4.9,8.5L69.9.2H57.55l11.1,19.2L56.85,39.95H69L74.75,30l5.75,9.9ZM46.8,28V12.15a3.375,3.375,0,0,0-3.3-3.5,3.427,3.427,0,0,0-3.2,3.5V28a3.3,3.3,0,0,0,3.2,3.25A3.137,3.137,0,0,0,46.8,28Z" transform="translate(76 -118)" fill="#9aa9b7" fill-rule="evenodd"/>
  </g>
</svg>
