<svg xmlns="http://www.w3.org/2000/svg" width="129.328" height="30" viewBox="0 0 129.328 30">
  <g id="Group_99" data-name="Group 99" transform="translate(-2138 70)">
    <g id="Logo" transform="translate(2014.42 -369.847)">
      <path id="Path_361" data-name="Path 361" d="M304.231,303.111a3.106,3.106,0,0,1,.334-.877,5.814,5.814,0,0,1,3.538-2.3l.672-.084a3.612,3.612,0,0,1,2.094.516,2.222,2.222,0,0,1,.586.643l.461-.084.47.09a7.333,7.333,0,0,1,1.3.868,7.2,7.2,0,0,1,2.474,3.584,6.4,6.4,0,0,1,.161,2.086,5.913,5.913,0,0,1-.454,1.73,15.8,15.8,0,0,1,2.091-.188l.794.011a13.411,13.411,0,0,1,6.9,2.151c.557.34,1.089.7,1.615,1.082a23.256,23.256,0,0,1,2.426,2.14,29.861,29.861,0,0,1,2.542,3.06,2.111,2.111,0,0,1,.333.9l-.007.316-.079.335-.163.327-.24.281-.289.208-.3.13a1.861,1.861,0,0,1-1.4-.183l-.792-.444c-1.533-.794-3.352-1.592-5.117-1.24a3.378,3.378,0,0,0-1.513.819l-2.914,2.989a4.461,4.461,0,0,1-1.136.813,4.039,4.039,0,0,1-4.128-.376l-.075.135c-.29.482-.593.938-.926,1.392a18.2,18.2,0,0,1-1.343,1.539,18.641,18.641,0,0,1-1.488,1.3,17.953,17.953,0,0,1-1.573,1.051,15.735,15.735,0,0,1-2.9,1.186c-.374.111-.748.212-1.127.307-.646.147-1.286.264-1.941.357-.817.1-1.621.152-2.444.168a28.275,28.275,0,0,1-3.936-.282c-.366-.056-.737-.105-1.1-.188a1.814,1.814,0,0,1-.522-.281l-.159-.172-.13-.217-.08-.253-.018-.269.045-.257.094-.225a1.515,1.515,0,0,1,.582-.539l.3-.108c.72-.185,1.419-.39,2.12-.639a14.857,14.857,0,0,0,1.636-.736,7.2,7.2,0,0,0,1.741-1.329l.285-.352a4.107,4.107,0,0,0,.548-1.089c-.326.035-.654.062-.987.079a18.71,18.71,0,0,1-1.992-.052,17.325,17.325,0,0,1-2.249-.385,15.7,15.7,0,0,1-2.9-1.17l-.685-.37a22.167,22.167,0,0,1-1.978-1.294c-.654-.5-1.268-1.022-1.869-1.584a28.358,28.358,0,0,1-2.625-2.947c-.223-.3-.454-.589-.655-.9a1.823,1.823,0,0,1-.178-.566l.006-.234.058-.245.119-.238.175-.206.212-.153.224-.1a1.513,1.513,0,0,1,.793.019l.292.131c.645.37,1.288.71,1.964,1.02a14.922,14.922,0,0,0,1.686.614,7.228,7.228,0,0,0,2.174.262l.449-.053a4.073,4.073,0,0,0,1.52-.616,6.115,6.115,0,0,0,.489-.4l3.045-3.122a5.417,5.417,0,0,1,.418-.368,3.862,3.862,0,0,1,2.022-.744l.358,0a3.84,3.84,0,0,1,1.69.473,5.626,5.626,0,0,1-.228-.671,5.753,5.753,0,0,1,.539-4.283,3.317,3.317,0,0,1,.474-.647l-.079-.112-.14-.5.008-.438Z" transform="translate(-79.663)" fill="#fff" fill-rule="evenodd"/>
      <path id="Path_362" data-name="Path 362" d="M301.1,321.493l-2.765,2.84c-1.887,1.954-4.8,2.1-9.2-.483-.352-.207-.594.013-.362.336a18.878,18.878,0,0,0,9.366,7.361,12.338,12.338,0,0,0,11.124-2.109,2.687,2.687,0,0,0-.051-3.789l-4.323-4.207a2.687,2.687,0,0,0-3.789.051Z" transform="translate(-80.998 -10.223)" fill="#44c8f5" fill-rule="evenodd"/>
      <path id="Path_363" data-name="Path 363" d="M326.264,312.691l-.938,1.019c-.645.7-.64,1.716.345,3.2.078.119.007.207-.111.132a6.6,6.6,0,0,1-2.747-3.127,4.309,4.309,0,0,1,.523-3.922.939.939,0,0,1,1.323-.055l1.551,1.428a.939.939,0,0,1,.055,1.323Z" transform="translate(-97.62 -4.831)" fill="#231f20" fill-rule="evenodd"/>
      <path id="Path_364" data-name="Path 364" d="M330.239,316.741c-.369.4-.113.984-1.106,1.208-1.3.294,1.762,1.947,3.164.675a.577.577,0,0,0-.036-.814l-1.208-1.106a.578.578,0,0,0-.814.036Z" transform="translate(-100.687 -8.197)" fill="#231f20" fill-rule="evenodd"/>
      <path id="Path_365" data-name="Path 365" d="M335.43,309.075l.938-1.019c.645-.7.64-1.715-.345-3.2-.079-.119-.007-.207.111-.132a6.6,6.6,0,0,1,2.748,3.127,4.311,4.311,0,0,1-.524,3.922.939.939,0,0,1-1.323.055l-1.551-1.428a.939.939,0,0,1-.055-1.323Z" transform="translate(-103.81 -2.379)" fill="#faa61a" fill-rule="evenodd"/>
      <path id="Path_366" data-name="Path 366" d="M333.451,308.881a.553.553,0,1,1-.547.559.554.554,0,0,1,.547-.559Z" transform="translate(-102.692 -4.432)" fill="#231f20" fill-rule="evenodd"/>
      <path id="Path_367" data-name="Path 367" d="M326.973,306.062c-.649-.377-.552-1.245-1.948-1.132-1.828.149,1.513-3.279,3.876-2.185a.794.794,0,0,1,.287,1.082l-1.131,1.948a.8.8,0,0,1-1.083.287Z" transform="translate(-98.569 -1.316)" fill="#a6ce39" fill-rule="evenodd"/>
      <path id="Path_368" data-name="Path 368" d="M342.041,331.225l2.765-2.841c1.887-1.953,4.8-2.1,9.2.484.352.207.593-.013.361-.336A18.878,18.878,0,0,0,345,321.171a12.338,12.338,0,0,0-11.124,2.109,2.657,2.657,0,0,0-.5.729l2.185,0a4.264,4.264,0,0,1,1.1.169,3.887,3.887,0,0,1,1.772,1.194l.215.287a3.93,3.93,0,0,1,.622,1.708l.02.422-.056.5c-.068.444-.151.872-.253,1.31a15.909,15.909,0,0,1-.55,1.648l-.062.141a2.688,2.688,0,0,0,3.674-.156Z" transform="translate(-102.923 -10.222)" fill="#ed1c24" fill-rule="evenodd"/>
      <path id="Path_369" data-name="Path 369" d="M312.921,337.359c-.486,2.194-2.552,3.923-6.816,4.972-.4.1-.417.423-.025.493a18.875,18.875,0,0,0,11.845-1.257,12.337,12.337,0,0,0,6.5-9.27,2.687,2.687,0,0,0-2.679-2.679h-2.8a3.85,3.85,0,0,1,.839,1.983l.022.357a3.872,3.872,0,0,1-.586,2.066l-.218.306a7.473,7.473,0,0,1-1.76,1.395c-.379.223-.757.426-1.15.62a16.577,16.577,0,0,1-1.593.622c-.525.156-1.04.284-1.575.392Z" transform="translate(-89.393 -14.606)" fill="#ffcb05" fill-rule="evenodd"/>
      <path id="Path_370" data-name="Path 370" d="M265.5,329.125a2.619,2.619,0,0,1-1.292,2.264,2.545,2.545,0,0,1-2.58,0,2.621,2.621,0,0,1-1.283-2.264,2.627,2.627,0,0,1,.2-1.02,2.681,2.681,0,0,1,.555-.848,2.547,2.547,0,0,1,.824-.569,2.449,2.449,0,0,1,.992-.2,2.48,2.48,0,0,1,1.294.356,2.593,2.593,0,0,1,.943.963,2.63,2.63,0,0,1,.347,1.323Zm-4.724,0a2.183,2.183,0,0,0,.625,1.542,2.125,2.125,0,0,0,.688.473,2.117,2.117,0,0,0,1.658,0,2.13,2.13,0,0,0,.69-.473,2.164,2.164,0,0,0,.461-.7,2.259,2.259,0,0,0-.123-1.948,2.153,2.153,0,0,0-.782-.8,2.106,2.106,0,0,0-2.15,0,2.154,2.154,0,0,0-.781.8,2.225,2.225,0,0,0-.286,1.106Zm1.212-1.35H263.2a.722.722,0,0,1,.547.211.786.786,0,0,1,.2.566.728.728,0,0,1-.078.361.832.832,0,0,1-.281.262.441.441,0,0,1,.143.065q.16.129.179.754l.007.164a.4.4,0,0,0,.109.3v.071H263.6a1.053,1.053,0,0,1-.071-.438v-.128a1.159,1.159,0,0,0-.072-.432c-.056-.119-.184-.179-.387-.179h-.719v1.177h-.366v-2.757Zm.366,1.258h.784a.414.414,0,0,0,.313-.134.472.472,0,0,0,.125-.334.493.493,0,0,0-.116-.327.335.335,0,0,0-.264-.142h-.842v.936Z" transform="translate(-67.096 -13.068)" fill="#fff" fill-rule="evenodd"/>
      <path id="Path_371" data-name="Path 371" d="M134.184,344.4h-10.6V330.264h10.6v2.665h-7.878v3.129h7.6v2.563h-7.6v3.07h7.878v2.7Zm1.1-14.131h10.884v1.309l-7.231,10.219h7.231v2.6H135.1v-1.589l7.069-9.958h-6.889v-2.584Zm16.223,2.505h-4.452v-2.505H158.7v2.505h-4.45V344.4H151.5V332.769Zm11.084-1.092-.009.178-.025.167-.04.155-.055.145-.068.133-.08.122-.091.11-.1.1-.11.087-.117.075-.123.063-.129.052-.133.04-.136.029-.138.017-.139.006-.139-.006-.139-.017-.136-.029-.133-.04-.128-.052-.124-.063-.117-.075-.11-.087-.1-.1-.091-.11-.08-.122-.068-.133-.055-.145-.04-.155-.024-.167-.009-.178.009-.178.024-.167.04-.156.055-.144.068-.133.08-.122.091-.111.1-.1.11-.087.117-.075.124-.064.128-.052.133-.04.136-.029.139-.017.139-.006.139.006.138.017.136.029.133.04.129.052.123.064.117.075.11.087.1.1.091.111.08.122.068.133.055.144.04.156.025.167.009.178Zm-2.766,2.7h2.545V344.4h-2.545V334.374Zm8.2-2.751v2.81h2.726v2.2H168v4.221l0,.086,0,.082.007.079.01.076.013.073.016.071.018.068.021.065.023.062.026.059.028.057.031.054.033.051.035.048.037.046.039.043.041.04.044.038.045.035.048.033.049.03.051.027.053.024.056.022.057.019.059.017.061.015.062.012.064.009.066.007.067,0h.1c.06,0,.119-.006.179-.012s.1-.012.148-.02c.076-.014.15-.03.225-.049.05-.013.1-.027.149-.043.074-.024.147-.05.219-.078s.117-.05.174-.077l.085-.042.713,2.185q-.118.047-.238.092l-.191.067c-.1.034-.207.065-.311.094l-.184.047c-.1.023-.206.044-.309.062l-.188.029c-.107.013-.214.024-.322.033l-.2.012c-.113,0-.226.007-.339.009l-.2,0-.192-.012-.187-.019-.182-.027-.178-.035-.173-.042-.168-.05-.162-.058-.157-.066-.151-.073-.145-.081-.14-.089-.133-.1-.128-.1-.121-.112-.115-.119-.108-.126-.1-.134-.095-.142-.088-.149-.081-.156-.073-.164-.067-.171-.059-.179-.051-.185-.044-.194-.036-.2-.028-.207-.02-.215-.012-.222,0-.229v-4.222H163.63v-2.2h1.846v-2.538l2.543-.272ZM175,330.285V344.4H172.47V330.285Zm4.2,10.042.009.056.022.109.027.107.033.1.037.1.042.1.047.1.052.094.057.092.062.089.066.086.071.084.076.08.081.077.085.074.09.07.094.067.1.063.1.06.108.056.112.052.117.048.121.044.125.04.129.035.133.032.138.026.142.022.146.017.15.012.154.008.158,0,.17,0,.176-.012.179-.019.182-.026.183-.034.184-.042.182-.048.179-.055.175-.062.086-.033.084-.035.083-.037.081-.038.078-.04.076-.041.074-.043.072-.044.069-.046.066-.047.063-.048.06-.05.057-.051.088-.087L186.359,343l-.136.135-.1.1-.109.094-.112.091-.115.088-.118.085-.121.081-.123.077-.126.075-.129.071-.131.068-.133.065-.135.062-.137.058-.138.055-.14.052-.142.048-.142.045-.144.042-.144.039-.145.036-.146.033-.146.03-.147.026-.146.023-.146.02-.146.017-.146.014-.145.011-.145.008-.144,0-.143,0-.317-.006-.309-.018-.3-.031-.292-.042-.284-.054-.276-.065-.266-.077-.258-.088-.249-.1-.239-.11-.23-.12-.221-.13-.211-.141-.2-.151-.192-.16-.182-.17-.172-.179-.161-.189-.151-.2-.141-.206-.13-.215-.119-.224-.109-.231-.1-.239-.086-.247-.075-.255-.064-.262-.052-.269-.041-.276-.03-.283-.018-.289-.006-.3.006-.281.018-.277.03-.271.041-.265.052-.259.064-.254.075-.247.086-.24.1-.233.107-.226.118-.219.128-.211.139-.2.149-.2.158-.187.168-.178.178-.169.187-.16.2-.151.205-.141.213-.131.223-.121.231-.111.239-.1.248-.089.255-.078.263-.067.271-.055.278-.043.285-.031.292-.019.3-.006.308.006.3.018.293.03.286.042.277.054.269.067.26.078.252.091.242.1.234.115.224.127.214.14.2.151.194.163.183.176.173.187.162.2.151.211.139.224.128.235.116.248.1.259.091.271.079.283.066.295.053.306.04.319.027.33.013.342v.354l-.015.366-.032.422Zm5.258-2.122-.009-.061-.022-.113-.026-.109-.031-.1-.036-.1-.04-.1-.044-.094-.048-.09-.052-.086-.057-.083-.061-.078-.065-.075-.068-.071-.073-.068-.076-.064-.08-.061-.083-.057-.087-.054-.091-.049-.094-.046-.1-.042-.1-.039-.1-.035-.106-.031-.11-.028-.113-.024-.116-.02-.119-.017-.121-.013-.124-.01-.126-.006-.129,0-.122,0-.12.006-.119.009-.117.013-.115.017-.113.02-.111.024-.109.028-.107.031-.1.035-.1.039-.1.043-.1.046-.1.049-.092.053-.09.057-.087.061-.085.064-.081.068-.078.072-.075.075-.072.079-.068.083-.065.087-.062.09-.059.094-.055.1-.051.1-.047.1-.043.109-.04.113-.016.053Zm10.23-1.043-.1-.095-.066-.058-.066-.055-.067-.052-.068-.05-.068-.048-.069-.045-.069-.043-.07-.041-.071-.039-.071-.037-.072-.034-.073-.033-.073-.03-.149-.055-.151-.047-.154-.04-.157-.033-.16-.026-.164-.02-.167-.014-.17-.008-.173,0h-.107l-.1,0-.1.005-.1.008-.094.009-.091.011-.087.013-.084.015-.081.017-.077.019-.074.021-.07.022-.068.024-.064.026-.061.028-.057.029-.054.032-.05.033-.046.034-.043.036-.04.038-.036.039-.033.04-.029.042-.025.043-.022.044-.019.046-.016.048-.012.049-.009.051-.005.052,0,.055,0,.057.005.055.008.053.011.051.014.049.018.048.021.046.024.045.028.043.031.042.035.04.038.039.041.038.045.036.049.035.052.033.057.032.06.03.064.029.068.028.072.025.076.024.08.022.084.021.088.02.092.018.1.016.1.015.1.013.107.011c.134.012.269.021.4.031l.179.014.181.017.183.02.183.023.184.026.184.031.183.035.182.039.18.044.178.049.176.056.172.061.169.067.164.075.159.081.154.089.148.1.142.105.135.114.127.123.119.132.11.142.1.152.091.163.08.173.07.184.058.195.046.207.033.218.02.231.007.242,0,.166-.013.164-.021.162-.03.159-.038.157-.046.155-.055.152-.064.149-.072.146-.08.142-.089.139-.1.134-.105.13-.114.125-.122.121-.131.116-.139.111-.148.1-.156.1-.164.093-.172.087-.181.081-.189.074-.2.067-.206.06-.213.053-.222.045-.23.038-.238.03-.247.021-.255.013-.262,0-.294,0-.147,0-.147-.007-.147-.009-.147-.011-.147-.014-.147-.017-.147-.02-.147-.022-.147-.026-.146-.03-.146-.034-.146-.037-.145-.042-.145-.046-.145-.05-.145-.055-.144-.06-.144-.065-.143-.07-.143-.075-.142-.081-.142-.087-.142-.092-.141-.1-.14-.1-.14-.111-.139-.117-.138-.124-.138-.131-.165-.167,1.261-1.829.11.117.072.07.077.069.081.067.086.067.09.065.094.064.1.062.1.061.1.059.106.057.109.055.111.053.113.051.115.049.116.046.117.045.118.042.118.04.119.037.119.035.119.033.119.03.118.027.117.025.116.021.115.019.113.016.111.013.108.01.106.007.1,0h.085l.084,0,.084-.005.083-.008.082-.01.08-.013.079-.016.078-.018.076-.021.075-.023.073-.025.071-.029.069-.03.067-.033.064-.035.062-.037.059-.039.056-.041.052-.043.05-.044.047-.046.043-.048.04-.049.036-.051.032-.053.028-.055.024-.056.02-.058.016-.059.011-.061.007-.062,0-.064,0-.06-.005-.058-.008-.056-.011-.052-.014-.05-.018-.048-.021-.046-.024-.044-.028-.042-.032-.041-.035-.038-.039-.037-.043-.035-.047-.034-.05-.032-.055-.031-.059-.029-.063-.027-.068-.026-.072-.025-.077-.023-.081-.021-.086-.02-.091-.019-.095-.017-.1-.016-.213-.027-.233-.022-.253-.018-.177-.015-.178-.018-.179-.022-.18-.025-.18-.03-.18-.034-.18-.038-.178-.042-.177-.047-.175-.052-.172-.058-.169-.062-.166-.068-.162-.074-.157-.08-.153-.086-.147-.092-.141-.1-.135-.105-.128-.113-.121-.12-.113-.127-.1-.134-.1-.143-.086-.15-.076-.158-.066-.166-.055-.175-.044-.183-.032-.192-.019-.2-.006-.209.007-.213.021-.2.033-.2.046-.188.058-.18.069-.171.08-.164.091-.155.1-.148.109-.14.118-.132.126-.125.133-.117.141-.11.147-.1.152-.1.158-.089.162-.083.167-.075.17-.069.173-.063.176-.057.178-.05.179-.045.18-.039.18-.034.181-.028.18-.022.179-.017.177-.012.175-.007.172,0,.287,0,.14,0,.138.007.136.009.134.011.133.013.13.015.129.018.127.02.126.023.125.025.123.027.122.031.121.033.119.037.118.039.117.043.116.045.115.049.114.052.113.056.112.059.112.062.111.066.111.07.11.073.11.077.109.081.108.085.108.089.145.124-1.428,1.681Z" transform="translate(0 -14.891)" fill="#fff" fill-rule="evenodd"/>
    </g>
  </g>
</svg>
