<svg xmlns="http://www.w3.org/2000/svg" width="52.199" height="40" viewBox="0 0 52.199 40">
  <g id="Group_286" data-name="Group 286" transform="translate(16989 19658)">
    <g id="M6" transform="translate(-16989 -19658)">
      <path id="Path_664" data-name="Path 664" d="M6.4,0,0,40H13.05l1.5-12.2L26.1,40,37.7,27.8,39.15,40H52.2L45.8,0,26.1,20.5Z" fill="#9aa9b7" fill-rule="evenodd"/>
      <path id="Path_665" data-name="Path 665" d="M40.3,9C42.1,5.9,44,2.85,45.4.9H37.1c-4.05,5.65-7.8,12.45-8.9,17.05a12.942,12.942,0,0,0-.4,3.15A12.251,12.251,0,1,0,40.3,9ZM40,26.55a5.45,5.45,0,1,1,5.45-5.45A5.463,5.463,0,0,1,40,26.55Z" transform="translate(-13.9 -0.45)" fill="#fff" fill-rule="evenodd"/>
    </g>
  </g>
</svg>
