<svg id="Nasa" xmlns="http://www.w3.org/2000/svg" width="142.102" height="40" viewBox="0 0 142.102 40">
  <g id="Group_273" data-name="Group 273">
    <path id="Path_666" data-name="Path 666" d="M28,40a10.006,10.006,0,0,1-9.6-7.3L11.9,9.45a1.92,1.92,0,0,0-1.85-1.4A1.952,1.952,0,0,0,8.1,10V39H0V10A9.984,9.984,0,0,1,19.6,7.3l6.5,23.25a1.92,1.92,0,0,0,1.85,1.4A1.952,1.952,0,0,0,29.9,30V1H38V30A10.029,10.029,0,0,1,28,40Z" fill="#9aa9b7"/>
  </g>
  <g id="Group_274" data-name="Group 274" transform="translate(71.8 1)">
    <path id="Path_667" data-name="Path 667" d="M165.3,40H143.6V31.95h21.7a3.457,3.457,0,0,0,3.45-3.45A3.5,3.5,0,0,0,165.3,25H155.25a11.5,11.5,0,0,1,0-23h19.6v8.05h-19.6a3.45,3.45,0,1,0,0,6.9H165.3a11.525,11.525,0,0,1,0,23.05Z" transform="translate(-143.6 -2)" fill="#9aa9b7"/>
  </g>
  <path id="Path_668" data-name="Path 668" d="M233.85,6.9a9.99,9.99,0,0,0-19,0L204.4,39h8.45l9.6-29.6a1.981,1.981,0,0,1,1.85-1.35,1.931,1.931,0,0,1,1.85,1.35l9.7,29.6h8.45Z" transform="translate(-102.2)" fill="#9aa9b7"/>
  <path id="Path_669" data-name="Path 669" d="M101.55,6.9a9.99,9.99,0,0,0-19,0L72.1,39h8.45l9.6-29.6A1.981,1.981,0,0,1,92,8.05,1.931,1.931,0,0,1,93.85,9.4L103.5,39h8.45Z" transform="translate(-36.05)" fill="#9aa9b7"/>
</svg>
