<svg id="ProSieben" xmlns="http://www.w3.org/2000/svg" width="106.551" height="40" viewBox="0 0 106.551 40">
  <path id="Path_670" data-name="Path 670" d="M126.7,25.5l.1,9.45h-9.3l-.05-9.45H110.3l.1,27.25h7.1V41.65h9.35v11.1h7.05l-.05-27.25Z" transform="translate(-55.15 -12.75)" fill="#9aa9b7" fill-rule="evenodd"/>
  <path id="Path_671" data-name="Path 671" d="M178,25.5H164.4v6.3h13.4c2.45,0,3.6.75,3.6,4.25l.05,5.7c-.05,2.9-1,4.65-3.65,4.65h-6.2l-.05-11.5H164.4l.1,17.8H179c7.4,0,9.8-3.5,9.75-10.95v-5.7C188.7,28.4,185.4,25.5,178,25.5Z" transform="translate(-82.2 -12.75)" fill="#9aa9b7" fill-rule="evenodd"/>
  <path id="Path_672" data-name="Path 672" d="M0,0H39.15V11H0Z" fill="#9aa9b7" fill-rule="evenodd"/>
  <path id="Path_673" data-name="Path 673" d="M39.15,26.119v26.9H0s4.8-13.05,17.4-20.8c12-7.35,21.75-6.1,21.75-6.1Z" transform="translate(0 -13.019)" fill="#9aa9b7" fill-rule="evenodd"/>
</svg>
