<svg xmlns="http://www.w3.org/2000/svg" width="65.348" height="40" viewBox="0 0 65.348 40">
  <path id="Sky" d="M20.149,24.549h0c0,3.9-2.55,6.7-7.7,7.25a62.026,62.026,0,0,1-11.7-.35A6.562,6.562,0,0,1,.6,30.1c0-3.4,1.8-4.15,3.55-4.15,1.8,0,4.6.3,6.7.3,2.3,0,3-.8,3-1.55,0-.95-.9-1.35-2.7-1.7l-4.9-.95c-4.1-.8-6.25-3.6-6.25-6.6,0-3.6,2.55-6.65,7.6-7.2a54.36,54.36,0,0,1,11,.35,5.764,5.764,0,0,1,.15,1.3c0,3.4-1.8,4.1-3.5,4.1-1.3,0-3.35-.25-5.7-.25-2.4,0-3.35.65-3.35,1.45,0,.85.95,1.2,2.45,1.45l4.65.85c4.75.95,6.85,3.7,6.85,7.05M28.5,28.7h0c0,2.1-.8,3.3-4.9,3.3a12.385,12.385,0,0,1-1.45-.1V4.3C22.2,2.2,22.9,0,27,0a7.631,7.631,0,0,1,1.5.15ZM45.1,39.348a7.433,7.433,0,0,0,3,.65,4.361,4.361,0,0,0,4.6-2.95L65.347,8.85a6.23,6.23,0,0,0-2.6-.6c-1.65-.05-3.8.3-5.2,3.65l-4.1,9.6L45.4,8.45a11.909,11.909,0,0,0-2.7-.4,7.36,7.36,0,0,0-6.05,2.85L28.8,19.4l6.3,9.9a5.533,5.533,0,0,0,5.15,2.7,8.8,8.8,0,0,0,3.6-.7L36.3,19.949l5.35-5.7,8.8,13.8Z" fill="#9aa9b7"/>
</svg>
