<svg xmlns="http://www.w3.org/2000/svg" width="29.661" height="646.735" viewBox="0 0 29.661 646.735">
  <g id="Group_289" data-name="Group 289" transform="translate(-14.667 -0.5)">
    <path id="Path_660" data-name="Path 660" d="M15,35.788a13.155,13.155,0,0,0,2.555-4.95l1.437.958-.639.319a13.476,13.476,0,0,1-3.193,3.832l-.16-.16Zm2.4-.639a9.484,9.484,0,0,0,1.756.16c.319,0,.479-.16.479-.639V29.88H16.916l-.639.16-.639-.639H19.79V26.846H17.555a5.987,5.987,0,0,0-1.756.16l-.639-.639h5.429a23.013,23.013,0,0,0,1.118-3.672H18.193a5.987,5.987,0,0,0-1.756.16l-.639-.639H19.79a4.59,4.59,0,0,0-1.118-2.4l.16-.16a5.829,5.829,0,0,1,1.6,1.118c.16.319.319.479.319.639,0,.319-.16.479-.479.958h1.916l.958-.958,1.277,1.277H21.866l1.277.8a2.711,2.711,0,0,0-.958.958c-.319.479-.639,1.118-1.118,1.756h1.916l.958-.958,1.277,1.277H20.748v2.555H22.5l.958-.958L24.74,29.4H20.748V34.67c0,.8-.479,1.277-1.437,1.6q0-.958-1.916-1.437ZM15.16,7.526H29.53l1.277-1.277,1.6,1.6H23.463v5.748l2.235-.479v.319l-2.235.639v3.193L22.5,17.9V14.551a28.447,28.447,0,0,0-5.11,1.437,5.136,5.136,0,0,0-1.118.639l-.958-1.437c.639-.16,1.6-.16,2.4-.319V8H16.6l-.958.16ZM17.4,23.174a15.463,15.463,0,0,1,1.437,1.118,1.459,1.459,0,0,1,.479.8c0,.319-.16.479-.319.8s-.319.319-.319.319c-.16,0-.319-.16-.319-.639a7.694,7.694,0,0,0-1.118-2.4ZM18.832.819,19.95,1.3h7.984l.479-.8,1.277.958-.639.479V6.408l-1.118.479V5.929H19.79v.639l-1.118.319V3.853C18.672,2.735,18.832,1.618,18.832.819Zm0,7.185V9.6h3.513V8Zm0,2.076v1.756h3.513V10.08Zm0,2.076v2.4l3.513-.639V12.156ZM19.95,1.777v1.6h8.143v-1.6Zm0,2.076v1.6h8.143v-1.6Zm1.6,27.3a7.7,7.7,0,0,1,1.916,1.277,1.459,1.459,0,0,1,.479.8.96.96,0,0,1-.16.639,1.976,1.976,0,0,1-.319.479c-.16,0-.16-.16-.319-.639a23.434,23.434,0,0,0-1.437-2.4Zm8.3-4.152v9.58l-1.118.479V26.846h-2.4c.16,3.193-.319,5.589-1.277,7.026a12.112,12.112,0,0,1-3.193,3.193l-.16-.16a12.718,12.718,0,0,0,2.4-2.714,9.885,9.885,0,0,0,1.118-3.034,29.324,29.324,0,0,0,.319-4.152V21.257l1.118.639a12.237,12.237,0,0,0,4.151-1.6l1.277,1.277a9.1,9.1,0,0,0-2.076.16,27.01,27.01,0,0,1-3.353.479v4.311h3.672l.958-.958,1.437,1.437ZM23.622,9.282h5.748l.639-.8L31.287,9.6l-.639.319a26.009,26.009,0,0,1-2.4,4.311,8.035,8.035,0,0,0,2.076,1.6,4.637,4.637,0,0,0,2.235.479v.319c-.8.16-1.277.319-1.437.958-.479-.319-1.118-.639-1.6-.958-.479-.479-1.118-.958-1.756-1.6A21.547,21.547,0,0,1,23.782,17.9l-.16-.16a14.85,14.85,0,0,0,3.672-3.353,13.2,13.2,0,0,1-1.118-2.076,13.3,13.3,0,0,1-.639-2.4l-.958.16Zm1.916.479a11.087,11.087,0,0,0,.8,2.076,16.829,16.829,0,0,0,1.118,1.756c.319-.639.8-1.277,1.118-1.916a9.767,9.767,0,0,0,.8-1.916H25.538Z" transform="translate(-0.013)" fill="#4dc4ef"/>
    <path id="Path_661" data-name="Path 661" d="M19.371,101.808V95.9l1.6.8-.639.479v4.631h.639l.8-.8,1.118,1.277H17.455v3.193H20.01l.639-.639,1.118,1.118-.639.479v5.269l-1.118.479v-6.227H17.3a14.873,14.873,0,0,1-2.076,7.5l-.319-.16a23.861,23.861,0,0,0,1.277-5.11,33.886,33.886,0,0,0,.16-5.908,40.763,40.763,0,0,0-.16-5.11l1.6.8-.639.479v3.193h2.235ZM29.59,367.025c.639-.8.958-1.118,1.118-.958s-.16.479-.639,1.277a15.331,15.331,0,0,1-2.235,2.4,6.754,6.754,0,0,1-3.672,1.277,6.423,6.423,0,0,1-4.151-.958,9.122,9.122,0,0,1-2.874-2.555c-.639-.958-.958-1.437-.8-1.437s.479.319,1.118.958a7.07,7.07,0,0,0,2.4,1.916,6.844,6.844,0,0,0,3.832.8,7.372,7.372,0,0,0,3.672-.8A8.4,8.4,0,0,0,29.59,367.025ZM20.329,120.33l.958-.958a.96.96,0,0,1,.639-.16c.16,0,.319.16.639.319A8.08,8.08,0,0,1,24,120.809a12.593,12.593,0,0,0,1.916,2.4,10.839,10.839,0,0,0,1.916,1.916A12.187,12.187,0,0,0,29.59,126.4c.479.319.958.479,1.118.639a.587.587,0,0,1,.16.479v.319c0,.16-.16.16-.319.16a2.8,2.8,0,0,1-.8-.16,7.788,7.788,0,0,1-1.916-1.277A18.256,18.256,0,0,1,25.6,124a14.654,14.654,0,0,1-1.756-2.4,12.958,12.958,0,0,0-.958-1.277,1.211,1.211,0,0,0-.639-.319,1.211,1.211,0,0,0-.639.319c-.16.16-.639.8-1.277,1.6s-1.118,1.437-1.437,1.756a2.574,2.574,0,0,1-1.118.639,1.312,1.312,0,0,1-1.118-.16q-.479-.479,0-.479a7.784,7.784,0,0,1,1.118-.479,6.979,6.979,0,0,0,1.277-1.118A5,5,0,0,1,20.329,120.33ZM19.051,332.855a2.025,2.025,0,0,0-.16-.958c-.16-.319,0-.479.319-.319.319,0,.639.16.958.16.319.16.479.16.479.319a.587.587,0,0,1-.16.479,6.7,6.7,0,0,0-.16,2.4,6.615,6.615,0,0,1-.958,3.673,5.766,5.766,0,0,1-1.756,2.076c-.639.479-.958.639-1.118.639a4.79,4.79,0,0,1,.8-1.277,4.393,4.393,0,0,0,1.277-2.4,9.042,9.042,0,0,0,.479-2.874Q19.052,333.334,19.051,332.855Zm-1.6-11.975c-.639.8-.958,1.118-1.118,1.118-.16-.16.16-.639.639-1.437a15.332,15.332,0,0,1,2.235-2.4,5.693,5.693,0,0,1,3.672-1.277,6.206,6.206,0,0,1,4.151.958,9.122,9.122,0,0,1,2.874,2.555c.639.958.958,1.437.8,1.437s-.479-.319-1.118-1.118a9.722,9.722,0,0,0-2.4-1.916,7.022,7.022,0,0,0-3.992-.958,6.81,6.81,0,0,0-3.832.958c-.479.639-1.277,1.277-1.916,2.076Zm3.992-49.658c-.16-.319,0-.479.319-.479a1.38,1.38,0,0,1,.958.479.638.638,0,0,1,.319.639,2.469,2.469,0,0,1-.479.958,20.787,20.787,0,0,0-.958,1.916,8.063,8.063,0,0,1,2.4-.319,1.637,1.637,0,0,1,1.6,1.6,11.79,11.79,0,0,1-.319,1.916,17.443,17.443,0,0,1-.8,2.714,13.827,13.827,0,0,1-.8,1.916,4.234,4.234,0,0,1-.8.958,1.38,1.38,0,0,1-.958.479c-.319,0-.479,0-.639-.319l-.479-.958c-.319-.319-.479-.639-.8-.958a1.235,1.235,0,0,1-.16-.479c.16,0,.319,0,.639.319a3.34,3.34,0,0,0,.958.639,1.736,1.736,0,0,0,.8.16,1.728,1.728,0,0,0,.639-.8,4.782,4.782,0,0,0,.639-1.6c.16-.639.319-1.277.479-2.076a6.614,6.614,0,0,0,.16-1.6,1.439,1.439,0,0,0-.16-.8.938.938,0,0,0-.8-.319,5.894,5.894,0,0,0-2.076.319A41.744,41.744,0,0,1,19.051,280c-.639,1.118-1.118,1.916-1.437,2.555s-.639.958-.8.958-.319,0-.479-.319c0-.319-.16-.479-.16-.639,0-.319,0-.479.16-.639a4.749,4.749,0,0,0,1.118-1.277,28.062,28.062,0,0,0,2.4-4.95c-.8.319-1.437.479-1.916.639a1.44,1.44,0,0,1-.8.16.587.587,0,0,1-.479-.16c-.16-.16-.319-.16-.479-.479s-.16-.319-.16-.479.16-.16.479-.16h1.118a10.148,10.148,0,0,0,2.4-.479c.319-.8.479-1.437.639-1.756a2.809,2.809,0,0,0,.16-.958C21.606,271.86,21.606,271.54,21.447,271.221Zm0,114.965c-.16-.319,0-.479.319-.479a1.38,1.38,0,0,1,.958.479.637.637,0,0,1,.319.639,2.469,2.469,0,0,1-.479.958,20.779,20.779,0,0,0-.958,1.916,8.063,8.063,0,0,1,2.4-.319,1.637,1.637,0,0,1,1.6,1.6,11.791,11.791,0,0,1-.319,1.916,17.447,17.447,0,0,1-.8,2.714,13.833,13.833,0,0,1-.8,1.916,4.233,4.233,0,0,1-.8.958,1.38,1.38,0,0,1-.958.479c-.319,0-.479,0-.639-.319l-.479-.958c-.319-.319-.479-.639-.8-.958a1.236,1.236,0,0,1-.16-.479c.16,0,.319,0,.639.319a3.34,3.34,0,0,0,.958.639,1.736,1.736,0,0,0,.8.16,1.728,1.728,0,0,0,.639-.8,4.781,4.781,0,0,0,.639-1.6c.16-.639.319-1.277.479-2.076a6.613,6.613,0,0,0,.16-1.6,1.44,1.44,0,0,0-.16-.8.938.938,0,0,0-.8-.319,5.893,5.893,0,0,0-2.076.319,41.74,41.74,0,0,1-2.076,4.471c-.639,1.118-1.118,1.916-1.437,2.555s-.639.958-.8.958-.319,0-.479-.319c0-.319-.16-.479-.16-.639,0-.319,0-.479.16-.639a4.749,4.749,0,0,0,1.118-1.277,28.065,28.065,0,0,0,2.4-4.95c-.8.319-1.437.479-1.916.639a1.439,1.439,0,0,1-.8.16.587.587,0,0,1-.479-.16c-.16-.16-.319-.16-.479-.479s-.16-.319-.16-.479.16-.16.479-.16h1.118a10.149,10.149,0,0,0,2.4-.479c.319-.8.479-1.437.639-1.756a2.809,2.809,0,0,0,.16-.958C21.606,386.824,21.606,386.5,21.447,386.186Zm-.16-93.568a6.62,6.62,0,0,0,.639-1.916c0-.479.16-.8.16-1.118v-.319c.16-.16.319,0,.479,0a2.2,2.2,0,0,1,.639.479.5.5,0,0,1,.16.319v.319a18.783,18.783,0,0,0-1.277,2.076,10.187,10.187,0,0,0,1.437-.319,7.781,7.781,0,0,1,1.118-.479.8.8,0,0,1,.958,0c.16.16.319.16.319.319s0,.16-.16.319a10.637,10.637,0,0,1-1.118.479,9.7,9.7,0,0,1-2.714.639,30.87,30.87,0,0,1-2.235,3.832A12.627,12.627,0,0,1,18.413,299c-.319.319-.479.479-.639.479s-.319,0-.319-.16V299a.96.96,0,0,1,.16-.639c0-.319.319-.479.639-.8l1.277-1.277a15.273,15.273,0,0,0,1.756-3.034,2.774,2.774,0,0,1-1.916-.479c-.479-.319-.639-.479-.639-.639s.16-.16.479,0a2.025,2.025,0,0,0,.958.16c-.16.319.319.319,1.118.319Zm-1.756-49.978a10.831,10.831,0,0,1,1.437-.958c.319-.16.479-.319.479-.16a4.413,4.413,0,0,1-.958.958c-.639.639-1.277,1.118-1.6,1.437-.479.479-.639.639-.958.639h-.479c-.16,0-.319,0-.319-.16v-2.555c0-.16.16,0,.319.479a6.713,6.713,0,0,0,.319.8c0,.16.16.16.319,0C18.413,243.278,18.892,242.959,19.531,242.639ZM23.682,194.1c.8-.319,1.437-.479,1.756-.639a1.236,1.236,0,0,1,.479-.16.587.587,0,0,1,.479.16c.16.16.479.319.639.639a2.2,2.2,0,0,0,.479.639c0,.16,0,.319-.319.479a23.758,23.758,0,0,0-2.714,1.916c-1.6,1.118-3.193,2.235-5.11,3.353q2.4-.479,4.311-.958c1.277-.319,2.076-.479,2.555-.639s1.118-.16,1.6-.319a1.7,1.7,0,0,1,1.277.16q.479.24.479.479c0,.16-.319.16-.8.16s-.958.16-1.277.16a4.937,4.937,0,0,0-1.277.319,8.042,8.042,0,0,0-2.076,1.437,4.23,4.23,0,0,0-1.6,2.4c0,.8,0,1.437.319,1.756a1.983,1.983,0,0,0,1.277.958,5.955,5.955,0,0,0,1.916.319c.8,0,1.118.16,1.118.639s-.479.639-1.277.639a3.991,3.991,0,0,1-2.235-.639,3.113,3.113,0,0,1-1.6-1.6A3.639,3.639,0,0,1,21.606,204a8.239,8.239,0,0,1,.319-1.756,8.713,8.713,0,0,1,3.034-2.714q-2.156.479-3.832.958c-1.118.319-1.916.639-2.4.8a.96.96,0,0,1-.639.16.83.83,0,0,1-.639-.319c-.16-.16-.319-.319-.319-.479s0-.319.16-.319c.319-.16.479-.16.8-.319s.8-.479,1.756-.958c.8-.479,1.916-1.277,3.193-2.235a15.732,15.732,0,0,0,2.235-2.076c.16-.319.319-.479.319-.639s0-.16-.16-.16a7.789,7.789,0,0,0-1.756.639,13.059,13.059,0,0,1-2.235.8,3.117,3.117,0,0,1-1.118.16c-.319,0-.479-.319-.8-.639s-.16-.479.319-.479h1.437A4.355,4.355,0,0,0,23.682,194.1Zm-5.429-9.74a3.219,3.219,0,0,1,.479-1.756l.639-.958v.16l-.479,1.437a2.878,2.878,0,0,0,.16,1.6,1.812,1.812,0,0,0,1.437,1.118,7.5,7.5,0,0,0,2.874.319,7.735,7.735,0,0,0,2.874-.479,6.472,6.472,0,0,0,1.6-.479c.319-.16.479,0,.639,0v.319a1.207,1.207,0,0,1-.16.639,9.457,9.457,0,0,1-.958.639,17.448,17.448,0,0,1-2.714.479,12.681,12.681,0,0,1-3.513-.16,3.7,3.7,0,0,1-2.235-1.118A7.783,7.783,0,0,1,18.253,184.359Zm6.866-38a6.474,6.474,0,0,0-1.437-.8,4.107,4.107,0,0,1-.8,2.235,2.287,2.287,0,0,1-1.756.8,3.405,3.405,0,0,1-1.916-.479,1.851,1.851,0,0,1-.639-1.6,1.908,1.908,0,0,1,1.277-1.437,5.7,5.7,0,0,1,3.034-.319c.16-2.555.16-4.152.16-5.11v-1.916a2.308,2.308,0,0,0-.319-1.118c-.16-.319,0-.479.479-.319a1.821,1.821,0,0,1,.958.479.637.637,0,0,1,.319.639,3.724,3.724,0,0,0-.319,1.756,10.571,10.571,0,0,0,2.4-.16h1.437c.16,0,.16.16,0,.319a1.707,1.707,0,0,1-.8.479,3.964,3.964,0,0,1-1.437.16A8.239,8.239,0,0,1,24,139.65c-.16,2.235-.16,3.992-.16,5.11a8.344,8.344,0,0,1,2.4,1.118,1.658,1.658,0,0,1,.8,1.277c0,.319-.16.639-.319.639s-.319-.16-.639-.479ZM22.245,159.61a13.148,13.148,0,0,1,2.555-.958,2.748,2.748,0,0,1,1.916.319,2.537,2.537,0,0,1,1.277,1.6,7.332,7.332,0,0,1,.16,1.6,7.881,7.881,0,0,1-.479,2.4,6.783,6.783,0,0,1-1.6,2.714,7.647,7.647,0,0,1-2.4,1.756c-.8.319-1.6.639-1.916.8a6.915,6.915,0,0,0-.8.16h-.16s.479-.319,1.6-.958a8.777,8.777,0,0,0,2.714-2.076,5.935,5.935,0,0,0,1.437-3.034,7.457,7.457,0,0,0,.16-2.555,2.024,2.024,0,0,0-.639-1.437,1.952,1.952,0,0,0-1.437-.479,5.662,5.662,0,0,0-2.555.958,18.785,18.785,0,0,0-2.076,1.277,1.207,1.207,0,0,1-.639.16c-.16,0-.319-.16-.639-.319s-.479-.319-.479-.479.16-.16.479-.319a3.117,3.117,0,0,0,1.118-.16A9.34,9.34,0,0,0,22.245,159.61ZM19.211,348.662a1.207,1.207,0,0,1-.16-.639c0-.16,0-.16.16-.16h.479a.83.83,0,0,1,.639.319c.16.16.319.319.16.639a1.439,1.439,0,0,0-.16.8v4.311c.958-.319,2.235-.8,3.672-1.437a6.1,6.1,0,0,0,2.4-1.437.156.156,0,0,1,.16-.16,1.919,1.919,0,0,1,1.277,1.277c0,.16-.16.16-.319.16a5.463,5.463,0,0,0-1.756.319c-1.118.319-1.756.479-2.4.639-.479.16-1.6.479-3.193.958v3.193q0,.719.958.958c.639.16,1.118.16,1.916.319a12.911,12.911,0,0,0,2.4-.16c.8-.16,1.437-.16,1.916-.319h.479a.587.587,0,0,1,.479.16.343.343,0,0,1,.319.319q0,.24-.479.479a7.444,7.444,0,0,1-2.555.319,25.667,25.667,0,0,1-3.513,0,2.71,2.71,0,0,1-2.076-.639,1.628,1.628,0,0,1-.8-1.277,13.386,13.386,0,0,1,0-2.555v-3.992C19.211,349.461,19.371,348.982,19.211,348.662Zm2.874-201.348a3.756,3.756,0,0,0,.639-1.916H20.968a3.814,3.814,0,0,0-1.118.479c-.319.16-.319.479-.319.8a.878.878,0,0,0,.479.8,2.308,2.308,0,0,0,1.118.319A1.757,1.757,0,0,0,22.085,147.315ZM20.329,251.741c0-.479,0-.639.16-.639a1.459,1.459,0,0,1,.8.479c.319.319.479.479.319.8a14.892,14.892,0,0,0-.8,2.235,14.24,14.24,0,0,0-.479,3.513,12.066,12.066,0,0,1,1.6-3.992,6.074,6.074,0,0,1,1.756-1.756,3.081,3.081,0,0,1,1.6-.479,1.951,1.951,0,0,1,1.437.639,3,3,0,0,1,.8,1.756,8.6,8.6,0,0,1,.16,1.756,26.871,26.871,0,0,1-.319,3.193,9.976,9.976,0,0,1-1.6,3.513,9.7,9.7,0,0,1-2.555,2.555,7.073,7.073,0,0,1-1.6.958h-.16c0-.16.319-.319.958-.8a16.414,16.414,0,0,0,2.235-2.4,8.593,8.593,0,0,0,1.6-3.193,11.794,11.794,0,0,0,.479-3.034,12.085,12.085,0,0,0-.16-2.4c-.16-.8-.319-1.277-.639-1.277a1.207,1.207,0,0,0-.639-.16,6.281,6.281,0,0,0-.958.319,3.053,3.053,0,0,0-1.437,1.437,14.155,14.155,0,0,0-1.277,2.714c-.319.958-.479,1.756-.639,2.4s-.16.958-.319.958-.319,0-.479-.319a5.406,5.406,0,0,1-.479-1.277,6.58,6.58,0,0,1-.16-1.916c0-.8.16-1.277.16-1.756.16-.479.16-1.118.319-1.756A5.074,5.074,0,0,0,20.329,251.741Zm6.547,41.036c-.479-.16-.479-.319-.479-.319a3.693,3.693,0,0,1,1.437.319,10.631,10.631,0,0,1,1.916.958c.479.479.639.8.639,1.118v.639c0,.16-.16.16-.319.16a.587.587,0,0,1-.479-.16,2.307,2.307,0,0,0-1.118-.319H27.354c-.319,0-.639.319-.958.479a2.119,2.119,0,0,0-.479,1.6,26.124,26.124,0,0,0,.16,3.193c.639.319,1.118.639,1.437.8.319.319.639.479.8.8s.319.479.319.8,0,.639-.16.639c-.16.16-.479,0-.8-.639a6.1,6.1,0,0,0-1.437-1.437,2.618,2.618,0,0,1-1.118,1.756,3.912,3.912,0,0,1-1.916.639,3.405,3.405,0,0,1-1.916-.479,6.077,6.077,0,0,1-.958-.8,1.735,1.735,0,0,1,.479-2.076,2.6,2.6,0,0,1,1.756-.8,4.954,4.954,0,0,1,2.874.479,11.559,11.559,0,0,1,0-3.353,2.119,2.119,0,0,1,1.277-1.756,4.552,4.552,0,0,1,2.555-.319c-.319-.319-.639-.8-.958-.958C27.674,293.256,27.195,293.1,26.875,292.777ZM21.287,176.056a3.49,3.49,0,0,1-.8-.479l-.319-.16v-.16h.8a6.7,6.7,0,0,0,2.555.16A6.257,6.257,0,0,0,25.6,175.1c.319-.16.8,0,.958,0,.319.16.479.319.479.639s0,.479-.319.479c-.319.16-.8.16-1.118.479-.479.16-.958.479-1.756.8a7.28,7.28,0,0,1-1.277.639H22.4l.319-.319c.319-.319.958-.8,1.756-1.437a5.987,5.987,0,0,1-1.756-.16C22.245,176.056,21.606,176.216,21.287,176.056Zm9.421-73.45a16.806,16.806,0,0,1-2.555,6.068,10.179,10.179,0,0,0,4.471,3.034v.319a1.214,1.214,0,0,0-1.437.8,13.81,13.81,0,0,1-3.513-3.353,14.4,14.4,0,0,1-5.11,3.672v-.319a16.358,16.358,0,0,0,4.631-4.151,15.124,15.124,0,0,1-1.916-6.387h-.958c0,5.11-1.118,8.782-3.353,11.177l-.16-.16a11.952,11.952,0,0,0,2.076-5.11,32.251,32.251,0,0,0,.479-5.269v-4.95l1.118.479c3.193-.639,5.269-1.277,6.068-2.076l1.118,1.437a4.421,4.421,0,0,0-1.437.16,54.258,54.258,0,0,0-5.589.958v2.874h5.429l.8-.8,1.118,1.277ZM24.161,235.295a6.945,6.945,0,0,1-.958-1.118,4.852,4.852,0,0,1-.8-1.118c-.16-.319-.319-.639-.16-.639a2.758,2.758,0,0,1,.639.479,4.3,4.3,0,0,0,1.277,1.118,6.762,6.762,0,0,1,1.118.8c.319.16.479.479.639.639v.639c0,.16-.16.16-.479.16a4.062,4.062,0,0,0-1.118.319,2.455,2.455,0,0,0-.958.639,1.439,1.439,0,0,0-.16.8,4.062,4.062,0,0,0,.319,1.118,3.348,3.348,0,0,0,.958,1.277,14.729,14.729,0,0,1,.8,1.277,3.189,3.189,0,0,1,.319,1.437,2.7,2.7,0,0,1-.479,1.6,1.851,1.851,0,0,1-1.6.639,2.564,2.564,0,0,1-1.756-.8c-.479-.479-.8-.8-.8-.958s.319,0,.958.319a1.95,1.95,0,0,0,1.437.639,2.27,2.27,0,0,0,.958-.319,1.243,1.243,0,0,0,.479-1.118,4.662,4.662,0,0,0-.319-1.437c-.319-.479-.479-.958-.8-1.437a6.472,6.472,0,0,1-.8-1.437,1.889,1.889,0,0,1-.16-1.6q-.24-.719,1.437-1.916Zm.958,65.626a3.945,3.945,0,0,0-1.437-.639,2.215,2.215,0,0,0-1.437,0,1.205,1.205,0,0,0-1.118.639,1.459,1.459,0,0,0-.479.8,1.207,1.207,0,0,0,.16.639,1.594,1.594,0,0,0,.8.639,2.717,2.717,0,0,0,1.118.16h.8c.319,0,.639-.319.958-.639a2.581,2.581,0,0,0,.639-1.6ZM21.766,155.139c-.319-.16-.479-.319-.319-.319h.639a4.586,4.586,0,0,0,1.916.319c.958.16,1.6.16,1.916.479.319.16.639.319.639.479a.587.587,0,0,1,.16.479c0,.16-.319.319-.8.319a7.159,7.159,0,0,0-1.756.16,5.1,5.1,0,0,1-1.118.16s0-.16.319-.319a3.49,3.49,0,0,0,.8-.479l.319-.319c0-.16-.16-.16-.639-.319a2.308,2.308,0,0,1-1.118-.319A2.27,2.27,0,0,1,21.766,155.139Zm.8,174.842h0a1.207,1.207,0,0,1,.639-.16c.319,0,.479.16.8.479.319.16.319.479.319.8a2.717,2.717,0,0,0-.16,1.118v6.706c0,.16.319,0,.8-.319s1.118-.8,1.756-1.277a19.139,19.139,0,0,0,1.916-1.756,8.466,8.466,0,0,0,1.6-1.916,5.763,5.763,0,0,1,.639-.8,3.6,3.6,0,0,1-.319,1.118,8.422,8.422,0,0,1-1.6,2.235l-2.076,2.076c-.8.479-1.277.958-1.756,1.277a5.064,5.064,0,0,0-.958.8.587.587,0,0,1-.479.16c-.16,0-.16,0-.319-.16l-.479-.479a1.207,1.207,0,0,1-.16-.639c.16-.16.16-.639.16-1.277v-6.227a3.008,3.008,0,0,0-.319-1.277v-.479Zm2.874-227.694a14.613,14.613,0,0,0,2.076,5.589,20.354,20.354,0,0,0,2.235-5.589ZM26.4,349.62c-.319-.16-.319-.319-.319-.319h.16a2.809,2.809,0,0,1,.958.16c.479.16.8.319,1.277.479a.878.878,0,0,1,.479.8c0,.319,0,.479-.16.639,0,.16-.16.16-.319.16s-.16,0-.319-.16c-.16-.319-.479-.479-.8-.8-.479-.479-.8-.639-.958-.958Zm1.756-77.282a3.483,3.483,0,0,0-.639-.8,1.924,1.924,0,0,0-.8-.8l-.16-.16v-.16h.16a1.591,1.591,0,0,1,.639.16c.319.16.8.319,1.118.479a.878.878,0,0,1,.479.8c0,.319,0,.479-.16.639a.5.5,0,0,1-.319.16c-.16,0-.16-.16-.319-.319Zm0,114.965a3.483,3.483,0,0,0-.639-.8,1.924,1.924,0,0,0-.8-.8l-.16-.16v-.16h.16a1.591,1.591,0,0,1,.639.16c.319.16.8.319,1.118.479a.878.878,0,0,1,.479.8c0,.319,0,.479-.16.639a.5.5,0,0,1-.319.16c-.16,0-.16-.16-.319-.319ZM29.59,277.129a8.466,8.466,0,0,0-2.076-2.555,3.545,3.545,0,0,1-.639-.8h0a3.988,3.988,0,0,1,1.277.639,10.994,10.994,0,0,1,2.076,1.756,2.918,2.918,0,0,1,.958,1.6v.8a3.117,3.117,0,0,1-.16,1.118,3.491,3.491,0,0,1-.479.8c-.16.16-.319.319-.479.319s-.319-.16-.479-.319a4.234,4.234,0,0,0-.958-.8c-.319-.319-.8-.479-1.118-.8a.494.494,0,0,0-.319-.16h.639a10.187,10.187,0,0,1,1.437.319.83.83,0,0,0,.639-.319C30.069,278.406,29.909,277.927,29.59,277.129Zm0,114.965a8.466,8.466,0,0,0-2.076-2.555,3.543,3.543,0,0,1-.639-.8h0a3.99,3.99,0,0,1,1.277.639,10.992,10.992,0,0,1,2.076,1.756,2.918,2.918,0,0,1,.958,1.6v.8a3.117,3.117,0,0,1-.16,1.118,3.489,3.489,0,0,1-.479.8c-.16.16-.319.319-.479.319s-.319-.16-.479-.319a4.235,4.235,0,0,0-.958-.8c-.319-.319-.8-.479-1.118-.8a.5.5,0,0,0-.319-.16h.639a10.184,10.184,0,0,1,1.437.319.83.83,0,0,0,.639-.319C30.069,393.371,29.909,392.892,29.59,392.093Zm-2.076-151.37c-.479-.479-.639-.639-.639-.8s.479.16,1.277.639a4.322,4.322,0,0,1,1.756,1.6,1.365,1.365,0,0,1,.479,1.437,1.707,1.707,0,0,1-.479.8c-.16.16-.479,0-.639-.479a6.471,6.471,0,0,0-.8-1.437A3.154,3.154,0,0,0,27.514,240.723Zm.319,107.62c-.319-.319-.479-.319-.319-.479a2.8,2.8,0,0,1,.8.16,3.814,3.814,0,0,1,1.118.479,1.246,1.246,0,0,1,.639.639.494.494,0,0,1,.16.319.587.587,0,0,1-.16.479c-.16.16-.16.319-.319.319s-.16-.16-.319-.319a3.34,3.34,0,0,1-.639-.958c-.479,0-.639-.319-.958-.639ZM28.792,223c.319,0,.479.16.8.319a1.2,1.2,0,0,1,0,1.916,2.7,2.7,0,0,1-.8.319c-.16,0-.319-.16-.639-.319a1.466,1.466,0,0,1-.639-.958.966.966,0,0,1,.479-.958c.319-.16.479-.319.8-.319Zm1.118-8.622c0,.479-.16,1.916-.479,4.152-.16,2.235-.479,3.353-.639,3.353s-.319-1.118-.639-3.353-.319-3.673-.479-4.311c0-.639.16-.958.479-1.118a.989.989,0,0,1,1.277.16A1.243,1.243,0,0,1,29.909,214.377Zm-1.6,54.768h.319a1.736,1.736,0,0,1,.8.16l.958.479a.856.856,0,0,1,.479.639c0,.319,0,.479-.16.639l-.319.319q-.24,0-.479-.479a4.3,4.3,0,0,0-1.118-1.277q-.479-.239-.479-.479Zm0,114.965h.319a1.736,1.736,0,0,1,.8.16l.958.479a.856.856,0,0,1,.479.639c0,.319,0,.479-.16.639l-.319.319q-.24,0-.479-.479a4.3,4.3,0,0,0-1.118-1.277q-.479-.24-.479-.479Z" transform="translate(-0.073 28.846)" fill="#4dc4ef"/>
    <path id="Path_662" data-name="Path 662" d="M19.931,291.858a8,8,0,0,0-1.118,1.277h3.353l.958-.958,1.277,1.277H19.931a14.251,14.251,0,0,1,1.6.8.638.638,0,0,1,.319.639.96.96,0,0,1-.16.639c-.319.319-.479.319-.479.319a.343.343,0,0,1-.319-.319,4,4,0,0,0-.639-1.118,5.1,5.1,0,0,0-.958-1.118h-.639a16.947,16.947,0,0,1-3.193,2.714H15.3a12.328,12.328,0,0,0,2.4-3.034,18.875,18.875,0,0,0,.958-2.076Zm-3.193,16.766V295.69l1.277.639h3.672l.639-.639.958.958-.639.319V300.8l-.958.319v-.479H17.855v7.5Zm.958-11.816v1.437h3.832v-1.437Zm0,1.916v1.437h3.832v-1.437Zm2.555,2.555,1.118.479h4.471l.639-.639,1.118,1.118-.639.319v3.672l-.958.479v-.639h-4.79v.319l-.958.479v-5.589Zm.958.958v1.437H26v-1.437ZM26,305.59v-1.437h-4.79v1.437Zm.958-13.892a4.859,4.859,0,0,0-1.277,1.277h3.672l.958-.958,1.437,1.437H26.477a5.633,5.633,0,0,1,1.916.8c.319.319.479.479.479.8a1.211,1.211,0,0,1-.319.639l-.319.319a.343.343,0,0,1-.319-.319c-.319-.319-.479-.639-.8-.958a10.43,10.43,0,0,0-1.277-1.118h-.319a6.082,6.082,0,0,0-.8.958,9.635,9.635,0,0,1-1.277,1.277h-.319a19.355,19.355,0,0,0,1.6-2.555,11.085,11.085,0,0,0,.8-2.076Zm-.639,15.329c1.118.16,1.916.319,2.235.319.479,0,.639-.16.639-.639V300.64H25.2v.16l-.958.319V295.85l1.118.639h3.832l.639-.8,1.118.958-.639.319v10.379a.878.878,0,0,1-.479.8,7.778,7.778,0,0,1-1.118.479,3.481,3.481,0,0,0-.639-.8,15.883,15.883,0,0,0-1.756-.639Zm-.958-10.219v1.437h3.992v-1.437Zm0,1.916v1.437h3.992v-1.437Z" transform="translate(0.166 163.29)" fill="#4dc4ef"/>
    <path id="Path_663" data-name="Path 663" d="M29.092,315.521v1.756l-1.118.319v-.958H23.982v2.076h5.429l1.277-1.277,1.6,1.6h-8.3v3.832l-1.118.479v-4.311H17.6a5.985,5.985,0,0,0-1.756.16l-.639-.639h7.824v-2.076H19.351v.639l-1.118.319v-7.664l1.118.639h6.387a16.982,16.982,0,0,0,2.076-4.311l1.6,1.118-.639.319c-.639.639-1.437,1.6-2.555,2.874h1.756l.479-.639,1.277.958-.639.479v4.311Zm-8.463-5.589a14.6,14.6,0,0,0-1.916-2.714l.16-.16a11.784,11.784,0,0,1,2.076,1.277c.479.479.8.8.8,1.118,0,.16-.16.319-.319.639s-.319.479-.479.479a.829.829,0,0,1-.319-.639Zm-1.277,1.437V313.6h3.672v-2.235Zm0,2.555v2.4h3.672v-2.4Zm4.311-4.311a12.059,12.059,0,0,0-1.277-2.874l.319-.16c1.277,1.118,2.076,1.756,2.076,2.235a2.308,2.308,0,0,1-.319,1.118,1.975,1.975,0,0,0-.479.319.83.83,0,0,1-.319-.639Zm.479,1.756V313.6h3.992v-2.235Zm0,2.555v2.4h3.992v-2.4Z" transform="translate(0.106 172.361)" fill="#4dc4ef"/>
    <path id="Path_664" data-name="Path 664" d="M17.139,323.66q0-.24.479,0a2.205,2.205,0,0,1,.639.479c.16.319.319.479.319.639a.96.96,0,0,1-.16.639,4.782,4.782,0,0,0-.639,1.6c-.16.639-.319,1.118-.479,1.756a7.16,7.16,0,0,0-.16,1.756v1.118a3.57,3.57,0,0,0,.479,1.6c.319-.479.479-1.118.8-1.6a2.469,2.469,0,0,0,.479-.958.156.156,0,0,1,.16.16v.639a5.926,5.926,0,0,0-.319,1.437c0,.319-.16.8-.16,1.118v.8c0,.319,0,.479-.16.479s-.319-.16-.639-.479a2.978,2.978,0,0,1-.8-1.6,5.332,5.332,0,0,1-.479-2.4,10.343,10.343,0,0,1,.319-3.034c.319-.958.479-1.756.639-2.4a1.749,1.749,0,0,0,0-1.277A.567.567,0,0,1,17.139,323.66Zm3.513,8.463a1.813,1.813,0,0,1,.479-1.277,4.726,4.726,0,0,1,.479-.639,4.468,4.468,0,0,1-.16.958,2.025,2.025,0,0,0-.16.958,2.27,2.27,0,0,0,.319.958c.16.479.639.639,1.277.958a10.862,10.862,0,0,0,2.4.319,5.1,5.1,0,0,0,2.235-.479,1.44,1.44,0,0,1,.8-.16c.16,0,.319.16.479.319a.638.638,0,0,1-.319.639,1.572,1.572,0,0,1-1.277.479c-.639,0-1.118.16-1.6.16H24a3.64,3.64,0,0,1-1.756-.479,4.3,4.3,0,0,1-1.277-1.118A3.158,3.158,0,0,1,20.651,332.122Zm3.513-7.984a12.957,12.957,0,0,0,1.756-.479,2.025,2.025,0,0,1,.958-.16,1.129,1.129,0,0,1,.958.958c0,.16-.16.319-.479.319a2.548,2.548,0,0,0-1.277.479,14.722,14.722,0,0,1-1.277.8,9.791,9.791,0,0,1-.958.639c-.16.16-.319.16-.16,0,0-.16.319-.479.8-.958l.958-.958.319-.319q0-.24-.479,0c-.479.16-.958.319-1.6.479a1.707,1.707,0,0,1-1.277,0q-.479-.24-.479-.479c0-.16.16-.319.639-.16A2.878,2.878,0,0,0,24.164,324.139Z" transform="translate(0.882 182.744)" fill="#4dc4ef"/>
    <g id="Group_308" data-name="Group 308" transform="translate(0 -10)">
      <text id="_" data-name="・" transform="translate(35.167 470.86) rotate(90)" fill="#4dc4ef" font-size="10" font-family="MS-PGothic, MS PGothic"><tspan x="0" y="0">・</tspan></text>
      <text id="_2" data-name="・" transform="translate(35.167 494.86) rotate(90)" fill="#4dc4ef" font-size="10" font-family="MS-PGothic, MS PGothic"><tspan x="0" y="0">・</tspan></text>
      <text id="_3" data-name="・" transform="translate(35.167 518.86) rotate(90)" fill="#4dc4ef" font-size="10" font-family="MS-PGothic, MS PGothic"><tspan x="0" y="0">・</tspan></text>
    </g>
    <path id="Path_665" data-name="Path 665" d="M19.75,337.439l.639-.639c1.916.639,3.034,1.437,3.353,2.076.319.8.8,1.916,1.437,3.672a17.748,17.748,0,0,0,2.714,5.11,9.751,9.751,0,0,0,4.631,3.513v.319a2.276,2.276,0,0,0-1.916.958,19.321,19.321,0,0,1-3.193-3.034,19.123,19.123,0,0,1-2.076-3.353A33.783,33.783,0,0,1,23.9,341.75a22.533,22.533,0,0,1-3.034,6.227,21.8,21.8,0,0,1-5.908,5.269l-.16-.319a29.663,29.663,0,0,0,5.429-5.589,23.992,23.992,0,0,0,2.874-6.866,1.632,1.632,0,0,0-.639-1.6A8.617,8.617,0,0,0,19.75,337.439ZM24.54,356.6a33.423,33.423,0,0,0-.16,3.832h5.589l.639-.8,1.277,1.118-.8.639c-.319,3.672-.479,6.227-.639,7.5a4.792,4.792,0,0,1-1.118,2.714,4.23,4.23,0,0,1-2.235,1.118c.16-.639-.639-1.437-2.4-2.235v-.319a15.232,15.232,0,0,0,2.714.639c.479,0,.958-.319,1.277-1.118s.639-3.672,1.118-8.622H24.061a21.01,21.01,0,0,1-1.277,4.79,12.67,12.67,0,0,1-2.714,3.992,13.921,13.921,0,0,1-4.79,3.193v-.319a15.12,15.12,0,0,0,4.151-3.513,13.911,13.911,0,0,0,2.4-4.151,20.573,20.573,0,0,0,.958-3.992H19.111a5.986,5.986,0,0,0-1.756.16l-.639-.639H23.1a28.086,28.086,0,0,0,0-5.269l1.916.8Zm-3.034,21.715c1.916-.479,3.353-.8,4.471-1.118a8.062,8.062,0,0,1,2.4-.319,1.527,1.527,0,0,1,1.118.319c.16.319.319.479.319.639s-.16.16-.479.16a5.5,5.5,0,0,0-1.437.16,8.893,8.893,0,0,0-2.4,1.277,8.37,8.37,0,0,0-2.076,2.076,6.5,6.5,0,0,0-.958,1.756,4.232,4.232,0,0,0-.16,2.076,3.505,3.505,0,0,0,.8,1.916,3.314,3.314,0,0,0,1.6.958,5.5,5.5,0,0,0,1.437.16,1.2,1.2,0,0,1,.8.16l.479.479a.586.586,0,0,1-.16.479c-.16.16-.479.16-.958.16H25.179a4.427,4.427,0,0,1-1.916-.8,3.729,3.729,0,0,1-1.6-1.916,5.512,5.512,0,0,1-.479-2.076,14.236,14.236,0,0,1,.319-1.756,6.222,6.222,0,0,1,1.6-2.714,11.766,11.766,0,0,1,3.672-2.874,19.487,19.487,0,0,0-4.79,1.118,23.819,23.819,0,0,1-3.672.958.878.878,0,0,1-.8-.479c-.319-.319-.319-.479-.319-.639s.319-.16.958,0C18.313,378.954,19.59,378.794,21.506,378.315Zm2.076,55.247c0-.16.16-.16.479-.16a1.44,1.44,0,0,1,.8.16c.319.16.479.16.479.319s.16.16.16.319v.319a7.3,7.3,0,0,0-.16,2.4c1.916-.319,3.034-.319,3.513-.479h1.118a2.025,2.025,0,0,1,.958.16c.319.16.479.16.479.319a.557.557,0,0,0,.16.319c0,.16-.16.16-.479.16H29.011a29.254,29.254,0,0,0-3.353.319v2.555a9.136,9.136,0,0,1,.16,2.235,4.686,4.686,0,0,1-.639,2.555,6.076,6.076,0,0,1-1.437,2.076,13.316,13.316,0,0,1-1.916,1.277,2.758,2.758,0,0,1-1.118.319c-.16,0-.16,0-.16-.16a1.747,1.747,0,0,1,.639-.319,7.725,7.725,0,0,0,1.916-1.6,5.645,5.645,0,0,0,1.6-2.874,2.194,2.194,0,0,1-1.277.8,1.242,1.242,0,0,1-1.277-.319,3.21,3.21,0,0,1-.639-1.277,2.707,2.707,0,0,1,0-1.6,3.209,3.209,0,0,1,.639-1.277,1.616,1.616,0,0,1,1.118-.639,2.073,2.073,0,0,1,1.6.319v-2.076q-2.156.24-3.353.479a16.59,16.59,0,0,0-1.916.479h-.8c-.319,0-.479,0-.639-.16s-.319-.16-.479-.479a.5.5,0,0,1-.16-.319c0-.16.319-.16.958-.16a15.545,15.545,0,0,0,2.555-.16c.958-.16,2.4-.319,3.992-.639,0-1.118-.16-1.916-.16-2.235-.16-.319-.16-.479-.319-.639a2.195,2.195,0,0,1-.958-.32Zm-2.874-37.842c0-.16.16-.16.319-.16h.8c.319,0,.639.16.639.319A4.062,4.062,0,0,0,22.784,397c.16.479.479.958.639,1.437a14.836,14.836,0,0,0,1.6-.8A9.159,9.159,0,0,1,26.137,397a.725.725,0,0,1,.8,0c.319.16.319.16.319.319s-.479.319-1.118.8a9.759,9.759,0,0,1-2.235,1.118,13.326,13.326,0,0,0,1.277,1.916,8.91,8.91,0,0,0,1.277-.8,3.34,3.34,0,0,0,.958-.639.587.587,0,0,1,.479-.16h.479a.156.156,0,0,1,.16.16c0,.16-.16.16-.479.479a9.159,9.159,0,0,0-1.118.639c-.479.319-.958.479-1.756.958a25.985,25.985,0,0,0,2.235,2.874c.319.319.479.639.639.639v.958c0,.16-.16.319-.319.479s-.479,0-.8-.319a10.629,10.629,0,0,0-1.916-.958,7.941,7.941,0,0,0-2.555-.479,3.968,3.968,0,0,0-1.277.16,2.378,2.378,0,0,0-1.437.639,1.242,1.242,0,0,0-.319,1.277,3.771,3.771,0,0,0,.958,1.437,3.122,3.122,0,0,0,2.235.639,7.205,7.205,0,0,0,2.076-.16,3.968,3.968,0,0,1,1.277-.16c.319,0,.479,0,.639.16,0,.16-.16.319-.479.639a3.009,3.009,0,0,1-1.437.639,8.434,8.434,0,0,1-2.076.16,4.42,4.42,0,0,1-2.076-.479,5.733,5.733,0,0,1-1.6-1.118,3.042,3.042,0,0,1-.8-1.6,1.532,1.532,0,0,1,.479-1.6,3.167,3.167,0,0,1,2.076-.958,10.56,10.56,0,0,1,1.756-.16,12.647,12.647,0,0,1,3.832.8c-.639-.8-1.277-1.756-2.076-2.874-.639.16-1.277.319-1.756.479-.479,0-.958.16-1.277.16a2.025,2.025,0,0,1-.958-.16c-.319,0-.479-.16-.639-.16a.156.156,0,0,1-.16-.16h.639a7.159,7.159,0,0,0,1.756-.16l1.916-.479c-.479-.639-.8-1.277-1.277-1.916a9.3,9.3,0,0,1-2.235.479,2.307,2.307,0,0,1-1.118-.319,1.974,1.974,0,0,1-.479-.319,1.913,1.913,0,0,1,1.118,0,6.407,6.407,0,0,0,2.4-.479c-.479-.8-.8-1.277-.958-1.6a3.482,3.482,0,0,0-.639-.8c-.16-.16.16-1.118.16-1.277Zm2.714,18.841c-.16-.319,0-.319.479-.319a2.27,2.27,0,0,1,.958.319c.319.16.319.319.319.639a2.368,2.368,0,0,0-.16,1.118v1.437c.639-.16,1.118-.319,1.6-.479a7.8,7.8,0,0,0,1.118-.479c.16,0,.319-.16.479-.16s.16,0,.319.16.319.16.319.319-.16.319-.479.479c-.479.16-.8.319-1.277.479a16.552,16.552,0,0,1-1.916.479v2.555a5.387,5.387,0,0,0,1.916-.639,2.7,2.7,0,0,1,.8-.319h.479c.16.16.319.16.319.319s-.16.16-.479.319a5.4,5.4,0,0,1-1.277.479c-.479.16-1.118.319-1.756.479v3.193a20.887,20.887,0,0,1,2.076,1.118c.479.319.8.639,1.118.8a2.8,2.8,0,0,1,.639.8c0,.319,0,.479-.16.639s-.16.319-.319.319-.319-.16-.639-.479l-1.277-1.277a13.811,13.811,0,0,0-1.6-1.118,3.715,3.715,0,0,1-1.118,2.076,3.069,3.069,0,0,1-1.916.639,4.007,4.007,0,0,1-1.6-.319c-.479-.16-.639-.479-.8-.958a2.373,2.373,0,0,1-.16-.958,2.96,2.96,0,0,1,.319-1.118c.319-.479.8-.639,1.756-.8a5.943,5.943,0,0,1,2.874.319v-2.714H21.826a1.22,1.22,0,0,1-.8-.319l-.319-.319q0-.24.479,0h1.277c.319,0,.958-.16,1.756-.16v-2.555H22.943a3.116,3.116,0,0,1-1.118-.16,1.712,1.712,0,0,1-.958-.319c-.319-.16-.319-.319-.319-.319q0-.24.479,0h1.6a3.964,3.964,0,0,0,1.437-.16v-1.437a2.368,2.368,0,0,0-.16-1.118C23.582,415.04,23.582,414.88,23.422,414.561Zm.319,11.017a4.061,4.061,0,0,0-1.118-.319H21.506a4.061,4.061,0,0,0-1.118.319,1.223,1.223,0,0,0-.479,1.756,1.427,1.427,0,0,0,1.277.639,2.626,2.626,0,0,0,1.6-.319,3.609,3.609,0,0,0,.958-2.076Zm.16,14.53a.96.96,0,0,0-.639-.16c-.319,0-.479.16-.8.479a1.38,1.38,0,0,0-.479.958V442.5a1.38,1.38,0,0,0,.479.958c.16.319.479.319.8.16a1.594,1.594,0,0,0,.8-.639,2.308,2.308,0,0,0,.319-1.118v-1.118A2.2,2.2,0,0,0,23.9,440.108Zm3.034-58.44c-.319-.319-.319-.319-.319-.479a2.472,2.472,0,0,1,.958.319,8.91,8.91,0,0,1,1.277.8.879.879,0,0,1,.319.8.829.829,0,0,1-.319.639c-.16.16-.479,0-.639-.319a4.969,4.969,0,0,0-.639-.958A3.484,3.484,0,0,1,26.935,381.668Zm1.916,70.895a3.117,3.117,0,0,1,1.118.16,1.924,1.924,0,0,1,.8.8,2.809,2.809,0,0,1,.16.958,1.736,1.736,0,0,1-.16.8,3.341,3.341,0,0,1-.639.958,1.72,1.72,0,0,1-1.277.319,1.452,1.452,0,0,1-1.277-.639,1.452,1.452,0,0,1-.639-1.277,1.72,1.72,0,0,1,.319-1.277c.319-.319.479-.639.8-.8.319.16.479,0,.8,0Zm0,3.513a2.27,2.27,0,0,0,.958-.319c.319-.16.479-.639.479-1.277s-.16-.958-.639-1.118a2.27,2.27,0,0,0-.958-.319,2.27,2.27,0,0,0-.958.319,1.243,1.243,0,0,0-.479,1.118,1.069,1.069,0,0,0,.639,1.118,1.243,1.243,0,0,0,.958.479Zm-.16-75.525c-.319-.16-.319-.319-.319-.479a2.794,2.794,0,0,1,.8.16,3.476,3.476,0,0,1,1.277.8,1.459,1.459,0,0,1,.479.8c0,.319-.16.479-.16.639a.156.156,0,0,0-.16.16c-.16,0-.319-.16-.479-.319-.16-.319-.479-.639-.639-.958-.319-.319-.639-.479-.8-.8Z" transform="translate(-0.133 190.68)" fill="#4dc4ef"/>
    <g id="Group_313" data-name="Group 313" transform="translate(-680.429 -56.971)">
      <g id="Group_310" data-name="Group 310" transform="translate(698.596 103.294)">
        <path id="Path_713" data-name="Path 713" d="M708.782,105.444h-4.19v2.33a1.9,1.9,0,0,0,.274,1.212,1.765,1.765,0,0,0,1.266.454v.288h-3.689v-.288a4.124,4.124,0,0,0,.993-.219.988.988,0,0,0,.43-.462,2.355,2.355,0,0,0,.156-.985v-2.33h-3.495a3.305,3.305,0,0,0-.858.061.5.5,0,0,0-.241.219,1.336,1.336,0,0,0-.089.6v1.8a4.894,4.894,0,0,0,.125,1.306,1.968,1.968,0,0,0,.492.782,6.03,6.03,0,0,0,1.462.993v.312l-2.658-.914v-8.17h.29v.375a1.48,1.48,0,0,0,.179.711.662.662,0,0,0,.376.34,3.657,3.657,0,0,0,1.023.091h6.888a2.273,2.273,0,0,0,1.244-.2,1.211,1.211,0,0,0,.312-.938v-.375h.29v8.17l-2.322.117v-.306a3.679,3.679,0,0,0,1.149-.363,1.252,1.252,0,0,0,.478-.591,3.569,3.569,0,0,0,.116-1.1Z" transform="translate(-698.541 -102.426)" fill="#4dc4ef"/>
        <path id="Path_714" data-name="Path 714" d="M709.361,118.668,699.4,111.7v4.347a2.38,2.38,0,0,0,.438,1.537,3.777,3.777,0,0,0,1.775.95l-.047.258-2.806-.5v-8.631h.29l9.677,6.8v-3.393a2.983,2.983,0,0,0-.184-1.224,1.3,1.3,0,0,0-.532-.579,4.461,4.461,0,0,0-1.3-.363v-.3l2.65.219Z" transform="translate(-698.541 -100.007)" fill="#4dc4ef"/>
        <path id="Path_715" data-name="Path 715" d="M709.361,125.982l-2.486.117v-.3a3.02,3.02,0,0,0,.938-.234,1.577,1.577,0,0,0,.667-.646,2.256,2.256,0,0,0,.216-1.059v-1.493h-8.1a2.172,2.172,0,0,0-1.219.211,1.176,1.176,0,0,0-.328.915v.367h-.29v-4.5h.29v.375a1.076,1.076,0,0,0,.406.954,2.371,2.371,0,0,0,1.142.172h8.1V119.6a3.539,3.539,0,0,0-.109-1.055,1.444,1.444,0,0,0-.571-.7,2.3,2.3,0,0,0-1.141-.344v-.3l2.486.125Z" transform="translate(-698.541 -97.487)" fill="#4dc4ef"/>
        <path id="Path_716" data-name="Path 716" d="M706.132,126.6h-5.753a2.64,2.64,0,0,0-.9.1.675.675,0,0,0-.331.29,1.537,1.537,0,0,0-.109.7h-.282v-3.478h.282a1.616,1.616,0,0,0,.1.7.7.7,0,0,0,.336.286,2.521,2.521,0,0,0,.9.105h2.759a9.772,9.772,0,0,0,1.509-.071.6.6,0,0,0,.347-.172.489.489,0,0,0,.1-.32,1.552,1.552,0,0,0-.117-.531l.282-.109.875,2.158Zm3.745-.65a.79.79,0,0,1-.79.79.775.775,0,0,1-.563-.231.756.756,0,0,1-.235-.559.8.8,0,0,1,.8-.8.758.758,0,0,1,.558.23A.775.775,0,0,1,709.877,125.954Z" transform="translate(-698.541 -95.18)" fill="#4dc4ef"/>
        <path id="Path_717" data-name="Path 717" d="M708.3,129.648h-2.354v1.673H705.4v-1.673h-4.645a1.567,1.567,0,0,0-.938.2.634.634,0,0,0-.242.512.893.893,0,0,0,.159.5,1.031,1.031,0,0,0,.474.375v.306a2.455,2.455,0,0,1-1.154-.774,1.672,1.672,0,0,1-.386-1.033,1.394,1.394,0,0,1,.2-.7,1.2,1.2,0,0,1,.571-.508,3.008,3.008,0,0,1,1.146-.164H705.4v-1.133h.257a2.988,2.988,0,0,0,.582.879,4.63,4.63,0,0,0,.974.8,8.721,8.721,0,0,0,1.087.5Z" transform="translate(-698.571 -94.137)" fill="#4dc4ef"/>
        <path id="Path_718" data-name="Path 718" d="M709.877,133.31h-9.5a2.593,2.593,0,0,0-.891.1.692.692,0,0,0-.333.3,1.73,1.73,0,0,0-.112.759h-.282v-3.51h.282a1.514,1.514,0,0,0,.1.672.681.681,0,0,0,.336.282,2.648,2.648,0,0,0,.9.1h6.5a11.344,11.344,0,0,0,1.488-.055.649.649,0,0,0,.38-.176.464.464,0,0,0,.1-.308,1.442,1.442,0,0,0-.125-.516l.275-.133.875,2.135Z" transform="translate(-698.541 -92.934)" fill="#4dc4ef"/>
        <path id="Path_719" data-name="Path 719" d="M703.278,135.38a3.679,3.679,0,0,0-2.5.774,2.357,2.357,0,0,0-.906,1.837,1.988,1.988,0,0,0,.386,1.224,2.865,2.865,0,0,0,1.326.871l-.156.243a3.735,3.735,0,0,1-1.952-.954,2.545,2.545,0,0,1-.878-1.979,2.887,2.887,0,0,1,1-2.208,3.849,3.849,0,0,1,2.7-.918,4.082,4.082,0,0,1,2.865.942,3.073,3.073,0,0,1,1.029,2.364,2.639,2.639,0,0,1-.8,1.977,2.9,2.9,0,0,1-2.122.775Zm.454,0v3.314a3.11,3.11,0,0,0,.97-.164,1.547,1.547,0,0,0,.687-.583,1.465,1.465,0,0,0,.251-.809,1.615,1.615,0,0,0-.506-1.161A2.182,2.182,0,0,0,703.732,135.38Z" transform="translate(-698.596 -91.782)" fill="#4dc4ef"/>
        <path id="Path_720" data-name="Path 720" d="M706.187,144.1h-2.439v-.258a3.172,3.172,0,0,0,1.564-.763,1.712,1.712,0,0,0,.414-1.184,1.312,1.312,0,0,0-.288-.885.841.841,0,0,0-.642-.336,1.162,1.162,0,0,0-.75.251,2.788,2.788,0,0,0-.68.985l-.555,1.142a2.32,2.32,0,0,1-2.04,1.586,1.927,1.927,0,0,1-1.577-.739,2.557,2.557,0,0,1-.6-1.653,5.693,5.693,0,0,1,.233-1.5,1.481,1.481,0,0,0,.079-.422.312.312,0,0,0-.2-.282v-.259h2.557v.259a2.909,2.909,0,0,0-1.651.837,2.019,2.019,0,0,0-.555,1.384,1.242,1.242,0,0,0,.316.879,1,1,0,0,0,.763.34,1.215,1.215,0,0,0,.907-.379,6.674,6.674,0,0,0,.93-1.513,4.475,4.475,0,0,1,1.017-1.485,1.757,1.757,0,0,1,1.125-.352,1.985,1.985,0,0,1,1.478.606,2.143,2.143,0,0,1,.594,1.568,3.684,3.684,0,0,1-.18,1.025,2.473,2.473,0,0,0-.117.531.3.3,0,0,0,.056.195.718.718,0,0,0,.241.165Z" transform="translate(-698.596 -89.951)" fill="#4dc4ef"/>
      </g>
      <g id="Group_311" data-name="Group 311" transform="translate(718.469 99.83)">
        <path id="Path_721" data-name="Path 721" d="M719.059,103.538a2.088,2.088,0,0,0,.594.282c.084.021.125.052.125.095a.621.621,0,0,1-.14.249.615.615,0,0,1-.3.235.163.163,0,0,1-.219-.079,5.3,5.3,0,0,0-.407-.438q-.344-.312-1.094-1.063-.25.376-.47.314a2.188,2.188,0,0,0-.484-.079c-.177-.011-.479-.016-.907-.016s-.807.011-1.141.032a6.811,6.811,0,0,1-.782-.032.456.456,0,0,1-.328-.14c-.052-.073.005-.145.172-.219a1.166,1.166,0,0,1,.468-.109,1.206,1.206,0,0,1,.282.031,5.462,5.462,0,0,0,.986.063q.672,0,1.141-.016a3.49,3.49,0,0,0,.813-.109,6.361,6.361,0,0,1-.468-.594,7.563,7.563,0,0,1-.484-.813,5.778,5.778,0,0,1-.391-.877.98.98,0,0,1-.095-.422c.021-.031.141.156.36.563a10.339,10.339,0,0,0,.859,1.313,7.729,7.729,0,0,0,1.049,1.157A7.228,7.228,0,0,0,719.059,103.538Z" transform="translate(-713.49 -99.83)" fill="#4dc4ef"/>
        <path id="Path_722" data-name="Path 722" d="M716.856,111.825a.9.9,0,0,1-.312.359.84.84,0,0,1-.3.172c-.063,0-.073-.063-.031-.188a11.692,11.692,0,0,0,.062-1.562q0-1.221-.11-2.408a14.429,14.429,0,0,0-.171-1.438,3.67,3.67,0,0,1-.079-.454.725.725,0,0,1,.2-.454,1.836,1.836,0,0,1,.313-.344.336.336,0,0,1,.124-.063c.084,0,.115.136.095.407q-.064.5-.095,1.61a17.4,17.4,0,0,0,.109,2.376,13.225,13.225,0,0,0,.2,1.454,1.038,1.038,0,0,1,.063.251A.834.834,0,0,1,716.856,111.825Z" transform="translate(-712.679 -97.953)" fill="#4dc4ef"/>
        <path id="Path_723" data-name="Path 723" d="M715.7,115.171q.392.484.8.922t.938.907q.5.468.438.5a2.174,2.174,0,0,1-.687-.375,6.9,6.9,0,0,1-1.345-1.22,10.046,10.046,0,0,1-1.189-1.626,7.924,7.924,0,0,0-.626-.938,1.278,1.278,0,0,1-.172-.267c-.031-.072.027-.187.172-.343s.256-.235.328-.235.12.073.141.219a2.381,2.381,0,0,0,.079.547,3.373,3.373,0,0,0,.406.875A9.071,9.071,0,0,0,715.7,115.171Zm1.657-3.128c.032.011-.02.193-.156.547a3.3,3.3,0,0,1-.391.782.637.637,0,0,1-.375.282.387.387,0,0,1-.3-.047c-.072-.052-.109-.1-.109-.141a.185.185,0,0,1,.095-.156c.124-.1.233-.2.328-.282s.2-.192.328-.328.25-.276.375-.422C717.261,112.111,717.329,112.033,717.359,112.043Zm1.517.531c.041-.009-.005.177-.14.563a3.783,3.783,0,0,1-.376.829.578.578,0,0,1-.359.282.392.392,0,0,1-.282-.031c-.063-.041-.093-.084-.093-.125a.249.249,0,0,1,.124-.187c.147-.147.287-.3.423-.454s.276-.339.422-.547S718.835,112.585,718.877,112.574Zm-.047,2.941c.2-.177.3-.251.312-.22a1.327,1.327,0,0,1-.172.423,1.747,1.747,0,0,1-.328.5.38.38,0,0,1-.3.109.365.365,0,0,1-.251-.125c-.063-.073,0-.161.188-.266A4.128,4.128,0,0,0,718.83,115.515Zm.8.359c.02.021-.027.161-.141.422a2.219,2.219,0,0,1-.3.532.372.372,0,0,1-.281.14.57.57,0,0,1-.188-.047c-.084-.031-.125-.068-.125-.109,0-.02.021-.052.063-.093.1-.084.219-.177.344-.282s.26-.229.407-.375C719.533,115.915,719.606,115.853,719.628,115.874Z" transform="translate(-713.37 -95.747)" fill="#4dc4ef"/>
        <path id="Path_724" data-name="Path 724" d="M716.856,123.825a.9.9,0,0,1-.312.359.841.841,0,0,1-.3.172c-.063,0-.073-.063-.031-.188a11.692,11.692,0,0,0,.062-1.562q0-1.221-.11-2.408a14.427,14.427,0,0,0-.171-1.438,3.67,3.67,0,0,1-.079-.454.725.725,0,0,1,.2-.454,1.837,1.837,0,0,1,.313-.344.336.336,0,0,1,.124-.063c.084,0,.115.136.095.407q-.064.5-.095,1.61a17.4,17.4,0,0,0,.109,2.376,13.225,13.225,0,0,0,.2,1.454,1.039,1.039,0,0,1,.063.251A.834.834,0,0,1,716.856,123.825Z" transform="translate(-712.679 -93.941)" fill="#4dc4ef"/>
        <path id="Path_725" data-name="Path 725" d="M716.408,127.647a6.7,6.7,0,0,1-.626.719,1.427,1.427,0,0,1-.594.407.449.449,0,0,1-.36-.016c-.073-.052-.109-.1-.109-.14,0-.063.063-.136.188-.219q.28-.188.547-.407a6.263,6.263,0,0,0,.61-.594,7.389,7.389,0,0,1-1.22-1.189,6.436,6.436,0,0,1-.735-1.094,6.591,6.591,0,0,1-.359-.845c-.084-.251-.109-.38-.079-.391s.131.14.3.454a11,11,0,0,0,.843,1.266,7.18,7.18,0,0,0,1.533,1.485q.25-.25.468-.5l.439-.5c.124-.187.2-.271.219-.249s-.016.129-.109.328a5.656,5.656,0,0,1-.3.547q-.156.25-.375.594.53.344,1,.6a4.857,4.857,0,0,0,.8.375c.052,0,.079-.032.079-.093a1.2,1.2,0,0,0-.063-.33c-.041-.135-.1-.318-.188-.547a.555.555,0,0,1-.061-.249.67.67,0,0,1,.187-.438q-.624-.532-.954-.861a4.771,4.771,0,0,1-.563-.672,4.079,4.079,0,0,1-.359-.624.844.844,0,0,1-.109-.36q.016-.078.422.454a6.377,6.377,0,0,0,.891.954,5.684,5.684,0,0,0,.845.64,3.71,3.71,0,0,0,.5.251q.172.062.36.124c.061.021.093.052.093.095a.358.358,0,0,1-.109.219,1.069,1.069,0,0,1-.235.2.485.485,0,0,1-.156.079.183.183,0,0,1-.125-.063,2.17,2.17,0,0,0-.312-.314,2.51,2.51,0,0,0,.125.891,2.188,2.188,0,0,0,.312.735.287.287,0,0,1-.032.375,1.421,1.421,0,0,1-.3.282c-.094.063-.188.037-.282-.077a3.793,3.793,0,0,0-.891-.579A9.6,9.6,0,0,1,716.408,127.647Z" transform="translate(-713.434 -91.791)" fill="#4dc4ef"/>
        <path id="Path_726" data-name="Path 726" d="M719.059,133.538a2.088,2.088,0,0,0,.594.282c.084.021.125.052.125.095a.856.856,0,0,1-.438.484.163.163,0,0,1-.219-.079,5.292,5.292,0,0,0-.407-.438q-.344-.312-1.094-1.063-.25.376-.47.314a2.188,2.188,0,0,0-.484-.079c-.177-.011-.479-.016-.907-.016s-.807.011-1.141.032a6.811,6.811,0,0,1-.782-.032.455.455,0,0,1-.328-.14c-.052-.073.005-.145.172-.219a1.166,1.166,0,0,1,.468-.109,1.206,1.206,0,0,1,.282.031,5.464,5.464,0,0,0,.986.063q.672,0,1.141-.016a3.487,3.487,0,0,0,.813-.109,6.356,6.356,0,0,1-.468-.594,7.566,7.566,0,0,1-.484-.813,5.779,5.779,0,0,1-.391-.877.98.98,0,0,1-.095-.422c.021-.031.141.156.36.563a10.344,10.344,0,0,0,.859,1.313,7.729,7.729,0,0,0,1.049,1.157A7.224,7.224,0,0,0,719.059,133.538Z" transform="translate(-713.49 -89.802)" fill="#4dc4ef"/>
        <path id="Path_727" data-name="Path 727" d="M718.658,137.57a2.09,2.09,0,0,0,.547-.079.358.358,0,0,1,.156-.031.1.1,0,0,1,.093.063c.021.041,0,.129-.063.266a.762.762,0,0,1-.172.266.229.229,0,0,1-.109.063.461.461,0,0,1-.187-.063,4.955,4.955,0,0,0-1.345-.093q-.438,1.033-.672,1.5a1.811,1.811,0,0,1-.422.61.526.526,0,0,1-.36.125.311.311,0,0,1-.219-.079.2.2,0,0,1-.047-.093c0-.084.083-.188.25-.314a7.175,7.175,0,0,0,.626-.734q.344-.454.688-1.017-2.6,0-2.846.031H714c-.2,0-.318-.025-.359-.077s-.027-.115.047-.188a.877.877,0,0,1,.344-.187,1.4,1.4,0,0,1,.64-.016,9.962,9.962,0,0,0,1.376.063Q718.3,137.586,718.658,137.57Z" transform="translate(-713.448 -87.251)" fill="#4dc4ef"/>
        <path id="Path_728" data-name="Path 728" d="M717.386,142.749a1.012,1.012,0,0,0,.391-.095c.125-.063.177-.02.156.125a2.025,2.025,0,0,1-.093.391c-.043.115-.084.172-.125.172a.494.494,0,0,1-.188-.063,4.206,4.206,0,0,0-1.031-.063,3.046,3.046,0,0,1-1.5-.375,3.111,3.111,0,0,1-.861-.735c-.2-.26-.285-.407-.265-.438s.188.088.5.36a2.932,2.932,0,0,0,1.017.562,3.568,3.568,0,0,0,1.2.172C717.006,142.753,717.272,142.749,717.386,142.749Zm1.266,1.562a.326.326,0,0,1-.016.22,1.082,1.082,0,0,1-.172.328.289.289,0,0,1-.343.109,2.213,2.213,0,0,0-.486-.079c-.176-.011-.484-.016-.922-.016h-1.2c-.366,0-.579.005-.642.016s-.025.131.109.36a7.846,7.846,0,0,0,1.236,1.562,6.824,6.824,0,0,0,.782.688c.229.167.339.266.328.3s-.156-.021-.438-.156a4.329,4.329,0,0,1-.938-.658,6.716,6.716,0,0,1-.861-.891c-.229-.312-.406-.547-.531-.7l-.314-.391a.275.275,0,0,1-.093-.188.308.308,0,0,1,.063-.156.843.843,0,0,1,.219-.2.266.266,0,0,1,.282-.047,1.556,1.556,0,0,0,.563.063H716.6q.891,0,1.236-.032a1.849,1.849,0,0,0,.531-.109,1.11,1.11,0,0,1,.219-.077C718.611,144.25,718.631,144.27,718.652,144.311Z" transform="translate(-713.365 -85.846)" fill="#4dc4ef"/>
      </g>
      <g id="Group_312" data-name="Group 312" transform="translate(698.596 167.459)">
        <path id="Path_729" data-name="Path 729" d="M709.627,157h-.29a5.141,5.141,0,0,0-.41-1.685,4.768,4.768,0,0,0-.942-1.29,5.98,5.98,0,0,0-1.412-1.055,8.472,8.472,0,0,0-1.849-.7,3.959,3.959,0,0,1,.774,2.259,2.466,2.466,0,0,1-.875,1.884,3.21,3.21,0,0,1-2.251.8,4,4,0,0,1-2.424-.8,3.026,3.026,0,0,1-1.329-2.564,2.585,2.585,0,0,1,.719-1.845,4.759,4.759,0,0,1,3.628-1.485,6.576,6.576,0,0,1,2.7.57,7.012,7.012,0,0,1,2.275,1.63,6.005,6.005,0,0,1,1.337,2.029,5.413,5.413,0,0,1,.344,1.805Zm-5.472-4.863a13.589,13.589,0,0,0-1.705-.14,5.422,5.422,0,0,0-1.629.278,3.192,3.192,0,0,0-1.4.825,1.376,1.376,0,0,0-.368.97,1.563,1.563,0,0,0,.642,1.216,2.783,2.783,0,0,0,1.829.535,4.78,4.78,0,0,0,2.314-.531,1.654,1.654,0,0,0,.978-1.509,1.867,1.867,0,0,0-.125-.638A6.259,6.259,0,0,0,704.155,152.141Z" transform="translate(-698.588 -150.516)" fill="#4dc4ef"/>
      </g>
    </g>
  </g>
</svg>
