<svg xmlns="http://www.w3.org/2000/svg" width="161.262" height="40" viewBox="0 0 161.262 40">
  <g id="ViaSat" transform="translate(-0.027)">
    <g id="LOGO_HORIZONTAL_POSITIVE" transform="translate(0.028 0)">
      <path id="Path_674" data-name="Path 674" d="M40.759.9A19.641,19.641,0,0,0,29,.9l5.855,16.763Z" transform="translate(-14.503 0)" fill="#9aa9b7"/>
      <path id="Path_675" data-name="Path 675" d="M34.141,9.1,23.632,32.518H17.177L6.719,9.1a20.386,20.386,0,1,0,28.773,1.351C35.041,10,34.591,9.5,34.141,9.1Z" transform="translate(-0.028 -4.546)" fill="#9aa9b7"/>
      <g id="Group_275" data-name="Group 275" transform="translate(48.524 9.808)">
        <path id="Path_676" data-name="Path 676" d="M110.661,41.767h-5.154L97,19.6h5.254l5.855,15.762L114.063,19.6h5.1Z" transform="translate(-97 -19.6)" fill="#9aa9b7"/>
        <path id="Path_677" data-name="Path 677" d="M146.8,41.767V19.6h5V41.767Z" transform="translate(-121.88 -19.6)" fill="#9aa9b7"/>
      </g>
      <g id="Group_276" data-name="Group 276" transform="translate(48.524 9.808)">
        <path id="Path_678" data-name="Path 678" d="M110.661,41.767h-5.154L97,19.6h5.254l5.855,15.762L114.063,19.6h5.1Z" transform="translate(-97 -19.6)" fill="#9aa9b7"/>
        <path id="Path_679" data-name="Path 679" d="M146.8,41.767V19.6h5V41.767Z" transform="translate(-121.88 -19.6)" fill="#9aa9b7"/>
      </g>
      <g id="Group_277" data-name="Group 277" transform="translate(81.1 9.858)">
        <path id="Path_680" data-name="Path 680" d="M168.705,37.264l-1.7,4.6h-4.9L170.657,19.7h5.2l8.607,22.167h-5.1l-1.7-4.6Zm4.5-12.46-2.952,8.106h5.955Z" transform="translate(-162.1 -19.7)" fill="#9aa9b7"/>
      </g>
      <g id="Group_278" data-name="Group 278" transform="translate(81.1 9.858)">
        <path id="Path_681" data-name="Path 681" d="M168.705,37.264l-1.7,4.6h-4.9L170.657,19.7h5.2l8.607,22.167h-5.1l-1.7-4.6Zm4.5-12.46-2.952,8.106h5.955Z" transform="translate(-162.1 -19.7)" fill="#9aa9b7"/>
      </g>
      <g id="Group_279" data-name="Group 279" transform="translate(104.518 9.307)">
        <path id="Path_682" data-name="Path 682" d="M225.213,21.152,222.461,24.8a6.836,6.836,0,0,0-4.554-1.751c-2,0-2.852.9-2.852,1.9s1,1.651,2.852,2.4l2.052.9c3.553,1.5,5.654,3.052,5.654,6.655,0,4.3-3.3,6.805-8.056,6.805a12.89,12.89,0,0,1-8.657-3.2l2.5-3.7a10.063,10.063,0,0,0,6.155,2.4c2.1,0,3.152-.851,3.152-2.2,0-1.4-1.4-2-3.553-2.952l-2.1-.9c-3.853-1.7-4.9-3.553-4.9-6.155,0-3.3,2.652-6.405,7.906-6.405A10.476,10.476,0,0,1,225.213,21.152Z" transform="translate(-208.9 -18.6)" fill="#9aa9b7"/>
      </g>
      <g id="Group_280" data-name="Group 280" transform="translate(104.518 9.307)">
        <path id="Path_683" data-name="Path 683" d="M225.213,21.152,222.461,24.8a6.836,6.836,0,0,0-4.554-1.751c-2,0-2.852.9-2.852,1.9s1,1.651,2.852,2.4l2.052.9c3.553,1.5,5.654,3.052,5.654,6.655,0,4.3-3.3,6.805-8.056,6.805a12.89,12.89,0,0,1-8.657-3.2l2.5-3.7a10.063,10.063,0,0,0,6.155,2.4c2.1,0,3.152-.851,3.152-2.2,0-1.4-1.4-2-3.553-2.952l-2.1-.9c-3.853-1.7-4.9-3.553-4.9-6.155,0-3.3,2.652-6.405,7.906-6.405A10.476,10.476,0,0,1,225.213,21.152Z" transform="translate(-208.9 -18.6)" fill="#9aa9b7"/>
      </g>
      <g id="Group_281" data-name="Group 281" transform="translate(122.732 9.858)">
        <path id="Path_684" data-name="Path 684" d="M251.855,37.264l-1.7,4.6H245.3L253.857,19.7h5.2l8.657,22.167h-5.1l-1.7-4.6Zm4.554-12.46-2.952,8.106h5.955Z" transform="translate(-245.3 -19.7)" fill="#9aa9b7"/>
      </g>
      <g id="Group_282" data-name="Group 282" transform="translate(122.732 9.858)">
        <path id="Path_685" data-name="Path 685" d="M251.855,37.264l-1.7,4.6H245.3L253.857,19.7h5.2l8.657,22.167h-5.1l-1.7-4.6Zm4.554-12.46-2.952,8.106h5.955Z" transform="translate(-245.3 -19.7)" fill="#9aa9b7"/>
      </g>
      <g id="Group_283" data-name="Group 283" transform="translate(143.349 9.808)">
        <path id="Path_686" data-name="Path 686" d="M297.959,24.1V41.767h-5V24.1H286.5V19.6h17.914v4.5Z" transform="translate(-286.5 -19.6)" fill="#9aa9b7"/>
      </g>
      <g id="Group_284" data-name="Group 284" transform="translate(143.349 9.808)">
        <path id="Path_687" data-name="Path 687" d="M297.959,24.1V41.767h-5V24.1H286.5V19.6h17.914v4.5Z" transform="translate(-286.5 -19.6)" fill="#9aa9b7"/>
      </g>
    </g>
  </g>
</svg>
