<svg xmlns="http://www.w3.org/2000/svg" width="68.449" height="40" viewBox="0 0 68.449 40">
  <g id="Group_285" data-name="Group 285" transform="translate(16767 19625)">
    <g id="ZDF" transform="translate(-16767 -19625)">
      <path id="Path_688" data-name="Path 688" d="M61.749,14.25h6.7V11.1H60.4c-4.3,0-6.1,2.4-6.1,6.2v.35c-.7-4.45-3.4-6.6-8.25-6.6H37.9a20,20,0,1,0-.05,18h8.3c2,0,3.8-.1,5.6-1.6a7.067,7.067,0,0,0,2.5-4.45v6h3.8V21.95h9V18.8h-9l.05-1.3c.05-2,.65-3.25,3.65-3.25ZM46,25.9H41.8V14.25H46c3.3,0,4.5,1.4,4.5,5.8S49.3,25.9,46,25.9Z" fill="#9aa9b7" fill-rule="evenodd"/>
      <path id="Path_689" data-name="Path 689" d="M51.6,29.65h2.5c1.95,0,3.1-.4,3.1-2.1s-1.15-2.2-3.2-2.2H45.6V22.2h9.8c4.95,0,5.7,3.5,5.7,5.4,0,2.05-.85,5.35-5.7,5.35H53c-3,0-3.65,1.1-3.65,3.15v.95H60.6v3.1H45.5V35.7c0-3.8,1.8-6.05,6.1-6.05Z" transform="translate(-22.75 -11.1)" fill="#fff" fill-rule="evenodd"/>
    </g>
  </g>
</svg>
