<svg id="Icon" xmlns="http://www.w3.org/2000/svg" xmlns:xlink="http://www.w3.org/1999/xlink" width="92" height="92" viewBox="0 0 92 92">
  <defs>
    <linearGradient id="linear-gradient" x1="0.499" y1="0.999" x2="0.499" y2="-0.001" gradientUnits="objectBoundingBox">
      <stop offset="0" stop-color="#05461d"/>
      <stop offset="1" stop-color="#058817"/>
    </linearGradient>
  </defs>
  <rect id="XMLID_4_" width="92" height="92" fill="#49c242"/>
  <rect id="XMLID_3_" width="81.1" height="81.1" transform="translate(5.5 5.5)" fill="url(#linear-gradient)"/>
  <g id="Group_292" data-name="Group 292">
    <path id="Path_670" data-name="Path 670" d="M31,43.8a4.649,4.649,0,0,0,3.6-1.6,6.534,6.534,0,0,0,1.5-4.6,6.452,6.452,0,0,0-1.2-3.9,3.76,3.76,0,0,0-3.2-1.6,5.214,5.214,0,0,0-2.3.5A3.531,3.531,0,0,0,28,33.9,8.222,8.222,0,0,0,27,36c-.3.9-.6,1.7-.8,2.4a2.539,2.539,0,0,1-.8,1,2.891,2.891,0,0,1-1.4.4,2.087,2.087,0,0,1-1.7-1,3.936,3.936,0,0,1-.8-2.5,7.729,7.729,0,0,1,.7-3.2,12.609,12.609,0,0,1,2.1-3.2,11.12,11.12,0,0,1,3.4-2.5,11.3,11.3,0,0,1,4.5-.9,9.9,9.9,0,0,1,7.2,3,9,9,0,0,1,2,3.4,14.211,14.211,0,0,1,.7,4.2,10.883,10.883,0,0,1-1,5,17.581,17.581,0,0,1-2.8,4.1,13.46,13.46,0,0,1,3,2.8,11.63,11.63,0,0,1,1.8,3.5,14.213,14.213,0,0,1,.6,4.2,18.208,18.208,0,0,1-.8,5.2,16.113,16.113,0,0,1-2.4,4.5,12.64,12.64,0,0,1-3.8,3.1,11.364,11.364,0,0,1-4.9,1.1,9.225,9.225,0,0,1-4.9-1.3,10.745,10.745,0,0,1-3.5-3.2,18.617,18.617,0,0,1-2.1-3.9,9.747,9.747,0,0,1-.7-3.3,4.878,4.878,0,0,1,.8-2.8,2.643,2.643,0,0,1,2.1-1,2.078,2.078,0,0,1,1.2.5,2.55,2.55,0,0,1,.8,1.2A22.883,22.883,0,0,0,28,62.9a4.44,4.44,0,0,0,3.8,2,4.839,4.839,0,0,0,2.7-.9,6.7,6.7,0,0,0,2.2-2.7,8.844,8.844,0,0,0,.8-4.1,9.367,9.367,0,0,0-1.4-5.4,4.794,4.794,0,0,0-4-2,8.17,8.17,0,0,0-1.4.1,8.329,8.329,0,0,1-1.2.1,2.407,2.407,0,0,1-1.9-.8,3.7,3.7,0,0,1-.7-2.3,3.566,3.566,0,0,1,.8-2.3,3.093,3.093,0,0,1,2.4-.9H31Z" fill="#f7f8f8"/>
    <path id="Path_671" data-name="Path 671" d="M66.9,66v-.8a19.664,19.664,0,0,1-2.4,3A8.7,8.7,0,0,1,61.9,70a8.149,8.149,0,0,1-3.1.6,7.537,7.537,0,0,1-4.1-1.2,11.15,11.15,0,0,1-3.3-3.5,19.553,19.553,0,0,1-2.1-5.3,27.282,27.282,0,0,1-.7-6.6c0-5,.9-8.9,2.8-11.7a8.693,8.693,0,0,1,7.5-4.2,7.941,7.941,0,0,1,4.5,1.2A14.149,14.149,0,0,1,67,43V31a7.259,7.259,0,0,1,.8-3.7,2.562,2.562,0,0,1,4.4-.1,6.317,6.317,0,0,1,.8,3.4V66a6.707,6.707,0,0,1-.8,3.5,2.262,2.262,0,0,1-2.1,1.1A2.6,2.6,0,0,1,68,69.4,4.511,4.511,0,0,1,66.9,66ZM54.8,54.2a18.417,18.417,0,0,0,.8,5.6,7.99,7.99,0,0,0,2.1,3.5,4.41,4.41,0,0,0,3,1.2,4.823,4.823,0,0,0,3-1.1A8.024,8.024,0,0,0,65.9,60a18.167,18.167,0,0,0,.8-5.7,17.74,17.74,0,0,0-.8-5.5,8.107,8.107,0,0,0-2.2-3.5,4.41,4.41,0,0,0-3-1.2,4.1,4.1,0,0,0-3,1.3A7.817,7.817,0,0,0,55.6,49,12.919,12.919,0,0,0,54.8,54.2Z" fill="#f7f8f8"/>
  </g>
</svg>
