<svg xmlns="http://www.w3.org/2000/svg" width="132.3" height="135" viewBox="0 0 132.3 135">
  <g id="Group_280" data-name="Group 280" transform="translate(-464 -5381)">
    <g id="target" transform="translate(261 5439)">
      <g id="Group_254" data-name="Group 254" transform="translate(203 -58)">
        <path id="Path_650" data-name="Path 650" d="M66.15,0C29.616,0,0,30.221,0,67.5S29.616,135,66.15,135s66.15-30.221,66.15-67.5C132.259,30.238,102.666.042,66.15,0ZM63.945,130.444C31.6,129.227,5.658,102.753,4.465,69.75h17.7c1.149,23.043,19.2,41.462,41.783,42.635Zm0-22.559C43.8,106.722,27.712,90.311,26.572,69.75h17.64A22.312,22.312,0,0,0,63.945,89.885Zm0-22.541A17.841,17.841,0,0,1,48.662,69.75H63.945Zm0-20.095H48.662A17.841,17.841,0,0,1,63.945,49.655Zm0-20.135A22.312,22.312,0,0,0,44.212,65.25H26.572C27.712,44.69,43.8,28.278,63.945,27.115Zm0-22.5C41.362,23.788,23.312,42.206,22.162,65.25H4.465c1.193-33,27.137-59.477,59.48-60.694Zm4.41-18.058c32.343,1.217,58.287,27.691,59.48,60.694h-17.7c-1.149-23.044-19.2-41.462-41.783-42.635Zm0,22.559C88.5,28.278,104.588,44.69,105.728,65.25H88.088A22.312,22.312,0,0,0,68.355,45.115Zm0,22.541A17.841,17.841,0,0,1,83.638,65.25H68.355Zm0,20.095H83.638A17.841,17.841,0,0,1,68.355,85.345Zm0,20.135A22.312,22.312,0,0,0,88.088,69.75h17.64c-1.14,20.561-17.223,36.972-37.373,38.135Zm0,40.559V112.385c22.583-1.173,40.633-19.592,41.783-42.635h17.7C126.642,102.753,100.7,129.227,68.355,130.444Z" fill="#4dc4ef"/>
      </g>
    </g>
  </g>
</svg>
