<svg xmlns="http://www.w3.org/2000/svg" width="60.001" height="55.999" viewBox="0 0 60.001 55.999">
  <path id="Icon" d="M59.189,14.012,55,6.755V2.994a.966.966,0,0,0-.041-.2,1.017,1.017,0,0,0-.041-.187l0-.008a1.021,1.021,0,0,0-.081-.114,1.015,1.015,0,0,0-.138-.2.991.991,0,0,0-.163-.11,1,1,0,0,0-.158-.1,1.038,1.038,0,0,0-.237-.048A.938.938,0,0,0,54,2l-.008,0a.965.965,0,0,0-.173.035,1,1,0,0,0-.215.047l-.008,0L35.288,10.17c-.029-.055-.063-.106-.094-.16s-.053-.088-.08-.132a6.01,6.01,0,0,0-.532-.743c-.023-.027-.048-.051-.071-.078a6.15,6.15,0,0,0-.67-.661c-.007-.005-.012-.012-.019-.017a6.124,6.124,0,0,0-.775-.539c-.038-.022-.074-.047-.112-.068a6.058,6.058,0,0,0-.825-.382c-.052-.02-.1-.039-.156-.057a5.835,5.835,0,0,0-.887-.232c-.023,0-.044-.013-.067-.017V4a1,1,0,0,0-2,0v3.09a5.975,5.975,0,0,0-4.769,7.54l-18.6,7.441-.008,0a1.014,1.014,0,0,0-.259.169.81.81,0,0,0-.068.046,1.052,1.052,0,0,0-.132.194,1.019,1.019,0,0,0-.083.123.939.939,0,0,0-.021.1A.984.984,0,0,0,5,22.993V26.96L.811,34.217a5.985,5.985,0,0,0-.792,2.694A.685.685,0,0,0,0,37c0,.016.008.03.009.046a5.993,5.993,0,1,0,11.981,0A.379.379,0,0,0,12,37a.9.9,0,0,0-.018-.09,5.989,5.989,0,0,0-.792-2.694L7,26.96V23.678l18.092-7.237a6.053,6.053,0,0,0,.961,1.067l.009.008a6.029,6.029,0,0,0,1.132.784c.051.027.1.05.157.076.142.07.285.136.433.195.077.031.154.058.232.085.131.046.264.088.4.125.082.022.163.044.246.063.112.026.225.046.339.066V43H23v5a9.01,9.01,0,0,0-9,9v1H46V57a9.01,9.01,0,0,0-9-9V43H31V18.918c.023,0,.044-.013.067-.018a5.987,5.987,0,0,0,.887-.232c.053-.018.1-.037.156-.057a6.015,6.015,0,0,0,.826-.382c.038-.021.074-.045.111-.067a5.965,5.965,0,0,0,.776-.539c.007,0,.012-.012.019-.017a6.061,6.061,0,0,0,.67-.661c.023-.027.048-.051.071-.078a6.117,6.117,0,0,0,.532-.743c.027-.044.054-.087.08-.132a5.945,5.945,0,0,0,.392-.816c.019-.049.037-.1.055-.149a5.916,5.916,0,0,0,.25-.9c.008-.039.011-.08.018-.12A6.294,6.294,0,0,0,36,13a5.989,5.989,0,0,0-.079-.924L53,4.536V6.755l-4.189,7.256a5.992,5.992,0,1,0,10.378,0ZM6,41.206a3.95,3.95,0,0,1-3.457-2A4.008,4.008,0,0,1,2.09,38H9.91a4.008,4.008,0,0,1-.453,1.209A3.95,3.95,0,0,1,6,41.206ZM9.8,36H2.2a4.039,4.039,0,0,1,.341-.784L6,29.227l3.457,5.989A4.074,4.074,0,0,1,9.8,36ZM43.929,56H16.071A7.01,7.01,0,0,1,23,50H37A7.011,7.011,0,0,1,43.929,56ZM35,48H25V45H35ZM30,9a4,4,0,0,1,3.671,2.418l.122.386a4.861,4.861,0,0,1,.145.58,3.956,3.956,0,0,1-4.653,4.544c-.066-.012-.132-.027-.2-.042a3.914,3.914,0,0,1-.526-.164c-.052-.02-.1-.035-.156-.057a4.007,4.007,0,0,1-.558-.3c-.086-.056-.167-.119-.248-.181s-.166-.132-.246-.2c-.1-.09-.2-.18-.289-.28-.017-.019-.032-.04-.048-.059a4.105,4.105,0,0,1-.594-.889l-.131-.267A3.986,3.986,0,0,1,30,9Zm24,.022,3.457,5.988a4.087,4.087,0,0,1,.409.989H50.134a4.048,4.048,0,0,1,.409-.989ZM54,21a3.95,3.95,0,0,1-3.457-2,4.027,4.027,0,0,1-.412-1h7.738a4.027,4.027,0,0,1-.412,1A3.95,3.95,0,0,1,54,21Z" transform="translate(0 -2.001)" fill="#03284b"/>
</svg>
