<svg xmlns="http://www.w3.org/2000/svg" width="140.345" height="40" viewBox="0 0 140.345 40">
  <g id="BBC" transform="translate(-14.705 -11.11)">
    <g id="Group_8" data-name="Group 8" transform="translate(63.654 11.112)">
      <path id="Path_117" data-name="Path 117" d="M188.908,68.277H183.5v7.855h5.408s5.408.258,5.408-4.088C194.317,72.043,194.477,68.245,188.908,68.277Z" transform="translate(-167.242 -46.193)" fill="#9aa9b7"/>
      <path id="Path_118" data-name="Path 118" d="M191.741,40.69s.161-3.187-4.121-3.412H183.5v7.436h3.509S191.741,44.65,191.741,40.69Z" transform="translate(-167.242 -27.17)" fill="#9aa9b7"/>
      <path id="Path_119" data-name="Path 119" d="M141.414,11.112v40h42.447v-40Zm32.354,26.269c0,8.145-9.658,8.112-9.658,8.112H152.554V16.745h10.084c9.086.837,8.523,7.694,8.523,7.694a6.385,6.385,0,0,1-3.67,5.763C173.994,31.844,173.768,37.381,173.768,37.381Z" transform="translate(-141.414 -11.112)" fill="#9aa9b7"/>
    </g>
    <g id="Group_9" data-name="Group 9" transform="translate(14.705 11.112)">
      <path id="Path_120" data-name="Path 120" d="M65.074,40.69s.161-3.187-4.12-3.412H56.833v7.436h3.509S65.074,44.65,65.074,40.69Z" transform="translate(-40.559 -27.17)" fill="#9aa9b7"/>
      <path id="Path_121" data-name="Path 121" d="M14.7,11.112v40H57.152v-40ZM47.076,37.381c0,8.145-9.658,8.112-9.658,8.112H25.861V16.745H35.945c9.086.837,8.523,7.694,8.523,7.694A6.386,6.386,0,0,1,40.8,30.2C47.3,31.844,47.076,37.381,47.076,37.381Z" transform="translate(-14.705 -11.112)" fill="#9aa9b7"/>
      <path id="Path_122" data-name="Path 122" d="M62.241,68.277H56.833v7.855h5.408s5.408.258,5.408-4.088C67.65,72.043,67.811,68.245,62.241,68.277Z" transform="translate(-40.559 -46.193)" fill="#9aa9b7"/>
    </g>
    <path id="Path_123" data-name="Path 123" d="M268.122,11.112v40h42.447v-40Zm34.045,32.1A22.921,22.921,0,0,1,283.334,44.4a14.56,14.56,0,0,1-8.821-13.287s-.354-10.471,10.978-13.948c0,0,3.026-1.159,8.467-.644a30.778,30.778,0,0,1,7.951,2.286v5.312A24.222,24.222,0,0,0,291,20.866s-10.688-.209-11.171,10.246c0,0-.386,9.617,11.042,10.164,0,0,4.8.579,11.3-3.573Z" transform="translate(-155.52)" fill="#9aa9b7"/>
  </g>
</svg>
