<svg xmlns="http://www.w3.org/2000/svg" width="79.167" height="100" viewBox="0 0 79.167 100">
  <g id="Icon" transform="translate(-53.333)">
    <g id="Group_45" data-name="Group 45" transform="translate(53.333)">
      <g id="Group_44" data-name="Group 44">
        <path id="Path_405" data-name="Path 405" d="M122.083,0H63.75A10.429,10.429,0,0,0,53.333,10.417V89.583A10.429,10.429,0,0,0,63.75,100h58.334A10.428,10.428,0,0,0,132.5,89.583V10.417A10.428,10.428,0,0,0,122.083,0Zm6.25,89.584a6.258,6.258,0,0,1-6.25,6.25H63.75a6.258,6.258,0,0,1-6.25-6.25V10.417a6.258,6.258,0,0,1,6.25-6.25h58.334a6.258,6.258,0,0,1,6.25,6.25V89.584Z" transform="translate(-53.333)" fill="#03284b"/>
      </g>
    </g>
    <g id="Group_47" data-name="Group 47" transform="translate(61.666 20.833)">
      <g id="Group_46" data-name="Group 46" transform="translate(0)">
        <path id="Path_406" data-name="Path 406" d="M127.25,106.667a31.25,31.25,0,1,0,31.25,31.25A31.283,31.283,0,0,0,127.25,106.667Zm0,58.333a27.083,27.083,0,1,1,27.083-27.083A27.115,27.115,0,0,1,127.25,165Z" transform="translate(-96 -106.667)" fill="#03284b"/>
      </g>
    </g>
    <g id="Group_49" data-name="Group 49" transform="translate(90.833 50)">
      <g id="Group_48" data-name="Group 48" transform="translate(0)">
        <path id="Path_407" data-name="Path 407" d="M268.25,256a2.084,2.084,0,0,0-2.083,2.083,18.773,18.773,0,0,1-18.75,18.75,2.083,2.083,0,1,0,0,4.167,22.944,22.944,0,0,0,22.917-22.917A2.084,2.084,0,0,0,268.25,256Z" transform="translate(-245.333 -256)" fill="#03284b"/>
      </g>
    </g>
    <g id="Group_51" data-name="Group 51" transform="translate(82.5 41.667)">
      <g id="Group_50" data-name="Group 50" transform="translate(0)">
        <path id="Path_408" data-name="Path 408" d="M213.084,213.333A10.417,10.417,0,1,0,223.5,223.75,10.428,10.428,0,0,0,213.084,213.333Zm0,16.667a6.25,6.25,0,1,1,6.25-6.25A6.258,6.258,0,0,1,213.084,230Z" transform="translate(-202.667 -213.333)" fill="#03284b"/>
      </g>
    </g>
    <g id="Group_53" data-name="Group 53" transform="translate(90.833 50.026)">
      <g id="Group_52" data-name="Group 52" transform="translate(0)">
        <path id="Path_409" data-name="Path 409" d="M248.875,256.69a2.182,2.182,0,0,0-2.958.042,2.082,2.082,0,0,0-.583,1.458,1.95,1.95,0,0,0,.621,1.458,2.086,2.086,0,0,0,3.546-1.458A2.1,2.1,0,0,0,248.875,256.69Z" transform="translate(-245.333 -256.133)" fill="#03284b"/>
      </g>
    </g>
    <g id="Group_55" data-name="Group 55" transform="translate(61.729 8.333)">
      <g id="Group_54" data-name="Group 54" transform="translate(0)">
        <path id="Path_410" data-name="Path 410" d="M98.424,42.667h-.042A2.064,2.064,0,0,0,96.32,44.75a2.094,2.094,0,1,0,2.1-2.083Z" transform="translate(-96.32 -42.667)" fill="#03284b"/>
      </g>
    </g>
    <g id="Group_57" data-name="Group 57" transform="translate(120.062 8.333)">
      <g id="Group_56" data-name="Group 56" transform="translate(0)">
        <path id="Path_411" data-name="Path 411" d="M397.091,42.667h-.042a2.064,2.064,0,0,0-2.062,2.083,2.094,2.094,0,1,0,2.1-2.083Z" transform="translate(-394.987 -42.667)" fill="#03284b"/>
      </g>
    </g>
    <g id="Group_59" data-name="Group 59" transform="translate(120.062 87.5)">
      <g id="Group_58" data-name="Group 58" transform="translate(0)">
        <path id="Path_412" data-name="Path 412" d="M397.091,448h-.042a2.064,2.064,0,0,0-2.062,2.083,2.094,2.094,0,1,0,2.1-2.083Z" transform="translate(-394.987 -448)" fill="#03284b"/>
      </g>
    </g>
    <g id="Group_61" data-name="Group 61" transform="translate(61.729 87.5)">
      <g id="Group_60" data-name="Group 60" transform="translate(0)">
        <path id="Path_413" data-name="Path 413" d="M98.424,448h-.042a2.064,2.064,0,0,0-2.062,2.083,2.094,2.094,0,1,0,2.1-2.083Z" transform="translate(-96.32 -448)" fill="#03284b"/>
      </g>
    </g>
  </g>
</svg>
