<svg xmlns="http://www.w3.org/2000/svg" width="20" height="20" viewBox="0 0 20 20">
  <g id="Group_151" data-name="Group 151" transform="translate(-814 -423)">
    <g id="Group_142" data-name="Group 142" transform="translate(814 423)">
      <g id="Group_113" data-name="Group 113">
        <g id="Group_112" data-name="Group 112">
          <path id="Path_480" data-name="Path 480" d="M17.656,1.563h-.937V0H15.156V1.563H4.844V0H3.281V1.563H2.344A2.346,2.346,0,0,0,0,3.906v13.75A2.346,2.346,0,0,0,2.344,20H17.656A2.346,2.346,0,0,0,20,17.656V3.906A2.346,2.346,0,0,0,17.656,1.563Zm.781,16.094a.782.782,0,0,1-.781.781H2.344a.782.782,0,0,1-.781-.781V7.344H18.438Zm0-11.875H1.563V3.906a.782.782,0,0,1,.781-.781h.938V4.688H4.844V3.125H15.156V4.688h1.563V3.125h.938a.782.782,0,0,1,.781.781Z" fill="#073057"/>
        </g>
      </g>
      <g id="Group_115" data-name="Group 115" transform="translate(2.969 8.984)">
        <g id="Group_114" data-name="Group 114">
          <rect id="Rectangle_158" data-name="Rectangle 158" width="1.563" height="1.563" fill="#073057"/>
        </g>
      </g>
      <g id="Group_117" data-name="Group 117" transform="translate(6.094 8.984)">
        <g id="Group_116" data-name="Group 116">
          <rect id="Rectangle_159" data-name="Rectangle 159" width="1.563" height="1.563" fill="#073057"/>
        </g>
      </g>
      <g id="Group_119" data-name="Group 119" transform="translate(9.219 8.984)">
        <g id="Group_118" data-name="Group 118">
          <rect id="Rectangle_160" data-name="Rectangle 160" width="1.563" height="1.563" fill="#073057"/>
        </g>
      </g>
      <g id="Group_121" data-name="Group 121" transform="translate(12.344 8.984)">
        <g id="Group_120" data-name="Group 120">
          <rect id="Rectangle_161" data-name="Rectangle 161" width="1.563" height="1.563" fill="#073057"/>
        </g>
      </g>
      <g id="Group_123" data-name="Group 123" transform="translate(15.469 8.984)">
        <g id="Group_122" data-name="Group 122">
          <rect id="Rectangle_162" data-name="Rectangle 162" width="1.563" height="1.563" fill="#073057"/>
        </g>
      </g>
      <g id="Group_125" data-name="Group 125" transform="translate(2.969 12.109)">
        <g id="Group_124" data-name="Group 124">
          <rect id="Rectangle_163" data-name="Rectangle 163" width="1.563" height="1.563" fill="#073057"/>
        </g>
      </g>
      <g id="Group_127" data-name="Group 127" transform="translate(6.094 12.109)">
        <g id="Group_126" data-name="Group 126">
          <rect id="Rectangle_164" data-name="Rectangle 164" width="1.563" height="1.563" fill="#073057"/>
        </g>
      </g>
      <g id="Group_129" data-name="Group 129" transform="translate(9.219 12.109)">
        <g id="Group_128" data-name="Group 128">
          <rect id="Rectangle_165" data-name="Rectangle 165" width="1.563" height="1.563" fill="#073057"/>
        </g>
      </g>
      <g id="Group_131" data-name="Group 131" transform="translate(12.344 12.109)">
        <g id="Group_130" data-name="Group 130">
          <rect id="Rectangle_166" data-name="Rectangle 166" width="1.563" height="1.563" fill="#073057"/>
        </g>
      </g>
      <g id="Group_133" data-name="Group 133" transform="translate(2.969 15.234)">
        <g id="Group_132" data-name="Group 132">
          <rect id="Rectangle_167" data-name="Rectangle 167" width="1.563" height="1.563" fill="#073057"/>
        </g>
      </g>
      <g id="Group_135" data-name="Group 135" transform="translate(6.094 15.234)">
        <g id="Group_134" data-name="Group 134">
          <rect id="Rectangle_168" data-name="Rectangle 168" width="1.563" height="1.563" fill="#073057"/>
        </g>
      </g>
      <g id="Group_137" data-name="Group 137" transform="translate(9.219 15.234)">
        <g id="Group_136" data-name="Group 136">
          <rect id="Rectangle_169" data-name="Rectangle 169" width="1.563" height="1.563" fill="#073057"/>
        </g>
      </g>
      <g id="Group_139" data-name="Group 139" transform="translate(12.344 15.234)">
        <g id="Group_138" data-name="Group 138">
          <rect id="Rectangle_170" data-name="Rectangle 170" width="1.563" height="1.563" fill="#073057"/>
        </g>
      </g>
      <g id="Group_141" data-name="Group 141" transform="translate(15.469 12.109)">
        <g id="Group_140" data-name="Group 140">
          <rect id="Rectangle_171" data-name="Rectangle 171" width="1.563" height="1.563" fill="#073057"/>
        </g>
      </g>
    </g>
  </g>
</svg>
