<svg xmlns="http://www.w3.org/2000/svg" width="28.145" height="20.769" viewBox="0 0 28.145 20.769">
  <g id="Group_147" data-name="Group 147" transform="translate(6491.145 -1441)">
    <g id="Group_102" data-name="Group 102" transform="translate(-6491.145 1437.312)">
      <circle id="Ellipse_1" data-name="Ellipse 1" cx="2.086" cy="2.086" r="2.086" transform="translate(6.94 20.285)" fill="#fff"/>
      <circle id="Ellipse_2" data-name="Ellipse 2" cx="2.086" cy="2.086" r="2.086" transform="translate(22.93 20.285)" fill="#fff"/>
      <path id="Path_456" data-name="Path 456" d="M28.145,7.746c0-.033-.016-.061-.018-.094a1.123,1.123,0,0,0-.041-.2,1.339,1.339,0,0,0-.072-.183.969.969,0,0,0-.109-.161.914.914,0,0,0-.139-.146.982.982,0,0,0-.157-.106,1.1,1.1,0,0,0-.195-.087.919.919,0,0,0-.085-.038.738.738,0,0,0-.115,0c-.039,0-.072-.022-.111-.022L6.939,6.7c-.015,0-.027.008-.042.009L6.213,4.432a1.044,1.044,0,0,0-1-.744H1.043a1.043,1.043,0,0,0,0,2.086h3.4L8.388,18.936a1.042,1.042,0,0,0,1,.742H24.681a1.042,1.042,0,0,0,1.019-.816L28.12,7.974a.853.853,0,0,0,0-.113A.936.936,0,0,0,28.145,7.746Zm-4.3,9.846H10.163L7.521,8.786l18.281,0Z" fill="#fff"/>
    </g>
  </g>
</svg>
