<svg xmlns="http://www.w3.org/2000/svg" width="114" height="95" viewBox="0 0 114 95">
  <g id="Group_99" data-name="Group 99" transform="translate(-887 -3114)">
    <g id="Group_37" data-name="Group 37" transform="translate(887 3114)">
      <g id="Group_36" data-name="Group 36" transform="translate(0 0)">
        <path id="Path_401" data-name="Path 401" d="M87.875,42.667H26.125A26.153,26.153,0,0,0,0,68.792v42.75a26.153,26.153,0,0,0,26.125,26.125h61.75A26.153,26.153,0,0,0,114,111.542V68.792A26.153,26.153,0,0,0,87.875,42.667Zm21.375,68.875a21.4,21.4,0,0,1-21.375,21.375H26.125A21.4,21.4,0,0,1,4.75,111.542V68.792A21.4,21.4,0,0,1,26.125,47.417h61.75A21.4,21.4,0,0,1,109.25,68.792v42.75Z" transform="translate(0 -42.667)" fill="#03284b"/>
      </g>
    </g>
    <text id="CC" transform="translate(944 3173.5)" fill="#03284b" font-size="40" font-family="Lato-Semibold, Lato" font-weight="600"><tspan x="-30.29" y="0" letter-spacing="0.2em">C</tspan><tspan y="0">C</tspan></text>
  </g>
</svg>
