<svg xmlns="http://www.w3.org/2000/svg" width="114" height="95" viewBox="0 0 114 95">
  <g id="Group_1" data-name="Group 1" transform="translate(-5302 -3117)">
    <path id="Path_401" data-name="Path 401" d="M87.875,42.667H26.125A26.153,26.153,0,0,0,0,68.792v42.75a26.153,26.153,0,0,0,26.125,26.125h61.75A26.153,26.153,0,0,0,114,111.542V68.792A26.153,26.153,0,0,0,87.875,42.667Zm21.375,68.875a21.4,21.4,0,0,1-21.375,21.375H26.125A21.4,21.4,0,0,1,4.75,111.542V68.792A21.4,21.4,0,0,1,26.125,47.417h61.75A21.4,21.4,0,0,1,109.25,68.792v42.75Z" transform="translate(5302 3074.333)" fill="#4dc4ef"/>
    <text id="CC" transform="translate(5359 3176.5)" fill="#4dc4ef" font-size="40" font-family="Lato-Semibold, Lato" font-weight="600"><tspan x="-30.29" y="0" letter-spacing="0.2em">C</tspan><tspan y="0">C</tspan></text>
  </g>
</svg>
