<svg xmlns="http://www.w3.org/2000/svg" width="18.333" height="25" viewBox="0 0 18.333 25">
  <g id="Group_144" data-name="Group 144" transform="translate(-1622 -180)">
    <g id="Delete_Trash" data-name="Delete / Trash" transform="translate(1586.203 180)">
      <path id="Path_481" data-name="Path 481" d="M38.341,23.3A2.27,2.27,0,0,0,40.63,25H49.3a2.27,2.27,0,0,0,2.289-1.7L53.3,6.667H36.63ZM48.3,9.167a.833.833,0,0,1,1.667,0l-.833,12.5a.833.833,0,1,1-1.667,0Zm-4.167,0a.833.833,0,1,1,1.667,0v12.5a.833.833,0,1,1-1.667,0ZM40.8,8.333a.833.833,0,0,1,.833.833l.833,12.5a.833.833,0,0,1-1.667,0l-.833-12.5A.833.833,0,0,1,40.8,8.333Zm12-5H49.13V1.667C49.13.4,48.721,0,47.464,0h-5A1.458,1.458,0,0,0,40.8,1.667V3.335H37.13A1.293,1.293,0,0,0,35.8,4.585,1.293,1.293,0,0,0,37.13,5.836H52.8A1.293,1.293,0,0,0,54.13,4.585,1.293,1.293,0,0,0,52.8,3.335Zm-5.333,0h-5V1.667h5V3.335Z" transform="translate(0)" fill="#03284b" fill-rule="evenodd"/>
    </g>
  </g>
</svg>
