<svg xmlns="http://www.w3.org/2000/svg" width="104.348" height="100" viewBox="0 0 104.348 100">
  <g id="Icon" transform="translate(0 -10.667)">
    <g id="Group_39" data-name="Group 39" transform="translate(0 54.144)">
      <g id="Group_38" data-name="Group 38">
        <path id="Path_402" data-name="Path 402" d="M103.2,224.251a2.173,2.173,0,0,0-2.235.109L78.261,239.5v-.287a15.234,15.234,0,0,0-15.217-15.217H15.217A15.234,15.234,0,0,0,0,239.212V265.3a15.234,15.234,0,0,0,15.217,15.217H63.044A15.234,15.234,0,0,0,78.261,265.3v-.287l22.709,15.139a2.163,2.163,0,0,0,1.2.365,2.2,2.2,0,0,0,1.026-.257,2.176,2.176,0,0,0,1.148-1.917V226.169A2.181,2.181,0,0,0,103.2,224.251Zm-3.2,50.03L77.3,259.142a2.175,2.175,0,0,0-3.383,1.809V265.3a10.882,10.882,0,0,1-10.869,10.869H15.217A10.882,10.882,0,0,1,4.348,265.3V239.212a10.882,10.882,0,0,1,10.869-10.869H63.044a10.882,10.882,0,0,1,10.869,10.869v4.348a2.171,2.171,0,0,0,3.378,1.809L100,230.23v44.052Z" transform="translate(0 -223.993)" fill="#03284b"/>
      </g>
    </g>
    <g id="Group_41" data-name="Group 41" transform="translate(39.13 10.667)">
      <g id="Group_40" data-name="Group 40" transform="translate(0 0)">
        <path id="Path_403" data-name="Path 403" d="M211.565,10.667A19.565,19.565,0,1,0,231.13,30.232,19.589,19.589,0,0,0,211.565,10.667Zm0,34.782a15.217,15.217,0,1,1,15.217-15.217A15.234,15.234,0,0,1,211.565,45.449Z" transform="translate(-192 -10.667)" fill="#03284b"/>
      </g>
    </g>
    <g id="Group_43" data-name="Group 43" transform="translate(0 19.363)">
      <g id="Group_42" data-name="Group 42">
        <path id="Path_404" data-name="Path 404" d="M15.217,53.333A15.217,15.217,0,1,0,30.435,68.55,15.234,15.234,0,0,0,15.217,53.333Zm0,26.087A10.869,10.869,0,1,1,26.087,68.55,10.882,10.882,0,0,1,15.217,79.42Z" transform="translate(0 -53.333)" fill="#03284b"/>
      </g>
    </g>
  </g>
</svg>
