<svg xmlns="http://www.w3.org/2000/svg" width="181.741" height="40" viewBox="0 0 181.741 40">
  <g id="Dolby" transform="translate(-184.085 -218.747)">
    <path id="Path_124" data-name="Path 124" d="M359.8,218.855v39.916l105.383.041V218.855ZM462.43,256.016H362.556V221.694H462.43v34.322Z" transform="translate(-106.774 -0.066)" fill="#9aa9b7" fill-rule="evenodd"/>
    <path id="Path_125" data-name="Path 125" d="M184.085,218.964v39.874H214V218.964ZM209,238.837c0,6.991-3.982,12.84-9.364,14.491a9.47,9.47,0,0,1-3.094.509h-6.229V223.879h6.229a9.47,9.47,0,0,1,3.094.508c5.382,1.653,9.364,7.5,9.364,14.45Z" transform="translate(0 -0.132)" fill="#9aa9b7" fill-rule="evenodd"/>
    <path id="Path_126" data-name="Path 126" d="M264.114,218.964v39.874h29.958V218.964Zm17.5,5.041h6.229v29.916h-6.229a11.009,11.009,0,0,1-3.136-.465c-5.381-1.653-9.323-7.543-9.323-14.492,0-6.991,3.941-12.838,9.323-14.491a11.009,11.009,0,0,1,3.136-.467Z" transform="translate(-48.63 -0.132)" fill="#9aa9b7" fill-rule="evenodd"/>
    <path id="Path_127" data-name="Path 127" d="M401.162,247.15h-9.068v17.966h9.746c5,0,6.568-2.33,6.568-7.245V254.1c0-5.085-2.246-6.95-7.246-6.95Zm2.33,10.721c0,1.907-.677,3.051-2.415,3.051h-4.195V251.3h4.195c1.653,0,2.415.466,2.415,2.8v3.772Z" transform="translate(-126.397 -17.259)" fill="#9aa9b7" fill-rule="evenodd"/>
    <path id="Path_128" data-name="Path 128" d="M444.03,246.72c-4.873,0-8.305,1.059-8.305,6.609v5.085c0,5.508,3.432,6.568,8.305,6.568s8.306-1.06,8.306-6.568v-5.085c0-5.551-3.432-6.609-8.306-6.609Zm3.39,11.144c0,2.669-.889,2.966-3.39,2.966s-3.3-.3-3.348-2.966v-4.025c.043-2.67.847-2.924,3.348-2.924s3.39.254,3.39,2.924v4.025Z" transform="translate(-152.909 -16.998)" fill="#9aa9b7" fill-rule="evenodd"/>
    <path id="Path_129" data-name="Path 129" d="M485.981,247.15h-4.788v17.966h12.246v-4.194h-7.458V247.15Z" transform="translate(-180.538 -17.259)" fill="#9aa9b7" fill-rule="evenodd"/>
    <path id="Path_130" data-name="Path 130" d="M526.747,255.879c2.373-.381,2.8-1.864,2.8-4.153,0-3.9-2.076-4.576-5.678-4.576h-9.406v17.966h9.534c3.814,0,5.847-.636,5.847-5.041,0-2.246-.465-3.856-3.093-4.2Zm-7.5-4.83h4.026c1.314.084,1.483.465,1.483,1.567,0,1.4-.38,1.7-2.076,1.7h-3.432v-3.262Zm3.6,10.127h-3.6v-3.517h3.687c1.568,0,2.119.213,2.119,1.7,0,1.44-.636,1.822-2.2,1.822Z" transform="translate(-200.752 -17.259)" fill="#9aa9b7" fill-rule="evenodd"/>
    <path id="Path_131" data-name="Path 131" d="M564.526,247.15l-3.306,6.907h-.169l-3.179-6.907h-5.508l6.356,11.653v6.313h4.789V258.8l6.568-11.653Z" transform="translate(-223.786 -17.259)" fill="#9aa9b7" fill-rule="evenodd"/>
    <path id="Path_132" data-name="Path 132" d="M637.153,219.594a2.88,2.88,0,0,0-2.076-.847,2.979,2.979,0,0,0-2.119.847,2.914,2.914,0,0,0-.891,2.119,2.844,2.844,0,0,0,.891,2.118,2.914,2.914,0,0,0,4.195,0,2.967,2.967,0,0,0,0-4.237Zm-.3,3.94a2.368,2.368,0,0,1-1.779.764,2.4,2.4,0,0,1-1.822-.764,2.584,2.584,0,0,1,1.822-4.406,2.371,2.371,0,0,1,1.779.762,2.555,2.555,0,0,1,0,3.644Z" transform="translate(-272.217)" fill="#9aa9b7" fill-rule="evenodd"/>
    <path id="Path_133" data-name="Path 133" d="M639.148,223.028a.8.8,0,0,0-.509-.806,1.985,1.985,0,0,0-.8-.126H636.6v3.262h.593v-1.271h.636a1.292,1.292,0,0,1,.465.085c.213.128.3.381.3.762v.424h.552v-.042a.433.433,0,0,1-.042-.169v-.467a.813.813,0,0,0-.17-.508.828.828,0,0,0-.593-.339,1.476,1.476,0,0,0,.509-.128.788.788,0,0,0,.3-.677Zm-.891.593a1.166,1.166,0,0,1-.423.043H637.2v-1.188h.466c.085,0,.127,0,.17.043a1.867,1.867,0,0,1,.55.085.575.575,0,0,1,.211.508.51.51,0,0,1-.339.509Z" transform="translate(-274.974 -2.035)" fill="#9aa9b7" fill-rule="evenodd"/>
  </g>
</svg>
