<svg xmlns="http://www.w3.org/2000/svg" width="80.76" height="80.825" viewBox="0 0 80.76 80.825">
  <g id="Group_230" data-name="Group 230" transform="translate(-216.625 -15715.55)">
    <g id="Icon" transform="translate(214.5 15713.497)">
      <g id="Group_224" data-name="Group 224" transform="translate(13.606 13.609)">
        <path id="Path_637" data-name="Path 637" d="M56.853,77.921a21.012,21.012,0,0,1-14.9-6.162L9.273,39.08a.852.852,0,0,1,0-1.2l28.6-28.6a.852.852,0,0,1,1.2,0L71.755,41.954a21.065,21.065,0,0,1-14.9,35.967ZM11.077,38.478,43.154,70.555a19.373,19.373,0,0,0,27.4-27.4h0L38.475,11.08Z" transform="translate(-9.024 -9.027)" fill="#4dc4ef" stroke="#4dc4ef" stroke-width="0.75"/>
      </g>
      <g id="Group_225" data-name="Group 225" transform="translate(47.157 33.052)">
        <path id="Path_638" data-name="Path 638" d="M50.235,42.8a.848.848,0,0,1-.6-.249L28.982,21.9a.851.851,0,1,1,1.2-1.2L50.838,41.349a.85.85,0,0,1-.6,1.452Z" transform="translate(-28.733 -20.448)" fill="#4dc4ef" stroke="#4dc4ef" stroke-width="0.75"/>
      </g>
      <g id="Group_226" data-name="Group 226" transform="translate(2.5 2.503)">
        <path id="Path_639" data-name="Path 639" d="M19.7,38.671a.855.855,0,0,1-.6-.249L2.749,22.077a.853.853,0,0,1,0-1.2L20.87,2.752a.852.852,0,0,1,1.2,0L38.419,19.1a.855.855,0,0,1,0,1.205L20.3,38.422A.854.854,0,0,1,19.7,38.671ZM4.555,21.476,19.7,36.616,36.613,19.7,21.473,4.558Z" transform="translate(-2.5 -2.503)" fill="#4dc4ef" stroke="#4dc4ef" stroke-width="0.75"/>
      </g>
      <g id="Group_229" data-name="Group 229" transform="translate(14.138 14.142)">
        <g id="Group_227" data-name="Group 227" transform="translate(6.52)">
          <path id="Path_640" data-name="Path 640" d="M17.489,14.512a.841.841,0,0,1-.6-.249l-3.473-3.471a.852.852,0,0,1,1.205-1.2l3.471,3.471a.85.85,0,0,1-.6,1.452Z" transform="translate(-13.167 -9.34)" fill="#4dc4ef" stroke="#4dc4ef" stroke-width="0.75"/>
        </g>
        <g id="Group_228" data-name="Group 228" transform="translate(0 6.522)">
          <path id="Path_641" data-name="Path 641" d="M13.659,18.343a.848.848,0,0,1-.6-.249L9.586,14.623a.851.851,0,0,1,1.2-1.2l3.471,3.471a.85.85,0,0,1-.6,1.452Z" transform="translate(-9.337 -13.171)" fill="#4dc4ef" stroke="#4dc4ef" stroke-width="0.75"/>
        </g>
      </g>
    </g>
  </g>
</svg>
