<svg id="Icon" xmlns="http://www.w3.org/2000/svg" xmlns:xlink="http://www.w3.org/1999/xlink" width="92" height="92" viewBox="0 0 92 92">
  <defs>
    <linearGradient id="linear-gradient" x1="0.499" y1="0.999" x2="0.499" y2="-0.001" gradientUnits="objectBoundingBox">
      <stop offset="0" stop-color="#114966"/>
      <stop offset="1" stop-color="#3188b4"/>
    </linearGradient>
  </defs>
  <rect id="XMLID_2_" width="92" height="92" fill="#35c9f2"/>
  <rect id="XMLID_1_" width="81.1" height="81.1" transform="translate(5.5 5.5)" fill="url(#linear-gradient)"/>
  <g id="Group_290" data-name="Group 290">
    <path id="Path_666" data-name="Path 666" d="M43.8,33.2h-15V43.7H42.6a2.869,2.869,0,0,1,2.3.9,3.566,3.566,0,0,1,.8,2.3,3.793,3.793,0,0,1-.7,2.4,2.869,2.869,0,0,1-2.3.9H28.8V62.4H44.3a3.244,3.244,0,0,1,2.4.9,3.433,3.433,0,0,1,.8,2.5,4.147,4.147,0,0,1-.8,2.5,3,3,0,0,1-2.4,1H26.2A3.386,3.386,0,0,1,23.1,68a7.014,7.014,0,0,1-1-4.1V31.8a8.364,8.364,0,0,1,.4-3,2.9,2.9,0,0,1,1.3-1.7,4.13,4.13,0,0,1,2.3-.5H43.7a3.093,3.093,0,0,1,2.4.9,4,4,0,0,1,0,4.8A2.613,2.613,0,0,1,43.8,33.2Z" fill="#f7f8f8"/>
    <path id="Path_667" data-name="Path 667" d="M70,46.8,58.7,63.1h12a2.656,2.656,0,0,1,2.2.9,3.506,3.506,0,0,1,.7,2.3,3.232,3.232,0,0,1-.7,2.2,2.608,2.608,0,0,1-2.2.8H54.1a3.122,3.122,0,0,1-2.6-1,4,4,0,0,1-.9-2.7,4.2,4.2,0,0,1,.6-2.1,44.309,44.309,0,0,1,2.5-3.8c1.3-1.9,2.6-3.7,3.7-5.3s2.1-3.1,3.1-4.4c.9-1.4,1.7-2.5,2.3-3.5s1.1-1.8,1.5-2.5H55.2a6.613,6.613,0,0,1-2.8-.4,2.416,2.416,0,0,1-1-2.3,3.232,3.232,0,0,1,.7-2.2,2.865,2.865,0,0,1,2.1-.8H68.3a5.129,5.129,0,0,1,3,.7,3.087,3.087,0,0,1,1,2.7,5.853,5.853,0,0,1-.2,1.3,6.6,6.6,0,0,1-.4,1.1c-.2.3-.4.6-.7,1.1S70.4,46.2,70,46.8Z" fill="#f7f8f8"/>
  </g>
</svg>
