<svg id="Icon" xmlns="http://www.w3.org/2000/svg" xmlns:xlink="http://www.w3.org/1999/xlink" width="92" height="92" viewBox="0 0 92 92">
  <defs>
    <linearGradient id="linear-gradient" x1="0.499" y1="0.999" x2="0.499" y2="-0.001" gradientUnits="objectBoundingBox">
      <stop offset="0" stop-color="#64230a"/>
      <stop offset="1" stop-color="#d64f03"/>
    </linearGradient>
  </defs>
  <rect id="XMLID_2_" width="92" height="92" fill="#fc8951"/>
  <rect id="XMLID_1_" width="81.1" height="81.1" transform="translate(5.5 5.5)" fill="url(#linear-gradient)"/>
  <g id="Group_293" data-name="Group 293">
    <path id="Path_672" data-name="Path 672" d="M44,33.5H28.9V44.1H42.8a2.869,2.869,0,0,1,2.3.9,3.649,3.649,0,0,1,.8,2.4,3.612,3.612,0,0,1-.7,2.4,2.869,2.869,0,0,1-2.3.9h-14V63H44.6A2.719,2.719,0,0,1,47,64a4.147,4.147,0,0,1,.8,2.5A3.936,3.936,0,0,1,47,69a3,3,0,0,1-2.4,1H26.3a3.693,3.693,0,0,1-3.2-1.3,7.014,7.014,0,0,1-1-4.1V32.1a8.969,8.969,0,0,1,.4-3.1,2.9,2.9,0,0,1,1.3-1.7,4.13,4.13,0,0,1,2.3-.5H44a2.953,2.953,0,0,1,2.4.9,3.649,3.649,0,0,1,.8,2.4,4.147,4.147,0,0,1-.8,2.5A3.315,3.315,0,0,1,44,33.5Z" fill="#f7f8f8"/>
  </g>
  <g id="Group_294" data-name="Group 294">
    <path id="Path_673" data-name="Path 673" d="M58.2,44.2V45a10.875,10.875,0,0,1,3.1-3.5A6.706,6.706,0,0,1,65,40.4,7.092,7.092,0,0,1,69.5,42a9.938,9.938,0,0,1,3.2,4.8,21.069,21.069,0,0,1,1.2,7.5,22.2,22.2,0,0,1-.7,5.9,15.629,15.629,0,0,1-1.9,4.5,10.636,10.636,0,0,1-2.8,2.8,7.42,7.42,0,0,1-3.5,1,5.956,5.956,0,0,1-3.8-1.2,13.171,13.171,0,0,1-2.9-3.5V74.2c0,3-.9,4.6-2.5,4.6a1.924,1.924,0,0,1-2-1.2,9.755,9.755,0,0,1-.5-3.4V44.3a4.6,4.6,0,0,1,.7-2.9,1.9,1.9,0,0,1,1.8-1,2.006,2.006,0,0,1,1.8,1A5.3,5.3,0,0,1,58.2,44.2ZM68.6,54.3a16.271,16.271,0,0,0-.6-4.7,6.356,6.356,0,0,0-1.8-3,3.639,3.639,0,0,0-2.5-1A4.276,4.276,0,0,0,60,47.8q-1.5,2.25-1.5,6.6A11.653,11.653,0,0,0,60,60.8a4.388,4.388,0,0,0,3.7,2.3,3.25,3.25,0,0,0,2.4-1,5.9,5.9,0,0,0,1.8-3A13.883,13.883,0,0,0,68.6,54.3Z" fill="#f7f8f8"/>
  </g>
</svg>
