<svg xmlns="http://www.w3.org/2000/svg" width="45.642" height="29.379" viewBox="0 0 45.642 29.379">
  <g id="Group_278" data-name="Group 278" transform="translate(4896.094 23361)">
    <path id="Path_441" data-name="Path 441" d="M626.708,94.7a3.054,3.054,0,0,1,.327-.859A5.692,5.692,0,0,1,630.5,91.59l.658-.082a3.545,3.545,0,0,1,2.051.505,2.184,2.184,0,0,1,.574.631l.451-.082.46.089a7.127,7.127,0,0,1,1.274.85,7.054,7.054,0,0,1,2.423,3.509,6.265,6.265,0,0,1,.158,2.042,5.787,5.787,0,0,1-.445,1.695,15.474,15.474,0,0,1,2.048-.185l.777.01a13.132,13.132,0,0,1,6.759,2.106c.545.333,1.066.682,1.581,1.06a22.9,22.9,0,0,1,2.376,2.1,29.294,29.294,0,0,1,2.489,3,2.061,2.061,0,0,1,.326.878l-.007.309-.077.328-.16.32-.235.276-.283.2-.3.127a1.823,1.823,0,0,1-1.372-.179l-.775-.435c-1.5-.778-3.283-1.559-5.01-1.215a3.308,3.308,0,0,0-1.482.8l-2.854,2.927a4.365,4.365,0,0,1-1.112.8,3.955,3.955,0,0,1-4.043-.368l-.073.133c-.284.472-.581.918-.907,1.362a17.816,17.816,0,0,1-1.315,1.508A18.255,18.255,0,0,1,633,117.88a17.58,17.58,0,0,1-1.54,1.03,15.371,15.371,0,0,1-2.836,1.161c-.367.108-.733.209-1.1.3-.633.144-1.259.259-1.9.349-.8.1-1.587.149-2.393.165a27.839,27.839,0,0,1-3.855-.276c-.358-.055-.722-.1-1.076-.185a1.791,1.791,0,0,1-.511-.276l-.156-.168-.127-.213-.079-.248-.018-.263.044-.252.092-.22a1.476,1.476,0,0,1,.57-.528l.294-.107c.705-.181,1.389-.382,2.076-.626a14.463,14.463,0,0,0,1.6-.721,7.064,7.064,0,0,0,1.705-1.3l.279-.344a4.031,4.031,0,0,0,.536-1.066c-.32.034-.64.06-.967.077a18.315,18.315,0,0,1-1.951-.051,16.881,16.881,0,0,1-2.2-.377,15.368,15.368,0,0,1-2.841-1.145l-.67-.362a21.861,21.861,0,0,1-1.937-1.268c-.64-.489-1.242-1-1.83-1.551a27.655,27.655,0,0,1-2.57-2.886c-.218-.289-.445-.577-.642-.882a1.788,1.788,0,0,1-.175-.555l.005-.228.057-.24.117-.233.171-.2.208-.149.219-.094a1.476,1.476,0,0,1,.777.018l.286.129c.632.362,1.262.7,1.923,1a14.513,14.513,0,0,0,1.651.6,7.092,7.092,0,0,0,2.129.256l.44-.052a4,4,0,0,0,1.488-.6,6.091,6.091,0,0,0,.479-.389l2.982-3.057a5.3,5.3,0,0,1,.41-.36,3.777,3.777,0,0,1,1.98-.728l.351,0a3.756,3.756,0,0,1,1.654.463,5.562,5.562,0,0,1,.305-4.851,3.25,3.25,0,0,1,.464-.634l-.078-.109-.137-.492.008-.429Z" transform="translate(-5504.913 -23452.508)" fill="#fff" fill-rule="evenodd"/>
    <path id="Path_442" data-name="Path 442" d="M623.7,113.137l-2.707,2.782c-1.848,1.913-4.7,2.054-9.01-.474-.344-.2-.581.012-.354.329a18.483,18.483,0,0,0,9.171,7.208,12.08,12.08,0,0,0,10.893-2.065,2.631,2.631,0,0,0-.05-3.71l-4.233-4.12a2.631,2.631,0,0,0-3.71.05Z" transform="translate(-5506.277 -23462.951)" fill="#44c8f5" fill-rule="evenodd"/>
    <path id="Path_443" data-name="Path 443" d="M649.043,104.29l-.919,1c-.632.681-.627,1.68.337,3.134.077.117.007.2-.108.13a6.461,6.461,0,0,1-2.691-3.063,4.22,4.22,0,0,1,.513-3.84.92.92,0,0,1,1.3-.054l1.518,1.4a.919.919,0,0,1,.053,1.3Z" transform="translate(-5523.257 -23457.443)" fill-rule="evenodd"/>
    <path id="Path_444" data-name="Path 444" d="M653.065,108.4c-.361.394-.11.963-1.083,1.183-1.274.288,1.726,1.906,3.1.66a.565.565,0,0,0-.035-.8l-1.183-1.083a.566.566,0,0,0-.8.036Z" transform="translate(-5526.39 -23460.881)" fill-rule="evenodd"/>
    <path id="Path_445" data-name="Path 445" d="M658.281,100.646l.919-1c.632-.681.627-1.68-.338-3.134-.077-.117-.007-.2.108-.13a6.461,6.461,0,0,1,2.69,3.063,4.221,4.221,0,0,1-.512,3.841.92.92,0,0,1-1.3.053l-1.518-1.4a.919.919,0,0,1-.053-1.3Z" transform="translate(-5529.58 -23454.938)" fill="#faa61a" fill-rule="evenodd"/>
    <path id="Path_446" data-name="Path 446" d="M656.3,100.542a.542.542,0,1,1-.536.548.543.543,0,0,1,.536-.548Z" transform="translate(-5528.438 -23457.035)" fill="#231f20" fill-rule="evenodd"/>
    <path id="Path_447" data-name="Path 447" d="M649.778,97.649c-.635-.369-.541-1.22-1.907-1.108-1.79.146,1.482-3.211,3.8-2.14a.779.779,0,0,1,.281,1.061l-1.108,1.907a.779.779,0,0,1-1.061.281Z" transform="translate(-5524.226 -23453.852)" fill="#a6ce39" fill-rule="evenodd"/>
    <path id="Path_448" data-name="Path 448" d="M664.717,122.668l2.708-2.782c1.848-1.913,4.7-2.054,9.009.474.345.2.581-.012.354-.329a18.481,18.481,0,0,0-9.171-7.208,12.079,12.079,0,0,0-10.893,2.065,2.593,2.593,0,0,0-.493.713h2.14a4.181,4.181,0,0,1,1.076.165,3.811,3.811,0,0,1,1.735,1.169l.211.281a3.85,3.85,0,0,1,.609,1.673l.02.414-.055.485c-.067.435-.148.854-.248,1.282a15.587,15.587,0,0,1-.538,1.614l-.06.137a2.632,2.632,0,0,0,3.6-.153Z" transform="translate(-5528.673 -23462.951)" fill="#ed1c24" fill-rule="evenodd"/>
    <path id="Path_449" data-name="Path 449" d="M635.628,128.86c-.475,2.149-2.5,3.842-6.675,4.869-.388.1-.408.415-.024.482a18.481,18.481,0,0,0,11.6-1.231,12.08,12.08,0,0,0,6.366-9.077,2.632,2.632,0,0,0-2.623-2.624h-2.746a3.773,3.773,0,0,1,.822,1.942l.021.35a3.791,3.791,0,0,1-.574,2.023l-.214.3a7.3,7.3,0,0,1-1.724,1.366c-.371.218-.74.418-1.126.608a16.316,16.316,0,0,1-1.56.609c-.514.153-1.018.278-1.542.384Z" transform="translate(-5514.852 -23467.428)" fill="#ffcb05" fill-rule="evenodd"/>
  </g>
</svg>
