<svg xmlns="http://www.w3.org/2000/svg" width="97.502" height="40" viewBox="0 0 97.502 40">
  <g id="HBO" transform="translate(-211.835 -358.002)">
    <path id="Path_105" data-name="Path 105" d="M353.546,396.891a7.608,7.608,0,1,0-7.6-7.608,7.6,7.6,0,0,0,7.6,7.608Z" transform="translate(-64.219 -11.335)" fill="#9aa9b7" fill-rule="evenodd"/>
    <path id="Path_106" data-name="Path 106" d="M317.452,358a19.928,19.928,0,0,0-18.818,13.4,18.894,18.894,0,0,0,.151-2.517,10.041,10.041,0,0,0-4.024-7.723,11.839,11.839,0,0,0-7.131-2.575H270.379v39.288h16.169a14.5,14.5,0,0,0,8.66-3.134,10.26,10.26,0,0,0,4.136-8.059c0-.142,0-.283,0-.423A19.927,19.927,0,1,0,317.452,358Zm-37,9.1h4.217c2.056,0,4.217.361,4.217,2.987.151,2.371-1.267,3.776-4.108,3.776l-4.326.016V367.1Zm7.824,21.129a4.737,4.737,0,0,1-3.146.672h-4.694v-7.213h4.281c2.592,0,4.811.673,4.923,3.7a3.939,3.939,0,0,1-1.364,2.84Zm9.493-7.572a11.421,11.421,0,0,0-3.521-2.926,7.623,7.623,0,0,0,3.719-3.667,20.149,20.149,0,0,0-.2,6.593Zm19.589,7.669a10.377,10.377,0,1,1,10.36-10.377,10.368,10.368,0,0,1-10.36,10.377Z" transform="translate(-28.033)" fill="#9aa9b7" fill-rule="evenodd"/>
    <path id="Path_107" data-name="Path 107" d="M230.016,373.47h-8.14V358.98H211.835v39.426h9.991V383.017h8.141v15.389h10.172V358.98H230.016v14.49Z" transform="translate(0 -0.468)" fill="#9aa9b7" fill-rule="evenodd"/>
    <path id="Path_108" data-name="Path 108" d="M390.056,430.291a1.164,1.164,0,1,0,1.205,1.164,1.15,1.15,0,0,0-1.205-1.164Zm0,1.994a.832.832,0,1,1,.84-.83.821.821,0,0,1-.84.83Z" transform="translate(-84.763 -34.615)" fill="#9aa9b7" fill-rule="evenodd"/>
    <path id="Path_109" data-name="Path 109" d="M390.917,432.032a.291.291,0,0,0,.3-.329c0-.3-.2-.378-.526-.378h-.473v1.251h.315v-.532h.053l.287.532h.363l-.321-.544Zm-.2-.2h-.18v-.29h.152c.093,0,.2.011.2.132s-.062.158-.172.158Z" transform="translate(-85.418 -35.11)" fill="#9aa9b7" fill-rule="evenodd"/>
  </g>
</svg>
