<svg xmlns="http://www.w3.org/2000/svg" width="57.055" height="86.669" viewBox="0 0 57.055 86.669">
  <g id="Group_146" data-name="Group 146" transform="translate(-447 -11837)">
    <g id="Icon" transform="translate(360 11837)">
      <path id="Path_457" data-name="Path 457" d="M144.052,16.953c0-.018,0-.037,0-.056a1.683,1.683,0,0,0-.027-.217h0a1.766,1.766,0,0,0-.058-.211c-.006-.017-.012-.034-.019-.052a1.818,1.818,0,0,0-.084-.192l-.005-.01a1.66,1.66,0,0,0-.117-.187l-.033-.045a1.667,1.667,0,0,0-.147-.171L128.242.5a1.69,1.69,0,0,0-.171-.147l-.046-.034A1.6,1.6,0,0,0,127.84.2l-.013-.007a1.759,1.759,0,0,0-.188-.083l-.054-.019a1.721,1.721,0,0,0-.21-.058h0a1.789,1.789,0,0,0-.215-.027L127.1,0l-.058,0H88.693A1.693,1.693,0,0,0,87,1.693V74.146a1.693,1.693,0,0,0,1.693,1.693h25.485v9.137a1.693,1.693,0,0,0,2.593,1.434l6.447-4.045,6.447,4.045a1.693,1.693,0,0,0,2.593-1.434V75.839h10.1a1.693,1.693,0,0,0,1.693-1.693V17.011C144.055,16.992,144.053,16.973,144.052,16.953ZM128.738,5.78l9.538,9.538h-9.538Zm-15.395,46.5a5.208,5.208,0,0,1-.317-1.068,5.03,5.03,0,0,1,.872-.632A6.147,6.147,0,0,0,115.68,49.1a6.1,6.1,0,0,0,.884-2.168,5.484,5.484,0,0,1,.314-.981,2.105,2.105,0,0,1,.419-.03c.188,0,.4.01.623.022.257.013.521.026.8.026a4.8,4.8,0,0,0,1.548-.218,6.385,6.385,0,0,0,1.953-1.2,4.341,4.341,0,0,1,.99-.68,4.044,4.044,0,0,1,1.007.68,6.386,6.386,0,0,0,1.954,1.2,4.8,4.8,0,0,0,1.548.218c.276,0,.541-.013.8-.026.224-.011.435-.022.624-.022a2.053,2.053,0,0,1,.419.03,5.418,5.418,0,0,1,.313.981,6.107,6.107,0,0,0,.885,2.168,6.135,6.135,0,0,0,1.783,1.489,5.075,5.075,0,0,1,.871.632,5.232,5.232,0,0,1-.317,1.068,6.7,6.7,0,0,0-.537,2.325,6.727,6.727,0,0,0,.536,2.326A5.2,5.2,0,0,1,133.41,58a5.075,5.075,0,0,1-.871.632,4.833,4.833,0,0,0-2.667,3.657,5.489,5.489,0,0,1-.313.981,2.121,2.121,0,0,1-.419.03c-.189,0-.4-.011-.624-.022-.256-.013-.521-.026-.8-.026a4.8,4.8,0,0,0-1.548.218,6.4,6.4,0,0,0-1.954,1.2,4.218,4.218,0,0,1-1,.679,4.216,4.216,0,0,1-1-.679,6.409,6.409,0,0,0-1.954-1.2,4.8,4.8,0,0,0-1.548-.218c-.276,0-.541.013-.8.026-.223.011-.434.022-.623.022a2.125,2.125,0,0,1-.419-.03,5.482,5.482,0,0,1-.314-.981,4.83,4.83,0,0,0-2.667-3.657,5.048,5.048,0,0,1-.872-.632,5.257,5.257,0,0,1,.317-1.068,6.7,6.7,0,0,0,.537-2.325A6.716,6.716,0,0,0,113.343,52.284Zm15.529,29.632-4.754-2.983a1.7,1.7,0,0,0-1.8,0l-4.754,2.983V66.683c.18-.005.356-.012.528-.02.224-.012.436-.023.627-.023a1.657,1.657,0,0,1,.478.044,4.557,4.557,0,0,1,.9.63,4.125,4.125,0,0,0,6.242,0,4.548,4.548,0,0,1,.9-.63,1.677,1.677,0,0,1,.479-.044c.191,0,.4.01.627.022.171.008.348.016.527.02V81.916Zm3.385-9.462V65.318a6.16,6.16,0,0,0,.891-2.181,4.354,4.354,0,0,1,.337-1.013,4.385,4.385,0,0,1,.86-.629,4.775,4.775,0,0,0,2.282-2.421,4.891,4.891,0,0,0-.357-3.306,4.573,4.573,0,0,1-.33-1.16,4.57,4.57,0,0,1,.33-1.159,4.894,4.894,0,0,0,.357-3.307,4.777,4.777,0,0,0-2.282-2.42,4.442,4.442,0,0,1-.86-.628,4.375,4.375,0,0,1-.337-1.014,4.723,4.723,0,0,0-1.583-2.876,4.022,4.022,0,0,0-2.428-.674c-.274,0-.538.013-.793.026-.224.011-.436.022-.626.022a1.659,1.659,0,0,1-.479-.044,4.519,4.519,0,0,1-.9-.63,4.127,4.127,0,0,0-6.243,0,4.543,4.543,0,0,1-.9.63,1.662,1.662,0,0,1-.479.044c-.19,0-.4-.01-.627-.023-.255-.013-.519-.026-.793-.026a4.018,4.018,0,0,0-2.427.674,4.723,4.723,0,0,0-1.584,2.876,4.384,4.384,0,0,1-.337,1.013,4.441,4.441,0,0,1-.861.629,4.778,4.778,0,0,0-2.282,2.42,4.891,4.891,0,0,0,.357,3.307,4.569,4.569,0,0,1,.33,1.159,4.572,4.572,0,0,1-.33,1.16,4.891,4.891,0,0,0-.357,3.307,4.781,4.781,0,0,0,2.282,2.42,4.42,4.42,0,0,1,.861.629,4.382,4.382,0,0,1,.337,1.013,6.157,6.157,0,0,0,.892,2.181v7.135H90.385V3.386h34.967V17.011a1.693,1.693,0,0,0,1.693,1.693h13.625v53.75Z" fill="#4dc4ef" fill-rule="evenodd"/>
      <path id="Path_458" data-name="Path 458" d="M137.557,93.878h21.809a1.693,1.693,0,1,0,0-3.385H137.557a1.693,1.693,0,0,0,0,3.385Z" transform="translate(-40.593 -75.174)" fill="#4dc4ef" fill-rule="evenodd"/>
      <path id="Path_459" data-name="Path 459" d="M174.873,140.969H137.557a1.693,1.693,0,0,0,0,3.385h37.316a1.693,1.693,0,1,0,0-3.385Z" transform="translate(-40.593 -117.106)" fill="#4dc4ef" fill-rule="evenodd"/>
      <path id="Path_460" data-name="Path 460" d="M168.1,191.445H137.557a1.693,1.693,0,1,0,0,3.385H168.1a1.693,1.693,0,1,0,0-3.385Z" transform="translate(-40.593 -159.038)" fill="#4dc4ef" fill-rule="evenodd"/>
      <path id="Path_461" data-name="Path 461" d="M358,191.445a1.693,1.693,0,1,0,1.693,1.693A1.7,1.7,0,0,0,358,191.445Z" transform="translate(-223.722 -159.038)" fill="#4dc4ef" fill-rule="evenodd"/>
    </g>
  </g>
</svg>
