<svg xmlns="http://www.w3.org/2000/svg" width="187.314" height="40" viewBox="0 0 187.314 40">
  <g id="Microsoft" transform="translate(514 -221)">
    <path id="Path_134" data-name="Path 134" d="M-514,221h19.029q0,9.514,0,19.029H-514V221Z" fill="#9aa9b7"/>
    <path id="Path_135" data-name="Path 135" d="M-330.5,221h19.029q0,9.514,0,19.029-9.513,0-19.026,0,0-9.514,0-19.029Z" transform="translate(-162.526)" fill="#9aa9b7"/>
    <path id="Path_136" data-name="Path 136" d="M945.157,276.525a7.468,7.468,0,0,1,6-.7c.017,1.175,0,2.351.008,3.527a3.923,3.923,0,0,0-3.033-.278,2.4,2.4,0,0,0-1.373,1.92,25.9,25.9,0,0,0-.077,3.081c2.007,0,4.014,0,6.021,0,.015-1.3-.016-2.607.017-3.91,1.365-.389,2.714-.824,4.072-1.233.011,1.717-.016,3.434.015,5.152,1.357-.019,2.714,0,4.072-.009v3.342c-1.362-.056-2.726-.015-4.088-.019.006,1.921,0,3.842,0,5.765.022,1.064-.057,2.134.067,3.194a2.07,2.07,0,0,0,.889,1.641,3.066,3.066,0,0,0,3.129-.294v3.375a8.046,8.046,0,0,1-3.762.576,4.576,4.576,0,0,1-3.245-1.488,6.143,6.143,0,0,1-1.162-3.927c-.01-2.949,0-5.9,0-8.847q-3.012,0-6.023,0,0,6.941,0,13.882h-4.115q0-6.939,0-13.878c-.954-.018-1.91,0-2.864-.015,0-1.1.008-2.2,0-3.3.95-.022,1.9-.013,2.853-.006a17.543,17.543,0,0,1,.283-4.386,5.613,5.613,0,0,1,2.321-3.168Z" transform="translate(-1287.563 -48.274)" fill="#9aa9b7"/>
    <path id="Path_137" data-name="Path 137" d="M200.282,286.314a2.517,2.517,0,0,1,2.278.807,2.346,2.346,0,0,1,.286,2.673,2.56,2.56,0,0,1-2.739,1.147,2.327,2.327,0,0,1-1.911-2.293,2.382,2.382,0,0,1,2.087-2.335Z" transform="translate(-630.8 -57.824)" fill="#9aa9b7"/>
    <path id="Path_138" data-name="Path 138" d="M-59.51,290.982h5.985q2.794,7.1,5.6,14.186c.477,1.183.922,2.379,1.422,3.553,2.4-5.911,4.827-11.807,7.206-17.726,1.919-.031,3.839-.007,5.759-.011q-.007,12,0,24c-1.385,0-2.769.011-4.153-.008.015-5.9,0-11.806.007-17.71,0-.265-.007-.53-.025-.8a3.172,3.172,0,0,0-.216.384c-2.378,6.042-4.8,12.067-7.167,18.115-.985.035-1.971,0-2.958.018-2.454-6.042-4.877-12.1-7.318-18.145-.064-.126-.133-.248-.207-.366-.05,2.586-.008,5.175-.022,7.761q0,5.373,0,10.745c-1.306,0-2.613,0-3.918,0q0-12,0-24Z" transform="translate(-402.547 -61.982)" fill="#9aa9b7"/>
    <path id="Path_139" data-name="Path 139" d="M267.468,347.145a11.266,11.266,0,0,1,6.113.018,4.932,4.932,0,0,1,1.174.489c-.023,1.311,0,2.623-.013,3.935a6.538,6.538,0,0,0-4.7-1.443,4.833,4.833,0,0,0-3.418,1.9,6.638,6.638,0,0,0-1.09,4.765,5.158,5.158,0,0,0,1.663,3.419,5.211,5.211,0,0,0,3.85,1.146,7.841,7.841,0,0,0,3.693-1.515c.011,1.242-.006,2.485.009,3.727a10.009,10.009,0,0,1-5.625,1.165,8.341,8.341,0,0,1-5.361-2.235,8.572,8.572,0,0,1-2.49-5.758,10.425,10.425,0,0,1,1.627-6.385,8.279,8.279,0,0,1,4.566-3.225Z" transform="translate(-686.66 -111.362)" fill="#9aa9b7"/>
    <path id="Path_140" data-name="Path 140" d="M671.328,346.909a10.886,10.886,0,0,1,5.7.593c0,1.262,0,2.522,0,3.783a7.252,7.252,0,0,0-4.322-1.277,2.213,2.213,0,0,0-1.966,1.087,1.778,1.778,0,0,0,.6,2.105c1.167.781,2.559,1.112,3.768,1.811a5.42,5.42,0,0,1,2.358,2.242,5.02,5.02,0,0,1-1.071,5.791,7.872,7.872,0,0,1-5.727,1.739,12.236,12.236,0,0,1-4.184-.96c.006-1.327-.008-2.653.007-3.978a9,9,0,0,0,3.734,1.611,4.805,4.805,0,0,0,2.84-.261,1.644,1.644,0,0,0,.491-2.338,4.948,4.948,0,0,0-1.8-1.176,17.217,17.217,0,0,1-3.552-1.818,4.258,4.258,0,0,1-1.537-2.335,5.246,5.246,0,0,1,.569-4.105,6.128,6.128,0,0,1,4.095-2.515Z" transform="translate(-1045.565 -111.388)" fill="#9aa9b7"/>
    <path id="Path_141" data-name="Path 141" d="M411.906,348.26a4.642,4.642,0,0,1,3.819-.322c-.006,1.373,0,2.745,0,4.118a4.374,4.374,0,0,0-2.782-.654,3.417,3.417,0,0,0-2.574,2.058,7.605,7.605,0,0,0-.586,3.512q0,4.113,0,8.225h-4.057q-.005-8.6,0-17.192c1.354-.017,2.709-.01,4.063,0-.006.984,0,1.968,0,2.953a5.27,5.27,0,0,1,2.127-2.695Z" transform="translate(-814.609 -112.197)" fill="#9aa9b7"/>
    <path id="Path_142" data-name="Path 142" d="M201.48,350.473c1.365-.006,2.73-.019,4.095.007-.016,5.729,0,11.459-.007,17.189h-4.086q-.005-8.6,0-17.2Z" transform="translate(-633.711 -114.668)" fill="#9aa9b7"/>
    <path id="Path_143" data-name="Path 143" d="M512.088,351.17a7.278,7.278,0,0,0-3.594-3.633,10.92,10.92,0,0,0-5.891-.695,8.212,8.212,0,0,0-5.41,2.891,9.168,9.168,0,0,0-1.9,5.256,9.873,9.873,0,0,0,1.507,6.424,7.793,7.793,0,0,0,4.754,3.1,11.819,11.819,0,0,0,4.818,0A7.965,7.965,0,0,0,511.1,361.6a9.122,9.122,0,0,0,1.809-5.008A11.284,11.284,0,0,0,512.088,351.17Zm-3.975,7.895a3.759,3.759,0,0,1-2.022,1.986,5.549,5.549,0,0,1-3.354.147,4.107,4.107,0,0,1-2.579-2.128,7.939,7.939,0,0,1-.625-4.305,5.468,5.468,0,0,1,1.59-3.589,4.3,4.3,0,0,1,2.707-1.069,4.429,4.429,0,0,1,3.442,1.168,5.551,5.551,0,0,1,1.421,3.585A9.013,9.013,0,0,1,508.113,359.065Z" transform="translate(-893.912 -111.355)" fill="#9aa9b7"/>
    <path id="Path_144" data-name="Path 144" d="M798.934,351.669a7.343,7.343,0,0,0-3.535-4,10.659,10.659,0,0,0-6.109-.83,8.52,8.52,0,0,0-4.547,1.951,8.426,8.426,0,0,0-2.714,5.282,11.389,11.389,0,0,0,.647,5.975,7.627,7.627,0,0,0,4.181,4.056,11.067,11.067,0,0,0,5.8.49,8.038,8.038,0,0,0,5.059-2.958,9.41,9.41,0,0,0,1.862-5.858A10.963,10.963,0,0,0,798.934,351.669Zm-3.712,5.831a5.362,5.362,0,0,1-1.064,2.525,3.852,3.852,0,0,1-2.4,1.294,5.439,5.439,0,0,1-2.944-.32,4.17,4.17,0,0,1-2.17-2.271,8.167,8.167,0,0,1-.488-3.747,5.946,5.946,0,0,1,1.247-3.425,4.21,4.21,0,0,1,3-1.441,4.513,4.513,0,0,1,3.3.973,4.719,4.719,0,0,1,1.489,2.738A10.451,10.451,0,0,1,795.222,357.5Z" transform="translate(-1147.8 -111.357)" fill="#9aa9b7"/>
    <path id="Path_145" data-name="Path 145" d="M-514,404.49q9.514,0,19.029,0,0,9.514,0,19.027H-514V404.49Z" transform="translate(0 -162.52)" fill="#9aa9b7"/>
    <path id="Path_146" data-name="Path 146" d="M-330.5,404.5q9.513,0,19.027,0v19.029H-330.5q0-9.514,0-19.027Z" transform="translate(-162.529 -162.526)" fill="#9aa9b7"/>
  </g>
</svg>
