<svg xmlns="http://www.w3.org/2000/svg" width="149.053" height="40" viewBox="0 0 149.053 40">
  <g id="Netflix" transform="translate(-69 -227.032)">
    <path id="Path_110" data-name="Path 110" d="M89.437,227.034H83.162c-.012,8.533-.024,14.059-.036,22.592-2.7-8.327-5.4-13.839-8.1-22.592H69v40c2.034-.289,4.212-.567,6.248-.833.006-8.36.012-13.5.018-21.86,2.8,8.229,4.524,13.083,7.318,20.9,2.19-.25,4.6-.558,6.788-.78q.033-18.715.065-37.431" fill="#9aa9b7"/>
    <path id="Path_111" data-name="Path 111" d="M163.032,227.034H145.649q-.035,18.452-.07,36.9,8.722-.793,17.461-1.3c0-1.8.007-4.384.01-6.182-3.788.233-7.412.475-11.187.729.007-3.307.013-6.042.02-9.35,2.759-.048,5.673-.006,8.49-.054,0-1.808.007-4.4.01-6.21-2.793.049-5.742.055-8.49.107.007-3.307.013-5.121.019-8.429,1.729-.021,3.423-.024,5.114-.024H158.8c1.41,0,2.826,0,4.267-.014,0-1.8-.042-4.383-.039-6.181" transform="translate(-50.157)" fill="#9aa9b7"/>
    <path id="Path_112" data-name="Path 112" d="M227.311,227.114H207.955c0,1.787-.006,4.361-.009,6.148q.417,0,.833,0c.841,0,1.682.008,2.523.017s1.68.016,2.521.016h.647c-.013,9.917-.026,18.975-.039,28.892,2.048-.076,4.239-.14,6.288-.193.009-9.863.019-18.866.028-28.729,2.164-.009,4.4-.015,6.563-.019,0-1.757,0-4.372,0-6.128" transform="translate(-91.005 -0.052)" fill="#9aa9b7"/>
    <path id="Path_113" data-name="Path 113" d="M293.319,227.034H275.864q0,17.368,0,34.736c.675,0,1.357,0,2.042,0,1.4,0,2.8.005,4.177.016,0-4.914,0-9.4,0-14.312l1.037,0c.811,0,1.636,0,2.464-.007s1.66-.007,2.484-.007c.849,0,1.691,0,2.514.015,0-1.762,0-4.382,0-6.144-.777-.008-1.571-.011-2.373-.011-.859,0-1.727,0-2.591.006s-1.723.006-2.568.006h-.964c0-3.159,0-4.942,0-8.1h6.179c1.686,0,3.374,0,5.076.01,0-1.766,0-4.439-.005-6.2" transform="translate(-135.486)" fill="#9aa9b7"/>
    <path id="Path_114" data-name="Path 114" d="M338.216,227.115c.016,11.69-.041,23.381-.026,35.071,5.581.208,11.445.433,17.018.818,0-1.8-.007-4.384-.01-6.183-3.528-.208-7.2-.456-10.73-.6-.016-10.012.039-19.092.023-29.1h-6.275" transform="translate(-176.31 -0.053)" fill="#9aa9b7"/>
    <path id="Path_115" data-name="Path 115" d="M402.444,227.118q.036,18.134.071,36.269c2.045.158,4.16.327,6.2.509q.011-18.376,0-36.778h-6.275" transform="translate(-218.396 -0.055)" fill="#9aa9b7"/>
    <path id="Path_116" data-name="Path 116" d="M435.014,227.12c2.509,6.113,4.8,12.243,7.353,18.735-2.648,6.235-5.344,12.43-7.99,18.411,2.191.216,4.459.533,6.648.777,1.571-3.852,3-6.818,4.572-10.774,1.57,4.215,3,7.47,4.563,11.821,2.186.283,5.02.69,7.2,1-2.647-7.075-5.542-14.442-8.2-21.129,2.65-6.28,5.355-12.274,8.108-18.84h-6.852c-1.7,4.058-2.868,6.665-4.5,10.528-1.517-4.019-2.535-6.62-4.054-10.529h-6.852" transform="translate(-239.311 -0.056)" fill="#9aa9b7"/>
  </g>
</svg>
