<svg xmlns="http://www.w3.org/2000/svg" width="97.065" height="90" viewBox="0 0 97.065 90">
  <g id="Icon" transform="translate(-478.084 -194)">
    <g id="Group_215" data-name="Group 215" transform="translate(478.085 194)">
      <g id="Group_206" data-name="Group 206" transform="translate(0)">
        <path id="Path_617" data-name="Path 617" d="M568.837,264.977H484.4a6.32,6.32,0,0,1-6.313-6.313V200.313A6.32,6.32,0,0,1,484.4,194h84.44a6.32,6.32,0,0,1,6.313,6.313v58.352A6.32,6.32,0,0,1,568.837,264.977ZM484.4,196.065a4.252,4.252,0,0,0-4.247,4.247v58.352a4.252,4.252,0,0,0,4.247,4.247h84.44a4.252,4.252,0,0,0,4.247-4.247V200.313a4.252,4.252,0,0,0-4.247-4.247Z" transform="translate(-478.085 -194)" fill="#4dc4ef"/>
      </g>
      <g id="Group_210" data-name="Group 210" transform="translate(26.55 68.921)">
        <g id="Group_207" data-name="Group 207" transform="translate(34.793)">
          <path id="Path_618" data-name="Path 618" d="M738.123,502.957a1.032,1.032,0,0,1-1.033-1.033V486.03a1.033,1.033,0,0,1,2.065,0v15.893A1.032,1.032,0,0,1,738.123,502.957Z" transform="translate(-737.09 -484.998)" fill="#4dc4ef"/>
        </g>
        <g id="Group_208" data-name="Group 208" transform="translate(7.124)">
          <path id="Path_619" data-name="Path 619" d="M621.3,502.936a1.032,1.032,0,0,1-1.033-1.033V486.03a1.033,1.033,0,0,1,2.065,0V501.9A1.032,1.032,0,0,1,621.3,502.936Z" transform="translate(-620.267 -484.998)" fill="#4dc4ef"/>
        </g>
        <g id="Group_209" data-name="Group 209" transform="translate(0 14.065)">
          <path id="Path_620" data-name="Path 620" d="M591.22,551.4a1.033,1.033,0,0,1-.442-1.966c.437-.206,10.819-5.047,21.266-5.047,10.727,0,21.1,4.841,21.533,5.047a1.032,1.032,0,0,1-.881,1.867c-.1-.048-10.4-4.849-20.652-4.849-9.989,0-20.282,4.8-20.385,4.849A1.024,1.024,0,0,1,591.22,551.4Z" transform="translate(-590.186 -544.384)" fill="#4dc4ef"/>
        </g>
      </g>
      <g id="Group_211" data-name="Group 211" transform="translate(0 58.198)">
        <path id="Path_621" data-name="Path 621" d="M574.117,441.79h-95a1.033,1.033,0,1,1,0-2.065h95a1.033,1.033,0,1,1,0,2.065Z" transform="translate(-478.085 -439.725)" fill="#4dc4ef"/>
      </g>
      <g id="Group_212" data-name="Group 212" transform="translate(86.373 63.674)">
        <path id="Path_622" data-name="Path 622" d="M843.824,464.889a1.086,1.086,0,0,1-.743-.289,1.145,1.145,0,0,1-.31-.743,1.054,1.054,0,0,1,.31-.723,1.081,1.081,0,0,1,1.466,0,1.034,1.034,0,0,1,.289.723.99.99,0,0,1-1.013,1.033Z" transform="translate(-842.771 -462.847)" fill="#4dc4ef"/>
      </g>
      <g id="Group_213" data-name="Group 213" transform="translate(81.495 63.674)">
        <path id="Path_623" data-name="Path 623" d="M823.226,464.889a1.085,1.085,0,0,1-.743-.289,1.144,1.144,0,0,1-.31-.743,1.054,1.054,0,0,1,.31-.723,1.081,1.081,0,0,1,1.466,0,1.034,1.034,0,0,1,.289.723.99.99,0,0,1-1.013,1.033Z" transform="translate(-822.173 -462.847)" fill="#4dc4ef"/>
      </g>
      <g id="Group_214" data-name="Group 214" transform="translate(76.344 63.674)">
        <path id="Path_624" data-name="Path 624" d="M801.479,464.889a1.085,1.085,0,0,1-.743-.289,1.145,1.145,0,0,1-.31-.743,1.054,1.054,0,0,1,.31-.723,1.081,1.081,0,0,1,1.466,0,1.035,1.035,0,0,1,.289.723.99.99,0,0,1-1.013,1.033Z" transform="translate(-800.426 -462.847)" fill="#4dc4ef"/>
      </g>
    </g>
    <g id="Group_223" data-name="Group 223" transform="translate(507.333 208.39)">
      <g id="Group_222" data-name="Group 222" transform="translate(0 0)">
        <g id="Group_216" data-name="Group 216" transform="translate(14.737 23.319)">
          <path id="Path_625" data-name="Path 625" d="M669.294,355.241a3.308,3.308,0,1,0,2.34.968A3.292,3.292,0,0,0,669.294,355.241Zm1.82,5.129a2.636,2.636,0,0,1-3.64,0,2.574,2.574,0,1,1,3.64,0Z" transform="translate(-665.467 -354.761)" fill="#4dc4ef"/>
          <path id="Path_626" data-name="Path 626" d="M667.629,360.828a3.825,3.825,0,0,1-2.705-6.53,3.917,3.917,0,0,1,5.41,0,3.825,3.825,0,0,1-2.7,6.53Zm0-5.883a2.046,2.046,0,1,0,0,4.091h0a2.06,2.06,0,0,0,1.452-.578h0a2.057,2.057,0,0,0-1.453-3.513Z" transform="translate(-663.802 -353.214)" fill="#4dc4ef"/>
        </g>
        <g id="Group_217" data-name="Group 217" transform="translate(10.402 15.925)">
          <path id="Path_627" data-name="Path 627" d="M655.319,324.176a10.592,10.592,0,0,0-7.54,3.126.368.368,0,0,0,.52.52,9.923,9.923,0,0,1,14.04,0,.368.368,0,0,0,.521-.52A10.6,10.6,0,0,0,655.319,324.176Z" transform="translate(-647.156 -323.659)" fill="#4dc4ef"/>
          <path id="Path_628" data-name="Path 628" d="M646.378,326.781a.883.883,0,0,1-.625-1.508,11.173,11.173,0,0,1,15.811,0,.887.887,0,0,1,0,1.249.9.9,0,0,1-1.251,0,9.4,9.4,0,0,0-13.312,0A.879.879,0,0,1,646.378,326.781Z" transform="translate(-645.495 -321.995)" fill="#4dc4ef"/>
        </g>
        <g id="Group_218" data-name="Group 218" transform="translate(5.199 8.568)">
          <path id="Path_629" data-name="Path 629" d="M638.558,293.115a17.9,17.9,0,0,0-12.741,5.281.368.368,0,0,0,.52.52,17.274,17.274,0,0,1,24.442,0,.368.368,0,0,0,.521-.52A17.905,17.905,0,0,0,638.558,293.115Z" transform="translate(-625.192 -292.599)" fill="#4dc4ef"/>
          <path id="Path_630" data-name="Path 630" d="M624.412,297.876a.883.883,0,0,1-.625-1.509,18.525,18.525,0,0,1,26.211,0,.886.886,0,0,1,0,1.251.909.909,0,0,1-1.248,0,16.755,16.755,0,0,0-23.714,0A.878.878,0,0,1,624.412,297.876Zm25.064-.989h0Z" transform="translate(-623.528 -290.935)" fill="#4dc4ef"/>
        </g>
        <g id="Group_219" data-name="Group 219" transform="translate(0 1.204)">
          <path id="Path_631" data-name="Path 631" d="M629.049,263.858a.368.368,0,0,0,.216-.7,25.333,25.333,0,0,0-25.405,6.319.368.368,0,0,0,.521.52A24.6,24.6,0,0,1,629.049,263.858Z" transform="translate(-603.236 -261.511)" fill="#4dc4ef"/>
          <path id="Path_632" data-name="Path 632" d="M602.46,268.948a.877.877,0,0,1-.625-.258.887.887,0,0,1,0-1.251,25.833,25.833,0,0,1,25.922-6.447.884.884,0,1,1-.52,1.689,24.074,24.074,0,0,0-24.151,6.008A.9.9,0,0,1,602.46,268.948Z" transform="translate(-601.577 -259.842)" fill="#4dc4ef"/>
        </g>
        <g id="Group_220" data-name="Group 220" transform="translate(28.235)">
          <path id="Path_633" data-name="Path 633" d="M726.661,255.847a4.78,4.78,0,1,0,4.78,4.78A4.786,4.786,0,0,0,726.661,255.847Zm0,8.825a4.045,4.045,0,1,1,4.045-4.045A4.05,4.05,0,0,1,726.661,264.672Z" transform="translate(-721.623 -255.589)" fill="#4dc4ef"/>
          <path id="Path_634" data-name="Path 634" d="M725.829,264.834a5.038,5.038,0,1,1,5.038-5.039A5.045,5.045,0,0,1,725.829,264.834Zm0-9.561a4.522,4.522,0,1,0,4.522,4.522A4.528,4.528,0,0,0,725.829,255.273Zm0,8.826a4.3,4.3,0,1,1,4.3-4.3A4.308,4.308,0,0,1,725.829,264.1Zm0-8.091a3.787,3.787,0,1,0,3.788,3.787A3.79,3.79,0,0,0,725.829,256.008Z" transform="translate(-720.791 -254.757)" fill="#4dc4ef"/>
        </g>
        <g id="Group_221" data-name="Group 221" transform="translate(31.177 2.94)">
          <path id="Path_635" data-name="Path 635" d="M737.873,268.374a.368.368,0,0,0-.52,0l-1.211,1.211-1.211-1.21a.368.368,0,1,0-.52.52l1.21,1.21-1.21,1.211a.368.368,0,0,0,0,.52.364.364,0,0,0,.26.108.369.369,0,0,0,.26-.107l1.211-1.211,1.211,1.211a.368.368,0,1,0,.521-.519l-1.211-1.211,1.211-1.21A.368.368,0,0,0,737.873,268.374Z" transform="translate(-734.046 -268.007)" fill="#4dc4ef"/>
          <path id="Path_636" data-name="Path 636" d="M736.78,271.367a.624.624,0,0,1-.444-.185l-1.026-1.028-1.026,1.029a.641.641,0,0,1-.89,0,.628.628,0,0,1,0-.881l1.029-1.029-1.029-1.028a.627.627,0,0,1,.887-.885l1.026,1.029,1.031-1.029a.64.64,0,0,1,.883,0l0,0a.627.627,0,0,1,0,.885l-1.027,1.027,1.031,1.03a.626.626,0,0,1-.446,1.068Zm-1.47-1.942,1.394,1.393a.11.11,0,0,0,.157,0,.107.107,0,0,0,0-.153l-1.394-1.395,1.391-1.393a.109.109,0,0,0,0-.155.126.126,0,0,0-.155,0l-1.4,1.395-1.394-1.394a.108.108,0,0,0-.153,0,.107.107,0,0,0,0,.155l1.391,1.393-1.391,1.394a.106.106,0,0,0,0,.154c.079.083.121.031.155,0Z" transform="translate(-733.214 -267.171)" fill="#4dc4ef"/>
        </g>
      </g>
    </g>
  </g>
</svg>
