<svg xmlns="http://www.w3.org/2000/svg" width="97.064" height="90" viewBox="0 0 97.064 90">
  <g id="Group_231" data-name="Group 231" transform="translate(-1394 -15955)">
    <g id="Icon" transform="translate(1327 15979)">
      <g id="Group_205" data-name="Group 205" transform="translate(64.5 -28.21)">
        <g id="Group_198" data-name="Group 198" transform="translate(2.5 4.21)">
          <g id="Group_189" data-name="Group 189">
            <path id="Path_601" data-name="Path 601" d="M93.251,75.187H8.813A6.319,6.319,0,0,1,2.5,68.875V10.523A6.321,6.321,0,0,1,8.813,4.21H93.251a6.321,6.321,0,0,1,6.313,6.313V68.875A6.319,6.319,0,0,1,93.251,75.187ZM8.813,6.275a4.254,4.254,0,0,0-4.248,4.248V68.875a4.252,4.252,0,0,0,4.248,4.246H93.251A4.252,4.252,0,0,0,97.5,68.875V10.523a4.254,4.254,0,0,0-4.248-4.248Z" transform="translate(-2.5 -4.21)" fill="#4dc4ef"/>
          </g>
          <g id="Group_193" data-name="Group 193" transform="translate(26.55 68.922)">
            <g id="Group_190" data-name="Group 190" transform="translate(34.792)">
              <path id="Path_602" data-name="Path 602" d="M33.236,55.54A1.032,1.032,0,0,1,32.2,54.507V38.616a1.033,1.033,0,1,1,2.065,0V54.507A1.032,1.032,0,0,1,33.236,55.54Z" transform="translate(-32.203 -37.583)" fill="#4dc4ef"/>
            </g>
            <g id="Group_191" data-name="Group 191" transform="translate(7.125)">
              <path id="Path_603" data-name="Path 603" d="M19.839,55.521a1.032,1.032,0,0,1-1.033-1.033V38.616a1.033,1.033,0,1,1,2.065,0V54.489A1.033,1.033,0,0,1,19.839,55.521Z" transform="translate(-18.806 -37.583)" fill="#4dc4ef"/>
            </g>
            <g id="Group_192" data-name="Group 192" transform="translate(0 14.064)">
              <path id="Path_604" data-name="Path 604" d="M16.389,51.406a1.032,1.032,0,0,1-.44-1.966c.436-.207,10.817-5.047,21.265-5.047,10.727,0,21.1,4.841,21.534,5.047a1.032,1.032,0,0,1-.882,1.867c-.1-.048-10.4-4.849-20.652-4.849-9.989,0-20.282,4.8-20.386,4.849A1.012,1.012,0,0,1,16.389,51.406Z" transform="translate(-15.356 -44.393)" fill="#4dc4ef"/>
            </g>
          </g>
          <g id="Group_194" data-name="Group 194" transform="translate(0 58.199)">
            <path id="Path_605" data-name="Path 605" d="M98.532,34.456h-95a1.033,1.033,0,1,1,0-2.065h95a1.033,1.033,0,1,1,0,2.065Z" transform="translate(-2.5 -32.391)" fill="#4dc4ef"/>
          </g>
          <g id="Group_195" data-name="Group 195" transform="translate(86.373 63.675)">
            <path id="Path_606" data-name="Path 606" d="M45.376,37.084a1.082,1.082,0,0,1-.743-.289,1.143,1.143,0,0,1-.31-.743,1.052,1.052,0,0,1,.31-.723,1.081,1.081,0,0,1,1.466,0,1.032,1.032,0,0,1,.289.723.989.989,0,0,1-1.012,1.033Z" transform="translate(-44.323 -35.042)" fill="#4dc4ef"/>
          </g>
          <g id="Group_196" data-name="Group 196" transform="translate(81.495 63.675)">
            <path id="Path_607" data-name="Path 607" d="M43.012,37.084a1.081,1.081,0,0,1-.741-.289,1.143,1.143,0,0,1-.31-.743,1.052,1.052,0,0,1,.31-.723,1.079,1.079,0,0,1,1.464,0,1.034,1.034,0,0,1,.291.723,1.123,1.123,0,0,1-.291.743A1.105,1.105,0,0,1,43.012,37.084Z" transform="translate(-41.961 -35.042)" fill="#4dc4ef"/>
          </g>
          <g id="Group_197" data-name="Group 197" transform="translate(76.344 63.675)">
            <path id="Path_608" data-name="Path 608" d="M40.518,37.084a1.081,1.081,0,0,1-.741-.289,1.143,1.143,0,0,1-.31-.743,1.052,1.052,0,0,1,.31-.723,1.079,1.079,0,0,1,1.464,0,1.034,1.034,0,0,1,.291.723,1.123,1.123,0,0,1-.291.743A1.109,1.109,0,0,1,40.518,37.084Z" transform="translate(-39.467 -35.042)" fill="#4dc4ef"/>
          </g>
        </g>
        <g id="Group_204" data-name="Group 204" transform="translate(31.687 20.013)">
          <g id="Group_203" data-name="Group 203" transform="translate(0)">
            <g id="Group_199" data-name="Group 199" transform="translate(14.797 21.906)">
              <path id="Path_609" data-name="Path 609" d="M27.357,22.7a3.31,3.31,0,1,0,2.34.969A3.294,3.294,0,0,0,27.357,22.7Zm1.819,5.128a2.634,2.634,0,0,1-3.639,0,2.575,2.575,0,1,1,3.639,0Z" transform="translate(-23.531 -22.222)" fill="#4dc4ef"/>
              <path id="Path_610" data-name="Path 610" d="M27.625,30.083a3.825,3.825,0,0,1-2.705-6.53,3.919,3.919,0,0,1,5.411,0,3.825,3.825,0,0,1-2.705,6.53Zm0-5.882a2.046,2.046,0,1,0,0,4.091h0a2.059,2.059,0,0,0,1.452-.578h0a2.057,2.057,0,0,0,0-2.912A2.041,2.041,0,0,0,27.627,24.2Z" transform="translate(-23.798 -22.469)" fill="#4dc4ef"/>
            </g>
            <g id="Group_200" data-name="Group 200" transform="translate(10.462 14.512)">
              <path id="Path_611" data-name="Path 611" d="M29.595,19.139a10.589,10.589,0,0,0-7.538,3.127.367.367,0,0,0,.518.52,9.919,9.919,0,0,1,14.041,0,.368.368,0,0,0,.52-.52A10.6,10.6,0,0,0,29.595,19.139Z" transform="translate(-21.433 -18.623)" fill="#4dc4ef"/>
              <path id="Path_612" data-name="Path 612" d="M22.581,23.676a.884.884,0,0,1-.624-1.51,11.171,11.171,0,0,1,15.809,0,.886.886,0,0,1,0,1.249.9.9,0,0,1-1.249,0,9.406,9.406,0,0,0-13.312,0A.883.883,0,0,1,22.581,23.676Z" transform="translate(-21.699 -18.889)" fill="#4dc4ef"/>
            </g>
            <g id="Group_201" data-name="Group 201" transform="translate(5.26 7.156)">
              <path id="Path_613" data-name="Path 613" d="M32.278,15.577a17.9,17.9,0,0,0-12.74,5.281.368.368,0,0,0,.52.52,17.273,17.273,0,0,1,24.442,0,.361.361,0,0,0,.26.107.368.368,0,0,0,.26-.628A17.915,17.915,0,0,0,32.278,15.577Z" transform="translate(-18.914 -15.061)" fill="#4dc4ef"/>
              <path id="Path_614" data-name="Path 614" d="M20.064,22.268a.883.883,0,0,1-.626-1.508,18.522,18.522,0,0,1,26.211,0,.885.885,0,0,1,0,1.249.907.907,0,0,1-1.247,0,16.757,16.757,0,0,0-23.715,0A.871.871,0,0,1,20.064,22.268Zm25.063-.989h0Z" transform="translate(-19.18 -15.327)" fill="#4dc4ef"/>
            </g>
            <g id="Group_202" data-name="Group 202" opacity="0.99">
              <path id="Path_615" data-name="Path 615" d="M35.1,12.012a25.82,25.82,0,0,0-18.161,7.36.505.505,0,0,0,0,.725.532.532,0,0,0,.741,0,25.024,25.024,0,0,1,34.84,0,.528.528,0,0,0,.372.151.52.52,0,0,0,.37-.151.505.505,0,0,0,0-.725A25.817,25.817,0,0,0,35.1,12.012Z" transform="translate(-16.473 -11.702)" fill="#4dc4ef"/>
              <path id="Path_616" data-name="Path 616" d="M53.049,20.718a.839.839,0,0,1-.591-.24,24.71,24.71,0,0,0-34.4,0,.843.843,0,0,1-1.175,0,.815.815,0,0,1,0-1.167,26.4,26.4,0,0,1,36.756,0,.818.818,0,0,1,0,1.167A.842.842,0,0,1,53.049,20.718ZM35.257,12.482a25.511,25.511,0,0,0-17.944,7.274.194.194,0,0,0-.06.14.2.2,0,0,0,.058.14.225.225,0,0,0,.31,0,25.331,25.331,0,0,1,35.271,0c.155.149.246.064.312,0a.2.2,0,0,0,.058-.14.19.19,0,0,0-.06-.14A25.511,25.511,0,0,0,35.257,12.482Z" transform="translate(-16.633 -11.862)" fill="#4dc4ef"/>
            </g>
          </g>
        </g>
      </g>
    </g>
  </g>
</svg>
