<svg xmlns="http://www.w3.org/2000/svg" width="61.871" height="46.91" viewBox="0 0 61.871 46.91">
  <path id="Path_422" data-name="Path 422" d="M-33.474-177.513v-1.336q7.664-4.007,10.956-9.875a22.68,22.68,0,0,0,3.293-11.02q0-5.629-2.395-5.629h-6.107a10.235,10.235,0,0,1-6.107-2.958,8,8,0,0,1-2.275-5.725,6.608,6.608,0,0,1,3.233-6.011,14.026,14.026,0,0,1,7.544-2,15.119,15.119,0,0,1,7.9,2.147,15.381,15.381,0,0,1,5.688,6.011,18.015,18.015,0,0,1,2.1,8.73q0,8.778-6.466,16.554A35.424,35.424,0,0,1-33.474-177.513Zm33.408,0v-1.336q7.424-4.007,10.717-10.018t3.293-10.877q0-5.629-2.515-5.629-1.8,0-3.712.048a15.24,15.24,0,0,1-2.395-.048,10.413,10.413,0,0,1-6.047-2.958,7.892,7.892,0,0,1-2.335-5.725,6.582,6.582,0,0,1,3.353-5.963,14.165,14.165,0,0,1,7.544-2.051A15.07,15.07,0,0,1,19.213-217.3a16.848,16.848,0,0,1,4.55,12.117q0,8.778-6.466,16.554A35.424,35.424,0,0,1-.066-177.513Z" transform="translate(37.108 223.07)" fill="none" stroke="#4dc4ef" stroke-width="2" opacity="0.75"/>
</svg>
