<svg xmlns="http://www.w3.org/2000/svg" width="160" height="27.902" viewBox="0 0 160 27.902">
  <g id="Sony" transform="translate(-588.793 -368.096)">
    <path id="Path_354" data-name="Path 354" d="M772.669,394.442a2.486,2.486,0,1,0,2.48,2.48,2.486,2.486,0,0,0-2.48-2.48Zm0,4.674a2.187,2.187,0,1,1,2.181-2.194,2.185,2.185,0,0,1-2.181,2.194Z" transform="translate(-26.356 -3.92)" fill="#9aa9b7" fill-rule="evenodd"/>
    <path id="Path_355" data-name="Path 355" d="M774.175,396.432a.682.682,0,0,0-.312-.6,1.279,1.279,0,0,0-.677-.137h-1.211v2.78h.339v-1.283h.624l.794,1.283h.4l-.84-1.283h0c.494-.013.878-.215.878-.761Zm-1.34.494h-.521v-.983h.794c.345,0,.723.052.723.481,0,.567-.605.5-1,.5Z" transform="translate(-26.586 -4.08)" fill="#9aa9b7" fill-rule="evenodd"/>
    <path id="Path_356" data-name="Path 356" d="M753.111,379.4l5.084-5.316h0a1.675,1.675,0,0,0,.441-.9c0-.39-.343-.547-1.42-.547h-1.283v-3.356h13.884v3.356h-1.825c-2.107,0-2.5.312-5.437,3.941h0l-8.043,8.506v5.191h0c0,1.327.685,1.794,2.646,1.794h3.036v3.239H740.748v-3.239h3.038c1.958,0,2.645-.467,2.645-1.794h0V385.09l-9.472-10.263h0c-1.567-1.794-1.35-2.185-5.708-2.185h0v-3.356h17.587v3.356h-1.253c-1.274,0-1.813.234-1.813.7,0,.391.391.7.637,1.015h0l4.792,5.115h0a1.179,1.179,0,0,0,1.911-.071Z" transform="translate(-21.373 -0.152)" fill="#9aa9b7" fill-rule="evenodd"/>
    <path id="Path_357" data-name="Path 357" d="M616.88,369.146h4.241v9.377H617.2c-.346-1.874-1.542-2.6-2.634-3.587-1.968-1.773-6.229-3.25-9.815-3.25-4.626,0-8.531,1.407-8.531,3.477,0,5.745,26.46,1.173,26.46,12.035,0,5.666-5.668,8.831-15.846,8.831a30.331,30.331,0,0,1-12-2.712c-.986-.558-1.4.528-1.59,1.891H588.9v-9.69h3.933c.868,2.463,2.064,2.97,3.163,3.946,1.908,1.72,6.449,2.971,10.614,2.93,6.279-.061,8.438-1.407,8.438-3.361s-2.135-2.422-9.016-3.477h0l-5.842-.937h0c-6.592-.977-11.392-2.423-11.392-7.581,0-5.353,6.072-8.713,15.673-8.713,4.046,0,7.432.53,10.68,2.332.9.572,1.745.641,1.734-1.511Z" transform="translate(0 -0.029)" fill="#9aa9b7" fill-rule="evenodd"/>
    <path id="Path_358" data-name="Path 358" d="M711.428,385l.084-10.409h0c0-1.365-.725-1.834-2.8-1.834h-2.435v-3.238h15.495v3.238h-2.019c-2.074,0-2.8.469-2.8,1.834h0v20.956l-6.066-.045-19.639-18.217v13.228h0c0,1.327.726,1.834,2.8,1.834h2.7v3.2H680.651v-3.2h2.666c2.074,0,2.8-.506,2.8-1.834h0V374.589h0c0-1.365-.726-1.834-2.8-1.834h-2.666v-3.238h13.914L711.428,385Z" transform="translate(-13.818 -0.182)" fill="#9aa9b7" fill-rule="evenodd"/>
    <path id="Path_359" data-name="Path 359" d="M653.476,368.1c-12.349,0-20.079,5.353-20.079,13.948,0,8.441,7.623,13.753,19.7,13.753,12.83,0,20.294-5.235,20.294-14.183,0-8.048-8.054-13.519-19.918-13.519Zm-.281,24.3c-6.835,0-10.765-3.868-10.765-10.549,0-6.525,4.1-10.394,11.105-10.394,6.721,0,10.651,3.947,10.651,10.667,0,6.564-3.987,10.276-10.992,10.276Z" transform="translate(-6.7)" fill="#9aa9b7" fill-rule="evenodd"/>
  </g>
</svg>
