<svg xmlns="http://www.w3.org/2000/svg" width="114" height="95" viewBox="0 0 114 95">
  <g id="Group_4" data-name="Group 4" transform="translate(-5302 -3589)">
    <path id="Path_401" data-name="Path 401" d="M87.875,42.667H26.125A26.153,26.153,0,0,0,0,68.792v42.75a26.153,26.153,0,0,0,26.125,26.125h61.75A26.153,26.153,0,0,0,114,111.542V68.792A26.153,26.153,0,0,0,87.875,42.667Zm21.375,68.875a21.4,21.4,0,0,1-21.375,21.375H26.125A21.4,21.4,0,0,1,4.75,111.542V68.792A21.4,21.4,0,0,1,26.125,47.417h61.75A21.4,21.4,0,0,1,109.25,68.792v42.75Z" transform="translate(5302 3546.333)" fill="#4dc4ef"/>
    <path id="Path_401-2" data-name="Path 401" d="M57.812,42.667H17.187A17.206,17.206,0,0,0,0,59.854V87.979a17.206,17.206,0,0,0,17.187,17.187H57.812A17.206,17.206,0,0,0,75,87.979V59.854A17.206,17.206,0,0,0,57.812,42.667ZM71.875,87.979a14.08,14.08,0,0,1-14.062,14.062H17.187A14.08,14.08,0,0,1,3.125,87.979V59.854A14.08,14.08,0,0,1,17.187,45.792H57.812A14.08,14.08,0,0,1,71.875,59.854V87.979Z" transform="translate(5317.5 3562.583)" fill="#4dc4ef"/>
    <circle id="Ellipse_1" data-name="Ellipse 1" cx="3.5" cy="3.5" r="3.5" transform="translate(5398 3644)" fill="#4dc4ef"/>
    <circle id="Ellipse_2" data-name="Ellipse 2" cx="3.5" cy="3.5" r="3.5" transform="translate(5398 3633)" fill="#4dc4ef"/>
    <circle id="Ellipse_3" data-name="Ellipse 3" cx="3.5" cy="3.5" r="3.5" transform="translate(5398 3622)" fill="#4dc4ef"/>
  </g>
</svg>
