<svg xmlns="http://www.w3.org/2000/svg" width="60" height="54" viewBox="0 0 60 54">
  <g id="Group_101" data-name="Group 101" transform="translate(-493 -418)">
    <path id="Icon" d="M12.4,17.414c-.1-1.711-2.134-3.048-6.2-4.068a2.255,2.255,0,0,0,.215-.936v-7H6.392c-.358-5.828-24.24-6-26.983-6s-26.625.172-26.983,6h-.017v.13h0v6.869c.005,1.9,2.457,3.387,6.1,4.494a2.193,2.193,0,0,0-.09.507h-.015v.13h0V24.4c-3.93,1.012-5.893,2.33-5.99,4.013h-.01v.13h0v6.869c0,1.323,1.2,2.445,3.148,3.38a2.2,2.2,0,0,0-.133.622h-.015v.13h0v6.869c.008,3.326,7.5,5.391,15.818,6.355a.918.918,0,0,0,.182.037c.019,0,.035-.01.054-.011,1.6.181,3.234.322,4.847.423a.826.826,0,0,0,.1.02c.019,0,.034-.01.052-.011,2.048.124,4.063.187,5.948.187s3.9-.063,5.948-.188c.018,0,.034.011.052.011.035,0,.065-.017.1-.02,1.613-.1,3.243-.241,4.847-.423.019,0,.035.01.054.01a.918.918,0,0,0,.182-.037C1.912,51.8,9.4,49.737,9.409,46.41v-7H9.393c-.07-1.226-1.115-2.249-3.179-3.1a2.236,2.236,0,0,0,.195-.9V28.874c3.59-1.1,6-2.581,6-4.464v-7ZM4.3,35.735l-.341.3a8.947,8.947,0,0,1-2.551,1.38V32.646a14.881,14.881,0,0,0,3-1.376v4.138A.636.636,0,0,1,4.3,35.735Zm-22.366,4.647c-.146,0-.293.006-.44.009-.357.007-.723.009-1.085.012V35.408q.412,0,.825-.012l.159,0q1.51-.029,3.016-.1V40.29q-.321.016-.646.03C-16.838,40.347-17.446,40.367-18.065,40.382Zm-4.367.014q-.687-.012-1.367-.033l-.168-.006q-.818-.027-1.623-.067V35.3q1.5.071,3.016.1l.158,0q.412.008.825.012v5c-.194,0-.388,0-.581-.005C-22.26,40.4-22.345,40.4-22.432,40.4Zm-18.062-2.28-.1-.028V33.257c.934.252,1.938.482,3,.691v4.881q-1.377-.292-2.536-.61C-40.249,38.184-40.375,38.151-40.494,38.116ZM-19.416,46.4q.412.008.825.012v5q-2.073-.02-4-.116V46.3q1.5.071,3.016.1Zm3.809,0q1.51-.029,3.016-.1v4.993q-1.926.094-4,.116v-5q.412,0,.825-.012Zm8.016-.452v4.966q-1.441.151-3,.263V46.184C-9.577,46.118-8.575,46.037-7.591,45.942Zm2-.216q1.547-.186,3-.422v4.91q-1.413.249-3,.458Zm5-.779c1.062-.209,2.066-.439,3-.691v4.831c-.891.257-1.894.506-3,.741Zm-34,0v4.881c-1.106-.235-2.109-.484-3-.741V44.256C-36.657,44.508-35.653,44.739-34.591,44.947Zm2,.358q1.452.236,3,.422v4.946q-1.586-.208-3-.458Zm5,.637c.984.095,1.986.176,3,.243v4.987q-1.558-.11-3-.263Zm-2.481-5.98-.3-.031-.215-.023V34.943c.984.095,1.986.176,3,.243v4.983C-28.431,40.109-29.261,40.041-30.072,39.962Zm-2.519-5.236v4.946q-1.585-.208-3-.458V34.3Q-34.139,34.539-32.591,34.726Zm19.666,5.4-.666.05V35.185c1.014-.067,2.016-.147,3-.243v4.966c-.618.065-1.25.126-1.9.179C-12.635,40.1-12.78,40.111-12.925,40.122Zm4.334-.45V34.726q1.546-.186,3-.422v4.91Q-7,39.463-8.591,39.672Zm5-5.725c1.062-.209,2.066-.439,3-.691v4.831c-.891.257-1.894.506-3,.741Zm-13.675-4.568c-.752-.019-1.487-.048-2.209-.083l-.116,0V24.3q1.5.07,3.016.1l.158,0q.412.008.825.012V29.4c-.487-.005-.978-.007-1.453-.018ZM-40.591,15.088V10.257c.934.252,1.938.482,3,.691v4.881l-.37-.078c-.532-.117-1.051-.239-1.547-.368C-39.886,15.286-40.245,15.187-40.591,15.088ZM-22.416,12.4q.412.008.825.012V17.4c-1.346-.013-2.684-.048-4-.114V12.3q1.5.07,3.016.1Zm3.809,0q1.51-.029,3.016-.1v4.989c-.17.008-.333.02-.5.028l-.043,0c-.671.03-1.355.052-2.048.068l-.324.007c-.356.007-.72.008-1.081.012V12.409q.412,0,.825-.012Zm22.787.5-.028-.006-.364.283A9.726,9.726,0,0,1,1.409,14.4V9.645a14.881,14.881,0,0,0,3-1.376v4.138A.785.785,0,0,1,4.18,12.9Zm-12.771,3.77v-4.94q1.546-.186,3-.422v4.9C-6.539,16.374-7.537,16.528-8.591,16.666Zm5-.845V10.948c1.062-.209,2.066-.439,3-.691v4.82C-1.487,15.338-2.5,15.587-3.591,15.821Zm-7-3.879V16.9q-1.449.153-3,.265V12.185C-12.577,12.118-11.575,12.037-10.591,11.942Zm-20,4.962V11.942c.984.095,1.986.176,3,.243v4.978C-28.609,17.09-29.613,17.007-30.591,16.9Zm-2-5.178v4.941c-.2-.026-.4-.047-.6-.074l-.376-.055q-.867-.125-1.7-.265l-.327-.058v-4.91Q-34.139,11.539-32.591,11.726Zm10.752,17.427-.4-.03q-.96-.075-1.875-.166l-.392-.04c-.027,0-.053-.007-.08-.009V23.942c.984.1,1.986.176,3,.243v4.984Zm-6.607-.747c-.4-.063-.768-.131-1.145-.2v-4.9q1.452.235,3,.422v4.946c-.612-.081-1.211-.165-1.786-.255Zm-3.145-5.459V27.82q-1.657-.355-3-.751V22.256C-33.657,22.508-32.653,22.739-31.591,22.947Zm-5-1.3V26.4a6.239,6.239,0,0,1-2.916-1.779l-.067-.112a.631.631,0,0,1-.017-.095V20.269A14.881,14.881,0,0,0-36.591,21.645Zm23.984,2.749q1.51-.028,3.016-.1v4.988c-1.314.065-2.65.1-4,.115V24.409q.412,0,.825-.012ZM.316,28.231c-.439.076-.882.151-1.337.22-.261.04-.528.078-.8.116-.253.036-.516.067-.773.1V23.726q1.546-.186,3-.422v4.91Zm-6.771.854c-.373.031-.758.051-1.136.078V24.185c1.014-.067,2.016-.147,3-.243V28.9c-.581.061-1.161.122-1.758.172ZM4.973,27.21c-.5.139-1.025.269-1.563.4-.249.058-.5.116-.763.172-.077.017-.159.032-.237.049V22.948c1.062-.209,2.066-.439,3-.691v4.831ZM10.4,17.479c-.092.679-1.631,1.582-4.378,2.431h0a67.122,67.122,0,0,1-16.09,2.4c-.359.015-.717.03-1.083.042-.3.01-.6.019-.9.027-.828.018-1.668.031-2.534.031s-1.706-.013-2.534-.032c-.3-.007-.6-.017-.9-.027-.367-.011-.725-.027-1.083-.042a67.114,67.114,0,0,1-16.09-2.4h0c-2.725-.842-4.261-1.738-4.375-2.414a.235.235,0,0,1,.017-.059c.068.017.144.031.213.048.391.093.792.183,1.2.269,1.987.428,4.189.779,6.535,1.047.008,0,.014,0,.021,0h0c1.6.182,3.256.325,4.958.426.013,0,.024.007.037.007s.012,0,.019,0q1.838.108,3.722.153c.769.019,1.524.029,2.259.029.525,0,1.063-.006,1.606-.016A76.576,76.576,0,0,0-.3,17.083c.216-.061.427-.124.635-.187.127-.039.257-.077.38-.116.362-.116.709-.235,1.044-.359l.171-.066c.283-.107.555-.218.815-.331.075-.033.152-.065.225-.1.277-.125.545-.253.793-.386.112-.059.209-.12.314-.18s.24-.139.351-.21c.063-.04.138-.078.2-.118C9.1,16,10.284,17.065,10.4,17.479ZM-20.591,1.414C-4.1,1.414,4.238,4.01,4.394,5.5,4.273,6.176,2.738,7.069.02,7.909h0a67.122,67.122,0,0,1-16.09,2.4c-.359.015-.717.03-1.083.042-.3.01-.6.019-.9.027-.828.019-1.668.032-2.534.032s-1.706-.013-2.534-.032c-.3-.007-.6-.017-.9-.027-.367-.011-.725-.027-1.083-.042a67.114,67.114,0,0,1-16.09-2.4h0c-2.719-.84-4.253-1.733-4.374-2.409C-45.42,4.01-37.08,1.414-20.591,1.414Zm-25,11V8.269a14.881,14.881,0,0,0,3,1.376v4.788C-44.536,13.7-45.589,12.973-45.591,12.41Zm4.844,13.839c.015.016.038.03.053.046,1.369,1.382,4.2,2.468,7.733,3.278l.249.056q.389.087.788.17A77.123,77.123,0,0,0-20.6,31.235h.011q2.031.118,4.153.158c.626.013,1.242.021,1.844.021.69,0,1.4-.008,2.118-.025,1.308-.027,2.6-.081,3.868-.155l.014,0c.009,0,.016,0,.025,0A77.343,77.343,0,0,0,2.978,29.754,18.116,18.116,0,0,1,.02,30.91h0a69.006,69.006,0,0,1-17.281,2.449c-.225.007-.447.015-.675.021-.245.006-.494.01-.743.015-.629.01-1.262.019-1.912.019-.866,0-1.706-.013-2.534-.032-.3-.007-.6-.017-.9-.027-.367-.011-.725-.027-1.083-.042a67.114,67.114,0,0,1-16.09-2.4h0c-2.75-.85-4.289-1.754-4.378-2.433C-45.469,28.1-44.458,27.159-40.747,26.249Zm-4.844,9.161V31.269a14.881,14.881,0,0,0,3,1.376v4.769l-.571-.222-.012.012C-44.744,36.553-45.589,35.914-45.591,35.41Zm3,11V42.269a14.882,14.882,0,0,0,3,1.376v4.788C-41.536,47.7-42.589,46.973-42.591,46.41Zm47,2.023V43.646a14.882,14.882,0,0,0,3-1.376v4.138C7.408,46.971,6.354,47.7,4.409,48.433ZM7.4,39.491c-.109.677-1.645,1.575-4.376,2.419h0a67.122,67.122,0,0,1-16.09,2.4c-.359.015-.717.03-1.083.042-.3.01-.6.019-.9.027-.828.018-1.668.031-2.534.031s-1.707-.013-2.536-.032c-.3-.007-.6-.017-.895-.027-.369-.012-.729-.027-1.09-.042a67.122,67.122,0,0,1-16.09-2.4h0c-2.645-.817-4.173-1.685-4.365-2.355.3.1.607.2.924.3l.1.029q.405.125.829.241l.324.089c.16.043.324.084.488.126A72.954,72.954,0,0,0-26.6,42.234h.008c1.55.092,3.133.149,4.733.168.426.008.849.012,1.264.012.551,0,1.115-.007,1.686-.017,1.459-.024,2.9-.078,4.307-.162l.008,0,.013,0c1.715-.1,3.375-.25,4.97-.433l.017,0c.022,0,.04-.011.062-.013,1.776-.205,3.46-.457,5.023-.75.322-.059.639-.12.953-.183l.21-.043a26.87,26.87,0,0,0,7.263-2.364c.1-.052.186-.106.277-.159.111-.066.217-.133.32-.2s.207-.122.3-.185C6.787,38.61,7.331,39.24,7.4,39.491Zm.013-13.058V21.646a14.881,14.881,0,0,0,3-1.376v4.138C10.408,24.971,9.354,25.7,7.409,26.433Z" transform="translate(540.591 418.586)" fill="#03284b"/>
  </g>
</svg>
