<svg xmlns="http://www.w3.org/2000/svg" width="14" height="19.091" viewBox="0 0 14 19.091">
  <g id="Group_281" data-name="Group 281" transform="translate(-1631 -443)">
    <g id="Delete_Trash" data-name="Delete / Trash" transform="translate(1595.203 443)">
      <path id="Path_481" data-name="Path 481" d="M37.74,17.8a1.734,1.734,0,0,0,1.748,1.3h6.618a1.734,1.734,0,0,0,1.748-1.3l1.307-12.7H36.433ZM45.342,7a.636.636,0,0,1,1.273,0l-.636,9.545a.636.636,0,1,1-1.273,0ZM42.161,7a.636.636,0,0,1,1.273,0v9.545a.636.636,0,0,1-1.273,0Zm-2.545-.636A.636.636,0,0,1,40.252,7l.636,9.545a.636.636,0,0,1-1.273,0L38.979,7A.636.636,0,0,1,39.615,6.364Zm9.164-3.817h-2.8V1.273C45.979.307,45.667,0,44.706,0H40.888a1.113,1.113,0,0,0-1.273,1.273V2.547h-2.8A.988.988,0,0,0,35.8,3.5a.988.988,0,0,0,1.018.955H48.779A.988.988,0,0,0,49.8,3.5.988.988,0,0,0,48.779,2.546Zm-4.073,0H40.888V1.273h3.818V2.546Z" transform="translate(0)" fill="#9aa9b7" fill-rule="evenodd"/>
    </g>
  </g>
</svg>
