<svg xmlns="http://www.w3.org/2000/svg" width="255.761" height="33.09" viewBox="0 0 255.761 33.09">
  <g id="Group_188" data-name="Group 188" transform="translate(-74 -6005.334)">
    <path id="TV5Monde" d="M330.394,367.939V364.96h8.851v-8.426h-8.936V353.64H340.1v-8.835H318.648v31.963h21.789v-8.83Zm-31.981-23.133H286.03v31.963h15.192s15.576,0,15.576-15.51C316.8,343.767,298.413,344.806,298.413,344.806Zm.447,22.325h-1.277l.043-12.256h1.234s6.223-.3,6.223,6.032S298.86,367.131,298.86,367.131ZM272.5,362.407l-9.958-17.6H251.368v31.963h11.171v-16.66l9.83,16.66H283.6V344.806H272.5Zm-40.662-18.218c-10.341,0-17.809,7.378-17.809,16.526s6.7,16.564,17.809,16.564,17.759-7.416,17.759-16.564S242.176,344.189,231.834,344.189Zm-.021,23.027A6.217,6.217,0,1,1,237.8,361,6.12,6.12,0,0,1,231.813,367.216Zm-34.661-22.41-4.468,16.537-4.553-16.537H176.086l-5.149,31.963h11.32l1.617-17.3,5.4,17.3h6.766l5.447-17.383,1.532,17.383h11.32l-5.234-31.963Zm-43.832,12.239c.468-2.755.638-3.319.638-3.319h14.618v-8.92H145.34s-2.963,18.032-3.128,19.031a29.691,29.691,0,0,1,10.641-1.188c3.143.306,5.532,1.375,5.19,3.282-.4,2.2-3.406,3.083-7.02,2.847a24.846,24.846,0,0,1-9.193-2.6c-.252,1.413-1.417,8.579-1.417,8.579a35.707,35.707,0,0,0,19.545,1.868c11.107-2,12.008-11.331,10.043-14.852C165.277,353.3,155.106,356.322,153.319,357.045Zm-22.97-12.239L125.1,362.832l-5.351-17.984H84.688l-.011,10.026h7.362l-.016,21.894H104.1V354.811h6.511l9.064,21.958h10.66l13.351-31.963Z" transform="translate(-10.677 5661.144)" fill="#9aa9b7"/>
  </g>
</svg>
