<svg xmlns="http://www.w3.org/2000/svg" width="21.875" height="25" viewBox="0 0 21.875 25">
  <g id="user_icon" data-name="user icon" transform="translate(-749 -34.5)">
    <path id="Path_103" data-name="Path 103" d="M10.25,3.125A3.134,3.134,0,0,1,13.375,6.25V7.813a3.125,3.125,0,0,1-6.25,0V6.25A3.134,3.134,0,0,1,10.25,3.125M10.25,0A6.268,6.268,0,0,0,4,6.25V7.813a6.25,6.25,0,0,0,12.5,0V6.25A6.268,6.268,0,0,0,10.25,0Z" transform="translate(749.688 34.5)" fill="#fff"/>
    <path id="Path_104" data-name="Path 104" d="M13.5,13.125a6.3,6.3,0,0,1,5.469,3.125H5.063a6.3,6.3,0,0,1,5.469-3.125H13.5M13.5,10H10.375A9.4,9.4,0,0,0,1,19.375H22.875A9.4,9.4,0,0,0,13.5,10Z" transform="translate(748 40.125)" fill="#fff"/>
  </g>
</svg>
