<svg xmlns="http://www.w3.org/2000/svg" width="44.131" height="35" viewBox="0 0 44.131 35">
  <g id="Group_144" data-name="Group 144" transform="translate(-568.869 -546)">
    <g id="Icon" transform="translate(568.869 540)">
      <path id="Path_454" data-name="Path 454" d="M36.537,28.156l-11-7A1,1,0,0,0,24,22V36a1,1,0,0,0,1.537.844l11-7a1,1,0,0,0,0-1.688ZM26,34.179V23.821L34.137,29Z" transform="translate(-7.397 -5.5)" fill="#03284b"/>
      <path id="Path_455" data-name="Path 455" d="M43.37,6H.761A.761.761,0,0,0,0,6.761V40.239A.761.761,0,0,0,.761,41H43.37a.761.761,0,0,0,.761-.761V6.761A.761.761,0,0,0,43.37,6ZM7.609,22.739H1.522V15.891H7.609ZM1.522,24.261H7.609v6.848H1.522ZM9.13,31.87V7.522H35V39.478H9.13Zm33.478-9.13H36.522V15.891h6.087Zm-6.087,1.522h6.087v6.848H36.522ZM42.609,7.522V14.37H36.522V7.522Zm-41.087,0H7.609V14.37H1.522Zm0,31.957V32.63H7.609v6.848Zm41.087,0H36.522V32.63h6.087Z" fill="#03284b"/>
    </g>
  </g>
</svg>
