<svg xmlns="http://www.w3.org/2000/svg" width="60" height="59.768" viewBox="0 0 60 59.768">
  <g id="Icon" transform="translate(0 -0.116)">
    <path id="Path_456" data-name="Path 456" d="M5.508,12.424a1,1,0,0,0-.832-1.818,7.983,7.983,0,0,0-1.915,1.231,1,1,0,0,0,1.31,1.512A5.979,5.979,0,0,1,5.508,12.424Z" fill="#03284b"/>
    <path id="Path_457" data-name="Path 457" d="M9,11.884h2a1,1,0,0,0,0-2H9a1,1,0,0,0,0,2Z" fill="#03284b"/>
    <path id="Path_458" data-name="Path 458" d="M15,11.884h2a1,1,0,0,0,0-2H15a1,1,0,0,0,0,2Z" fill="#03284b"/>
    <path id="Path_459" data-name="Path 459" d="M11,23.884H9a1,1,0,0,0,0,2h2a1,1,0,1,0,0-2Z" fill="#03284b"/>
    <path id="Path_460" data-name="Path 460" d="M23,23.884H21a1,1,0,0,0,0,2h2a1,1,0,0,0,0-2Z" fill="#03284b"/>
    <path id="Path_461" data-name="Path 461" d="M17,23.884H15a1,1,0,0,0,0,2h2a1,1,0,0,0,0-2Z" fill="#03284b"/>
    <path id="Path_462" data-name="Path 462" d="M5.508,23.344a5.993,5.993,0,0,1-1.436-.925,1,1,0,1,0-1.31,1.512,8.008,8.008,0,0,0,1.914,1.231,1,1,0,0,0,.832-1.818Z" fill="#03284b"/>
    <path id="Path_463" data-name="Path 463" d="M29,23.884H27a1,1,0,0,0,0,2h2a1,1,0,0,0,0-2Z" fill="#03284b"/>
    <path id="Path_464" data-name="Path 464" d="M47,23.884H45a1,1,0,0,0,0,2h2a1,1,0,0,0,0-2Z" fill="#03284b"/>
    <path id="Path_465" data-name="Path 465" d="M53,23.884H51a1,1,0,0,0,0,2h2a1,1,0,0,0,0-2Z" fill="#03284b"/>
    <path id="Path_466" data-name="Path 466" d="M35,23.884H33a1,1,0,0,0,0,2h2a1,1,0,0,0,0-2Z" fill="#03284b"/>
    <path id="Path_467" data-name="Path 467" d="M41,23.884H39a1,1,0,0,0,0,2h2a1,1,0,0,0,0-2Z" fill="#03284b"/>
    <path id="Path_468" data-name="Path 468" d="M5.508,53.344a5.993,5.993,0,0,1-1.436-.925,1,1,0,0,0-1.31,1.512,8.008,8.008,0,0,0,1.914,1.231,1,1,0,1,0,.832-1.818Z" fill="#03284b"/>
    <path id="Path_469" data-name="Path 469" d="M17,53.884H15a1,1,0,0,0,0,2h2a1,1,0,0,0,0-2Z" fill="#03284b"/>
    <path id="Path_470" data-name="Path 470" d="M11,53.884H9a1,1,0,0,0,0,2h2a1,1,0,0,0,0-2Z" fill="#03284b"/>
    <path id="Path_471" data-name="Path 471" d="M35,53.884H33a1,1,0,0,0,0,2h2a1,1,0,0,0,0-2Z" fill="#03284b"/>
    <path id="Path_472" data-name="Path 472" d="M38,54.884a1,1,0,0,0,1,1h2a1,1,0,0,0,0-2H39A1,1,0,0,0,38,54.884Z" fill="#03284b"/>
    <path id="Path_473" data-name="Path 473" d="M45,55.884h2a1,1,0,0,0,0-2H45a1,1,0,0,0,0,2Z" fill="#03284b"/>
    <path id="Path_474" data-name="Path 474" d="M29,53.884H27a1,1,0,0,0,0,2h2a1,1,0,0,0,0-2Z" fill="#03284b"/>
    <path id="Path_475" data-name="Path 475" d="M51,55.884h2a1,1,0,0,0,0-2H51a1,1,0,0,0,0,2Z" fill="#03284b"/>
    <path id="Path_476" data-name="Path 476" d="M23,53.884H21a1,1,0,0,0,0,2h2a1,1,0,0,0,0-2Z" fill="#03284b"/>
    <path id="Path_477" data-name="Path 477" d="M44,38.884a4,4,0,1,0,4-4A4,4,0,0,0,44,38.884Zm4-2a2,2,0,1,1-2,2A2,2,0,0,1,48,36.884Z" fill="#03284b"/>
    <path id="Path_478" data-name="Path 478" d="M42.942,5.884,37.506.448a1.14,1.14,0,0,0-1.609,0L33.851,2.494,31.805.448a1.14,1.14,0,0,0-1.609,0L24.76,5.884H8a8.009,8.009,0,0,0-8,8V52.732a7.161,7.161,0,0,0,7.152,7.152H60v-54ZM36.7,2.472l3.412,3.412,14,14H48.723L37.456,8.616a1.081,1.081,0,0,0-1.519.011L24.681,19.884H19.29L35.266,3.909h0ZM45.9,19.884H27.509L36.7,10.691ZM31,2.472l1.437,1.437L16.462,19.884H13.588l14-14ZM8,7.884H22.76L20.7,9.945a.974.974,0,0,0-.633.633L10.76,19.884H8a6,6,0,0,1,0-12Zm50,36H47a5,5,0,0,1,0-10H58Zm0-20H57a1,1,0,0,0,0,2h1v6H47a7,7,0,1,0,0,14H58v8H57a1,1,0,0,0,0,2h1v2H7.152A5.158,5.158,0,0,1,2,52.732v-2.2a.984.984,0,0,0,.241-.954A6.009,6.009,0,0,1,2,47.884V20.528a.984.984,0,0,0,.241-.954c-.019-.065-.026-.132-.043-.2.09.095.181.188.275.278s.175.162.265.241q.168.147.343.285c.094.074.19.145.287.215.121.087.246.169.372.249.1.064.2.126.306.186.132.075.267.145.4.213.105.053.21.106.318.154.143.063.289.119.435.174.108.041.215.083.325.119.157.051.317.092.477.134.106.027.21.059.318.082.181.039.365.065.55.091.092.013.182.032.275.042A7.986,7.986,0,0,0,8,21.887H58Zm-1.058-4-8-8H49a1,1,0,1,0,0-2H47c-.017,0-.031.009-.048.01l-2.01-2.01H58v12Z" fill="#03284b"/>
    <path id="Path_479" data-name="Path 479" d="M55,9.884H53a1,1,0,1,0,0,2h2a1,1,0,0,0,0-2Z" fill="#03284b"/>
  </g>
</svg>
