<svg xmlns="http://www.w3.org/2000/svg" width="28.694" height="20" viewBox="0 0 28.694 20">
  <g id="youtube-symbol" transform="translate(0 -14.676)">
    <path id="Path_649" data-name="Path 649" d="M28.2,17.893a3.626,3.626,0,0,0-3.1-2.82,96.414,96.414,0,0,0-10.745-.4,96.43,96.43,0,0,0-10.746.4,3.624,3.624,0,0,0-3.1,2.82A30.73,30.73,0,0,0,0,24.676a30.721,30.721,0,0,0,.5,6.782,3.624,3.624,0,0,0,3.1,2.82,96.347,96.347,0,0,0,10.745.4,96.327,96.327,0,0,0,10.745-.4,3.626,3.626,0,0,0,3.1-2.82,30.706,30.706,0,0,0,.5-6.782A30.725,30.725,0,0,0,28.2,17.893ZM10.644,29.13V19.641L19.766,24.4Z" fill="#fff"/>
  </g>
</svg>
